<svg width="54" height="54" viewBox="0 0 54 54" fill="none" xmlns="http://www.w3.org/2000/svg">
<path d="M46 2.5H7.5C4.73858 2.5 2.5 4.73858 2.5 7.5V47C2.5 49.7614 4.73858 52 7.5 52H21.5C24.2614 52 26.5 49.7614 26.5 47V19C26.5 16.2386 28.7386 14 31.5 14H34.5C37.2614 14 39.5 16.2386 39.5 19V47C39.5 49.7614 41.7386 52 44.5 52H46C48.7614 52 51 49.7614 51 47V7.5C51 4.73858 48.7614 2.5 46 2.5Z" fill="#EF5C5C"/>
<path d="M2.5 4.5V49.5C2.5 50.6046 3.39543 51.5 4.5 51.5H24.5C25.6046 51.5 26.5 50.6046 26.5 49.5V16C26.5 14.8954 27.3954 14 28.5 14H37.5C38.6046 14 39.5 14.8954 39.5 16V49.5C39.5 50.6046 40.3954 51.5 41.5 51.5H49.5C50.6046 51.5 51.5 50.6046 51.5 49.5V4.5C51.5 3.39543 50.6046 2.5 49.5 2.5H4.5C3.39543 2.5 2.5 3.39543 2.5 4.5Z" stroke="black" stroke-width="4"/>
</svg>
