<svg width="89" height="72" viewBox="0 0 89 72" fill="none" xmlns="http://www.w3.org/2000/svg">
<path d="M68 2H23L15.5 5L11.5 11V24.5L10 28L4.5 36L11 43V59L14.5 66L23 70H68L76 64L77.5 58V45.5L80 39L86 35L80 30.5L77.5 25V12L74.5 5L68 2Z" fill="#C28AE3"/>
<path d="M35 35.5H49M49 35.5L51.088 33.7103C52.0199 32.9115 52.7828 31.9345 53.3317 30.8366L53.3861 30.7277C53.7927 29.9146 54.0655 29.0412 54.1941 28.1411L54.2402 27.8188C54.4106 26.6255 54.2782 25.4084 53.8549 24.2797V24.2797C53.3005 22.8012 52.2744 21.5465 50.9353 20.7096L50.8336 20.646C49.6353 19.8971 48.2508 19.5 46.8378 19.5H35V36.25V53H47.6536C49.1932 53 50.7082 52.6137 52.0599 51.8764L52.2801 51.7563C54.3373 50.6342 55.8485 48.7223 56.465 46.4615V46.4615C56.8168 45.1716 56.8635 43.8174 56.6013 42.5063L56.3306 41.1529C56.115 40.0751 55.5853 39.0853 54.808 38.308V38.308C54.2749 37.7749 53.639 37.3556 52.939 37.0756L49 35.5ZM87 35.5L83.7067 33.3045C82.9064 32.771 82.1873 32.1247 81.5715 31.3858L80.743 30.3916C80.2493 29.7992 79.8258 29.1517 79.481 28.4619L79.0557 27.6115C78.3615 26.2229 78 24.6918 78 23.1393V13.5262C78 10.3212 76.6655 7.26079 74.3168 5.07989V5.07989C72.1848 3.10021 69.3831 2 66.4738 2H23.0262C20.1169 2 17.3152 3.10021 15.1832 5.07989V5.07989C12.8345 7.26079 11.5 10.3212 11.5 13.5262V23.1393C11.5 24.6918 11.1385 26.2229 10.4443 27.6115L10.019 28.4619C9.67417 29.1517 9.25067 29.7992 8.75699 30.3916L7.92847 31.3858C7.31271 32.1247 6.59357 32.771 5.79326 33.3045L2.5 35.5L4.87576 36.5559C6.2732 37.177 7.50917 38.111 8.48817 39.2858V39.2858C9.15854 40.0903 9.69809 40.9952 10.087 41.9675L10.7848 43.7119C11.2572 44.8931 11.5 46.1536 11.5 47.4258V57.1849C11.5 60.289 12.6267 63.2876 14.6707 65.6237V65.6237C17.1042 68.4048 20.6197 70 24.3151 70H65.1849C68.8803 70 72.3958 68.4048 74.8293 65.6237V65.6237C76.8733 63.2876 78 60.289 78 57.1849V47.4258C78 46.1536 78.2428 44.8931 78.7152 43.7119L79.413 41.9675C79.8019 40.9952 80.3415 40.0903 81.0118 39.2858V39.2858C81.9908 38.111 83.2268 37.177 84.6242 36.5559L87 35.5Z" stroke="black" stroke-width="4" stroke-linecap="round" stroke-linejoin="round"/>
</svg>
