<svg width="64" height="74" viewBox="0 0 64 74" fill="none" xmlns="http://www.w3.org/2000/svg">
<path d="M27.979 4.62395L4.42752 18.7548C2.92149 19.6585 2 21.286 2 23.0423V52.5057C2 54.3471 3.01211 56.0394 4.63437 56.9107L30.2723 70.6792C31.8009 71.5001 33.6457 71.4699 35.1465 70.5994L58.6956 56.9409C60.2377 56.0465 61.187 54.3986 61.187 52.6158V23.1534C61.187 21.3375 60.2025 19.6644 58.6152 18.7826L32.9797 4.54063C31.4177 3.67284 29.5113 3.7046 27.979 4.62395Z" fill="#66BE65"/>
<path d="M21.3496 25.3333L21.4976 56.4929C21.4992 56.8301 21.4667 57.1666 21.4006 57.4972L21.1758 58.6209C21.0597 59.2014 20.8311 59.7534 20.5027 60.2459V60.2459C20.1709 60.7437 19.7437 61.1709 19.2459 61.5027V61.5027C18.7534 61.8311 18.2014 62.0597 17.6209 62.1758L17.1025 62.2795C16.3766 62.4247 15.6274 62.4069 14.9092 62.2273L14.6137 62.1534C14.2062 62.0515 13.8131 61.8987 13.4438 61.6986L4.61743 56.9146C3.0046 56.0404 2 54.3533 2 52.5188V23.0054C2 21.2691 2.90078 19.6571 4.37951 18.7471L28.9978 3.59736C30.5919 2.61639 32.6003 2.60789 34.2026 3.57532L59.3404 18.7529C60.8397 19.6581 61.7561 21.2818 61.7561 23.0332V52.5322C61.7561 54.3596 60.7592 56.0414 59.1562 56.9185L34.0129 70.6762C32.5069 71.5002 30.6835 71.494 29.1831 70.6598L23.5 67.5" stroke="black" stroke-width="4" stroke-linecap="round"/>
<path d="M51.5118 28.7479L50.9961 27.3473C50.6723 26.4678 50.1014 25.7006 49.3521 25.1377V25.1377C48.5362 24.5248 47.5483 24.1839 46.528 24.1632L38.5 24L33.3742 24.1538C32.4748 24.1808 31.5993 24.4501 30.8401 24.9331L30.3127 25.2687C29.6577 25.6854 29.1087 26.249 28.7093 26.9147L28.2385 27.6994C27.8268 28.3855 27.6094 29.1706 27.6094 29.9707V29.9707C27.6094 31.9418 28.916 33.6741 30.8113 34.2156L47.8854 39.0939C50.0319 39.7072 51.5118 41.6691 51.5118 43.9015V45.5113C51.5118 47.1334 50.7249 48.6547 49.4011 49.592L47.2743 51.0978C46.4445 51.6853 45.4554 52.0058 44.4387 52.0167L38.4224 52.0813L34.2118 52.0235C33.1022 52.0083 32.0292 51.6243 31.1618 50.9322L29.4908 49.5988C28.3018 48.65 27.6094 47.2117 27.6094 45.6905V45.252" stroke="black" stroke-width="4" stroke-linecap="round"/>
</svg>
