<svg width="63" height="69" viewBox="0 0 63 69" fill="none" xmlns="http://www.w3.org/2000/svg">
<path d="M59.2601 2H3.09756C2.50861 2 2.04721 2.50642 2.10187 3.09282L7.15952 57.3475C7.19576 57.7363 7.45497 58.0684 7.82329 58.198L32.483 66.8746C32.7127 66.9554 32.964 66.9497 33.1897 66.8584L54.5743 58.2136C54.921 58.0734 55.1605 57.7516 55.1952 57.3793L60.2558 3.09282C60.3105 2.50642 59.8491 2 59.2601 2Z" fill="#88D6E7" stroke="black" stroke-width="4" stroke-linecap="round"/>
<path d="M14 17H47.6L45.903 31M17.7333 41.7333L19.6 47.8L32.2 52L43.8667 47.8L45.903 31M15.4 31H45.903" stroke="black" stroke-width="4" stroke-linecap="round" stroke-linejoin="round"/>
</svg>
