<svg width="63" height="69" viewBox="0 0 63 69" fill="none" xmlns="http://www.w3.org/2000/svg">
<path d="M7.69326 57.511L2.94873 2.47449H59.883L55.1385 57.511L32.3648 66.5256L7.69326 57.511Z" fill="#FBDB36" stroke="black"/>
<path d="M59.2601 2H3.09756C2.50861 2 2.04721 2.50642 2.10187 3.09282L7.15952 57.3475C7.19576 57.7363 7.45497 58.0684 7.82329 58.198L32.483 66.8746C32.7127 66.9554 32.964 66.9497 33.1897 66.8584L54.5743 58.2136C54.921 58.0734 55.1605 57.7516 55.1952 57.3793L60.2558 3.09282C60.3105 2.50642 59.8491 2 59.2601 2Z" fill="#FBDB36"/>
<path d="M12.9124 16.2336H28.0438C28.5961 16.2336 29.0438 16.6813 29.0438 17.2336V49.622C29.0438 50.2617 28.4514 50.737 27.8269 50.5982L21.0965 49.1025C20.7322 49.0216 20.4433 48.7446 20.3472 48.384L18.6058 41.854M7.82329 58.198L32.483 66.8746C32.7127 66.9554 32.964 66.9497 33.1897 66.8584L54.5743 58.2136C54.921 58.0734 55.1605 57.7516 55.1952 57.3793L60.2558 3.09282C60.3105 2.50642 59.8491 2 59.2601 2H3.09756C2.50861 2 2.04721 2.50642 2.10187 3.09282L7.15952 57.3475C7.19576 57.7363 7.45497 58.0684 7.82329 58.198Z" stroke="black" stroke-width="4" stroke-linecap="round"/>
<path d="M48.4964 21.9271L49.6091 17.4762C49.7669 16.845 49.2896 16.2336 48.639 16.2336H37.1606C36.6084 16.2336 36.1606 16.6814 36.1606 17.2336V31.8395C36.1606 32.3918 36.6084 32.8395 37.1606 32.8395H45.4302C46.0441 32.8395 46.513 33.3874 46.4182 33.9939L44.3132 47.4659C44.2593 47.8112 44.0291 48.1032 43.706 48.2362L36.1606 51.3431" stroke="black" stroke-width="4" stroke-linecap="round"/>
</svg>
