<svg width="75" height="75" viewBox="0 0 75 75" fill="none" xmlns="http://www.w3.org/2000/svg">
<circle opacity="0.85" cx="37.5" cy="37.5" r="35.5" fill="#D9D9D9" stroke="black" stroke-width="4"/>
<path d="M41 25L59.5393 49.1573M40.4382 49.1573L58.9775 25M36.5056 42.4157L35.9438 43.8202L35.8366 44.0884C35.5349 44.8426 35.1351 45.5539 34.6477 46.2038L34.5426 46.3439C33.9827 47.0905 33.2999 47.7364 32.5234 48.254V48.254C31.6288 48.8504 30.6261 49.2658 29.5718 49.4767L29.162 49.5586C27.7077 49.8495 26.2079 49.8242 24.7642 49.4845L24.0771 49.3228C22.8234 49.0278 21.6362 48.5001 20.5772 47.7669V47.7669C19.2306 46.8347 18.1244 45.5915 17.3537 44.1464V44.1464C16.648 42.8231 16.2378 41.3591 16.1546 39.8616L16 37.0787M16 37.0787H36.5056L36.3396 34.2557C36.2638 32.9676 35.9237 31.7014 35.3467 30.5473V30.5473C34.6355 29.1249 33.573 27.8963 32.2655 26.9911V26.9911C31.172 26.234 29.9311 25.716 28.6238 25.4709L28.4737 25.4428C26.9208 25.1516 25.3191 25.2267 23.7999 25.6607V25.6607C22.7282 25.9669 21.7123 26.4473 20.7959 27.0817L20.4287 27.3358C19.1794 28.2008 18.1525 29.3492 17.4321 30.6871V30.6871C16.8571 31.755 16.489 32.9219 16.3473 34.1265L16 37.0787Z" stroke="black" stroke-width="4" stroke-linecap="round" stroke-linejoin="round"/>
</svg>
