<svg width="112" height="158" viewBox="0 0 112 158" fill="none" xmlns="http://www.w3.org/2000/svg">
<path d="M57.0159 4H83.3091C83.5631 4 83.8098 4.03042 84.0544 4.09894C85.937 4.62626 94.6587 7.24171 98.63 11.4692C102.715 15.8177 104.593 19.3905 105.032 25.3406C105.556 32.4419 103.578 37.2925 98.63 42.4131C94.6195 46.5635 85.7783 48.8499 84.005 49.2757C83.7935 49.3265 83.582 49.3488 83.3646 49.3488H55.4154M57.0159 4H30.5183C30.3996 4 30.2873 4.00622 30.1697 4.02177C28.7334 4.21171 18.5881 5.68132 13.8012 9.86867C8.68106 14.3475 6.34728 18.5602 5.79844 25.3406C5.22962 32.3678 6.84173 37.273 11.6671 42.4131C15.7698 46.7833 25.1238 48.925 26.8593 49.2915C27.0457 49.3309 27.235 49.3488 27.4255 49.3488H55.4154M57.0159 4L55.4154 49.3488M55.4154 49.3488V55.751M55.4154 55.751H27.5141C27.265 55.751 27.0234 55.7801 26.7832 55.8459C24.8868 56.3645 15.8979 58.9894 11.6671 63.2202C6.92282 67.9645 4.72645 72.0036 4.19784 78.6921C3.56377 86.715 5.78933 89.7339 11.6671 95.2311C15.9991 99.2827 25.2024 101.252 26.8753 101.583C27.0511 101.617 27.2292 101.633 27.4083 101.633H55.4154M55.4154 55.751V101.633M55.4154 101.633V106.968M55.4154 106.968H27.4084C27.2292 106.968 27.051 106.984 26.8752 107.019C25.2019 107.35 15.9997 109.32 11.6671 113.371C6.76606 117.953 4.85705 122.166 4.19784 128.843C3.44681 136.45 4.71485 142.058 10.0664 147.516C15.0517 152.6 20.0284 153.541 27.139 153.918C35.4301 154.357 41.3167 153.153 47.4125 147.516C52.7835 142.549 55.0537 130.866 55.375 129.075C55.4037 128.915 55.4154 128.761 55.4154 128.598V106.968Z" stroke="#8DD126" stroke-width="7" stroke-linecap="round"/>
<circle cx="85.2921" cy="78.6924" r="23.1758" stroke="#8DD126" stroke-width="7"/>
</svg>
