<svg width="144" height="146" viewBox="0 0 144 146" fill="none" xmlns="http://www.w3.org/2000/svg">
<path d="M83.2478 40.8451L89.5283 47.1256C90.1356 47.7329 90.8187 48.2595 91.5606 48.6923L99.7106 53.4464C101.031 54.2169 102.511 54.6742 104.037 54.7832L113.173 55.4358C114.298 55.5161 115.429 55.4056 116.517 55.1088L122.646 53.4371C124.325 52.9792 125.856 52.0911 127.086 50.8606L136.203 41.744C136.886 41.0606 136.299 39.9015 135.344 40.0485L126.904 41.3469C126.401 41.4243 125.892 41.4632 125.383 41.4632L114.873 41.4632L109.34 40.7717C108.03 40.6079 106.766 40.1863 105.619 39.5313L101.604 37.2366C101.055 36.9231 100.537 36.5581 100.057 36.1468L95.5167 32.2549C94.6464 31.5089 93.9108 30.6189 93.3421 29.6237L91.1275 25.7481C90.6734 24.9534 90.3305 24.1001 90.1085 23.2121L88.5639 17.0336L85.4091 4.41445C85.1906 3.54016 84.0179 3.37839 83.5707 4.16085L78.4044 13.202C77.6698 14.4876 77.2298 15.9202 77.1163 17.3964L76.5487 24.7745C76.4178 26.476 76.7245 28.1826 77.4397 29.732L81.2393 37.9646C81.7337 39.0358 82.4137 40.0109 83.2478 40.8451Z" stroke="#8DD126" stroke-width="7"/>
<path d="M55.4746 14.9653L46.9473 31.6996C46.5055 32.5666 46.1926 33.4935 46.0185 34.451L44.4019 43.3427L44.4019 51.271C44.4019 52.2443 44.5439 53.2123 44.8236 54.1445L47.2207 62.1347L51.8882 70.7966C52.2044 71.3834 52.5786 71.9372 53.005 72.4496L58.4959 79.0475L65.7159 85.0313L73.5295 90.3227L82.0193 94.6517C83.012 95.1579 84.0824 95.4946 85.1862 95.6479L94.2007 96.8999L103.222 96.8999C103.931 96.8999 104.639 96.8244 105.332 96.6747L112.993 95.0207L120.271 91.7861C121.053 91.4384 121.788 90.9916 122.456 90.4567L130.845 83.7455L139.578 73.7413C140.191 73.0389 139.594 71.9536 138.673 72.0953L122.848 74.53C122.345 74.6074 121.836 74.6462 121.327 74.6462L104.289 74.6462L94.4049 73.4107C93.0949 73.247 91.8302 72.8254 90.6839 72.1704L82.8604 67.6998C82.3116 67.3862 81.7937 67.0213 81.3138 66.6099L72.9654 59.4541C72.0951 58.7082 71.3596 57.8182 70.7909 56.823L66.0738 48.568C65.8355 48.1511 65.6276 47.7176 65.4517 47.2708L61.6693 37.6662C61.4334 37.0671 61.2559 36.4467 61.1393 35.8136L57.3491 15.2381C57.1759 14.298 55.9087 14.1135 55.4746 14.9653Z" stroke="#8DD126" stroke-width="7"/>
<path d="M131.987 108.006L110.899 112.711C110.417 112.819 109.927 112.89 109.434 112.925L97.0204 113.812L83.866 112.873L73.8878 111.21C73.0268 111.066 72.1884 110.81 71.3938 110.449L62.2552 106.295L55.4307 101.498L48.1612 95.9598L42.1563 90.1806C41.7754 89.814 41.4241 89.4178 41.1058 88.9957L32.9174 78.1352C32.4329 77.4926 32.0277 76.7939 31.7107 76.0542L27.0058 65.0761C26.7032 64.37 26.483 63.6313 26.3495 62.8748L23.7316 48.0402L22.0633 30.9721C21.9733 30.0514 20.7887 29.736 20.2529 30.4902L12.4564 41.463L6.4658 54.9075C6.14183 55.6346 5.90583 56.3978 5.76281 57.1808L4 66.8322L4 80.0035C4 81.1378 4.193 82.2639 4.57074 83.3335L8.698 95.0202L15.389 106.603C15.708 107.155 16.0791 107.675 16.4972 108.157L24.6712 117.571L33.1276 125.087L44.4028 133.544L56.4939 138.693C57.1024 138.952 57.735 139.15 58.3826 139.284L66.9532 141.061L77.2888 142L84.8056 142L97.0204 140.121L106.861 135.126L116.752 128.846L125.208 120.389L133.015 109.567C133.554 108.821 132.884 107.806 131.987 108.006Z" stroke="#8DD126" stroke-width="7"/>
</svg>
