<svg width="144" height="158" viewBox="0 0 144 158" fill="none" xmlns="http://www.w3.org/2000/svg">
<path d="M29.7413 36.9493L65.0776 36.924C66.3674 36.9231 67.4293 37.9563 67.4495 39.2318L68.6364 114.031C68.6599 115.509 67.2939 116.607 65.8304 116.288L50.0581 112.845C49.2044 112.659 48.5196 112.019 48.282 111.187L43.976 96.1089M113.049 50.0387L115.484 39.7577C115.83 38.2997 114.693 36.8885 113.173 36.8896L86.368 36.9088C85.0784 36.9097 84.0491 37.9446 84.0693 39.2199L84.6046 72.9515C84.6248 74.2271 85.687 75.2602 86.9765 75.2593L106.288 75.2455C107.722 75.2445 108.837 76.509 108.638 77.9099L104.216 109.026C104.103 109.824 103.576 110.499 102.826 110.806L85.3193 117.994M19.3946 133.873L77.3002 153.87C77.8396 154.056 78.4263 154.042 78.95 153.831L128.572 133.83C129.377 133.506 129.924 132.763 129.992 131.903L139.82 6.52215C139.927 5.16779 138.831 3.99902 137.455 4L6.2992 4.09391C4.92383 4.0949 3.86489 5.26522 4.01403 6.6194L17.8134 131.91C17.9123 132.807 18.5298 133.574 19.3946 133.873Z" stroke="#8DD126" stroke-width="7" stroke-linecap="round"/>
</svg>
