<svg width="163" height="163" viewBox="0 0 163 163" fill="none" xmlns="http://www.w3.org/2000/svg">
<path d="M156.067 74.5929L88.4071 6.93335C87.4822 6.00369 86.3828 5.26595 85.172 4.76255C83.9612 4.25915 82.6628 4 81.3514 4C80.0401 4 78.7418 4.25915 77.5309 4.76255C76.3201 5.26595 75.2207 6.00369 74.2958 6.93335L60.2589 20.9703L78.0836 38.795C80.1803 38.0992 82.4294 38.0016 84.5785 38.5133C86.7276 39.0249 88.6915 40.1255 90.2497 41.6915C91.8079 43.2574 92.8988 45.2267 93.3998 47.3783C93.9009 49.5298 93.7922 51.7785 93.0861 53.8717L110.242 71.1023C112.814 70.2233 115.609 70.2523 118.161 71.1844C120.714 72.1164 122.87 73.8952 124.27 76.2243C125.67 78.5534 126.23 81.292 125.856 83.9836C125.481 86.6752 124.196 89.1572 122.213 91.0158C120.231 92.8745 117.671 93.9974 114.961 94.1975C112.251 94.3976 109.554 93.6628 107.32 92.1155C105.086 90.5682 103.45 88.3019 102.684 85.6945C101.918 83.0871 102.07 80.296 103.112 77.7865L87.0702 61.7443V103.929C89.5065 105.137 91.4549 107.144 92.5901 109.615C93.7254 112.086 93.9788 114.871 93.3082 117.507C92.6375 120.142 91.0834 122.467 88.9051 124.095C86.7268 125.723 84.0562 126.554 81.3389 126.45C78.6216 126.347 76.0221 125.314 73.9742 123.525C71.9263 121.736 70.554 119.299 70.0862 116.62C69.6183 113.942 70.0834 111.184 71.4037 108.806C72.724 106.429 74.8196 104.577 77.3409 103.558V61.0759C75.8929 60.476 74.5797 59.5921 73.4789 58.4764C71.8161 56.8049 70.6881 54.6766 70.2384 52.3621C69.7888 50.0477 70.0378 47.6518 70.9537 45.4793L53.3518 27.8774L6.93336 74.2958C6.0037 75.2207 5.26595 76.3201 4.76255 77.5309C4.25915 78.7417 4 80.0401 4 81.3515C4 82.6628 4.25915 83.9612 4.76255 85.172C5.26595 86.3828 6.0037 87.4823 6.93336 88.4071L74.5929 156.067C75.5177 156.996 76.6172 157.734 77.828 158.237C79.0388 158.741 80.3372 159 81.6485 159C82.9599 159 84.2582 158.741 85.4691 158.237C86.6799 157.734 87.7794 156.996 88.7042 156.067L156.067 88.7041C156.996 87.7793 157.734 86.6799 158.237 85.4691C158.741 84.2582 159 82.9598 159 81.6485C159 80.3372 158.741 79.0388 158.237 77.828C157.734 76.6172 156.996 75.5177 156.067 74.5929Z" stroke="#8DD126" stroke-width="7" stroke-linecap="round" stroke-linejoin="round"/>
</svg>
