<svg width="125" height="155" viewBox="0 0 125 155" fill="none" xmlns="http://www.w3.org/2000/svg">
<path d="M43.7578 55.4801C43.7578 55.4801 48.4785 59.43 52 61.092C55.2902 62.6449 57.3299 63.1777 60.9151 63.7966C65.8615 64.6504 73.7684 63.7966 73.7684 63.7966L86.5168 61.0533C86.6062 61.0341 86.6912 61.0135 86.7793 60.9888C87.7122 60.7275 93.5159 59.0654 96.9998 57.1953C100.374 55.384 104.253 52.3864 104.489 52.204C104.496 52.1981 104.501 52.1946 104.508 52.1887C104.747 52.0048 109.88 48.0396 112.345 45.5748C115.635 42.2849 117.848 40.4111 119.536 36.0751C120.892 32.5912 120.701 30.3385 120.966 26.6093C121.132 24.2639 121.064 20.9822 121.009 19.2446C120.985 18.4616 120.767 17.7006 120.365 17.0283C119.682 15.8865 118.531 14.0428 117.517 12.8162C115.871 10.8228 112.982 8.51364 111.657 7.49576C111.196 7.14191 110.676 6.88505 110.116 6.72968C107.973 6.13466 102.186 4.60082 98.0891 4.19548C94.1305 3.80379 88.1514 4.10973 86.8898 4.1814C86.7278 4.19061 86.5707 4.20845 86.4105 4.23434L69.8445 6.91094C69.6109 6.94868 69.3864 7.00104 69.1607 7.07225C67.4064 7.62587 59.1146 10.2727 53.7662 12.5119C48.5009 14.7163 40.8232 18.7299 39.6275 19.3585C39.5178 19.4162 39.4217 19.4716 39.3169 19.5378C38.1211 20.2927 30.1251 25.3658 25.1707 29.1448C21.3502 32.059 15.8064 36.8976 15.2141 37.4159C15.1775 37.4479 15.1454 37.4769 15.11 37.5102C14.5739 38.0146 10.0572 42.31 8.01346 45.7776C4.60749 51.5567 3.07716 55.7337 3.72414 62.4105C4.22561 67.5856 8.40281 74.1082 10.13 76.6126C10.615 77.3159 11.2113 77.9266 11.8797 78.4585L46.6416 106.124C47.847 107.083 48.5446 108.544 48.4791 110.083C48.3408 113.33 47.9453 119.132 46.8276 123.161C45.839 126.725 43.5854 131.427 42.4061 133.771C41.9266 134.724 41.1361 135.478 40.1737 135.939L23.2503 144.032C15.2893 147.84 6.65832 140.221 9.44894 131.849L12.3149 123.251C12.3349 123.191 12.3549 123.134 12.3775 123.075C12.6193 122.446 14.1666 118.501 15.7931 116.264C17.4733 113.954 20.9655 111.092 20.9655 111.092C20.9655 111.092 28.1457 106.555 33.0345 104.195C40.1319 100.77 52 97.2989 52 97.2989C52 97.2989 60.4041 94.9216 65.7931 95.5748C68.5491 95.9089 70.4112 95.7128 72.6897 97.2989C73.8361 98.097 75.2128 99.8344 75.2128 99.8344" stroke="#8DD126" stroke-width="7" stroke-linecap="round"/>
</svg>
