<svg width="120" height="120" viewBox="0 0 120 120" fill="none" xmlns="http://www.w3.org/2000/svg">
<rect width="120" height="120" rx="10" fill="#BE91CE"/>
<path d="M66.054 33.2035L65.7456 33.1223C62.9223 32.3794 59.9945 32.1143 57.0837 32.3382L56.964 32.3474C55.3954 32.4681 53.8417 32.7372 52.3239 33.1512L51.5024 33.3752C49.7028 33.866 47.9848 34.6177 46.403 35.6063C45.1767 36.3727 44.0415 37.2758 43.019 38.2983L41.8189 39.4984C40.8323 40.485 40.0312 41.641 39.4538 42.9113L39.0649 43.7667C38.1727 45.7298 38.008 47.9462 38.6003 50.0195C38.6689 50.2595 38.9535 50.3604 39.1579 50.2173L41.4268 48.6291C43.1398 47.43 45.0993 46.6293 47.1618 46.2855L47.4463 46.2381C49.3731 45.917 51.3479 46.0419 53.2189 46.6032C54.8326 47.0873 56.3348 47.8858 57.6388 48.9527L59.9375 50.8335C60.9647 51.6739 61.9237 52.5945 62.8055 53.5865L63.3953 54.25C64.9279 55.9742 66.747 57.4206 68.7722 58.5253C70.5988 59.5216 72.5695 60.2271 74.6134 60.6164L77.0817 61.0865L80.2102 61.3845C81.8212 61.5379 83.4445 61.5074 85.0486 61.2935L86.4465 61.1071C89.1484 60.7469 91.7125 59.6988 93.8931 58.0633C94.4957 57.6114 95.0654 57.1173 95.5979 56.5847L96.7084 55.4743C97.5459 54.6368 98.2591 53.6836 98.8263 52.6438L99.2868 51.7996C100.481 49.6098 100.808 47.0509 100.203 44.6311C100.143 44.3887 99.8762 44.2616 99.6497 44.3673L94.6508 46.7001C93.0177 47.4622 91.2063 47.7601 89.4152 47.5611C88.082 47.413 86.7934 46.9932 85.6287 46.3277L85.1459 46.0518C84.1811 45.5005 83.2942 44.823 82.5085 44.0373L78.4038 39.9327L76.0161 38.096C73.0544 35.8178 69.6674 34.1544 66.054 33.2035Z" fill="#51C8ED"/>
<path d="M44.3713 56.4725L44.0629 56.3914C41.2396 55.6484 38.3118 55.3834 35.401 55.6073L35.2814 55.6165C33.7127 55.7371 32.159 56.0063 30.6412 56.4202L29.8197 56.6443C28.0201 57.1351 26.3021 57.8867 24.7203 58.8753C23.4941 59.6417 22.3588 60.5449 21.3363 61.5674L20.1363 62.7674C19.1496 63.754 18.3485 64.9101 17.7711 66.1803L17.3822 67.0358C16.49 68.9988 16.3253 71.2152 16.9177 73.2886C16.9862 73.5285 17.2708 73.6295 17.4753 73.4864L19.7441 71.8981C21.4571 70.6991 23.4166 69.8983 25.4791 69.5546L25.7636 69.5072C27.6904 69.186 29.6652 69.3109 31.5362 69.8722C33.15 70.3563 34.6521 71.1548 35.9561 72.2217L38.2548 74.1025C39.282 74.943 40.241 75.8635 41.1228 76.8555L41.7126 77.519C43.2452 79.2432 45.0643 80.6896 47.0896 81.7943C48.9161 82.7906 50.8868 83.4961 52.9307 83.8854L55.399 84.3556L58.5276 84.6535C60.1386 84.807 61.7618 84.7764 63.3659 84.5626L64.7638 84.3762C67.4657 84.0159 70.0298 82.9678 72.2104 81.3324C72.813 80.8805 73.3827 80.3864 73.9153 79.8538L75.0257 78.7433C75.8632 77.9058 76.5764 76.9526 77.1436 75.9128L77.6041 75.0686C78.7985 72.8788 79.1257 70.32 78.5208 67.9001C78.4601 67.6577 78.1935 67.5307 77.967 67.6363L72.9681 69.9692C71.335 70.7313 69.5237 71.0292 67.7325 70.8301C66.3994 70.682 65.1107 70.2622 63.946 69.5967L63.4632 69.3208C62.4985 68.7695 61.6115 68.0921 60.8258 67.3064L56.7212 63.2017L54.3334 61.365C51.3718 59.0868 47.9848 57.4234 44.3713 56.4725Z" fill="#51C8ED"/>
<path d="M66.054 33.2035L65.7456 33.1223C62.9223 32.3794 59.9945 32.1143 57.0837 32.3382L56.964 32.3474C55.3954 32.4681 53.8417 32.7372 52.3239 33.1512L51.5024 33.3752C49.7028 33.866 47.9848 34.6177 46.403 35.6063C45.1767 36.3727 44.0415 37.2758 43.019 38.2983L41.8189 39.4984C40.8323 40.485 40.0312 41.641 39.4538 42.9113L39.0649 43.7667C38.1727 45.7298 38.008 47.9462 38.6003 50.0195C38.6689 50.2595 38.9535 50.3604 39.1579 50.2173L41.4268 48.6291C43.1398 47.43 45.0993 46.6293 47.1618 46.2855L47.4463 46.2381C49.3731 45.917 51.3479 46.0419 53.2189 46.6032C54.8326 47.0873 56.3348 47.8858 57.6388 48.9527L59.9375 50.8335C60.9647 51.6739 61.9237 52.5945 62.8055 53.5865L63.3953 54.25C64.9279 55.9742 66.747 57.4206 68.7722 58.5253C70.5988 59.5216 72.5695 60.2271 74.6134 60.6164L77.0817 61.0865L80.2102 61.3845C81.8212 61.5379 83.4445 61.5074 85.0486 61.2935L86.4465 61.1071C89.1484 60.7469 91.7125 59.6988 93.8931 58.0633C94.4957 57.6114 95.0654 57.1173 95.5979 56.5847L96.7084 55.4743C97.5459 54.6368 98.2591 53.6836 98.8263 52.6438L99.2868 51.7996C100.481 49.6098 100.808 47.0509 100.203 44.6311C100.143 44.3887 99.8762 44.2616 99.6497 44.3673L94.6508 46.7001C93.0177 47.4622 91.2063 47.7601 89.4152 47.5611C88.082 47.413 86.7934 46.9932 85.6287 46.3277L85.1459 46.0518C84.1811 45.5005 83.2942 44.823 82.5085 44.0373L78.4038 39.9327L76.0161 38.096C73.0544 35.8178 69.6674 34.1544 66.054 33.2035Z" stroke="black" stroke-width="4"/>
<path d="M44.3713 58.5882L44.0629 58.5071C41.2396 57.7641 38.3118 57.4991 35.401 57.723L35.2814 57.7322C33.7127 57.8529 32.159 58.122 30.6412 58.5359L29.8197 58.76C28.0201 59.2508 26.3021 60.0024 24.7203 60.9911C23.4941 61.7575 22.3588 62.6606 21.3363 63.6831L20.1363 64.8831C19.1496 65.8698 18.3485 67.0258 17.7711 68.2961L17.3822 69.1515C16.49 71.1145 16.3253 73.331 16.9177 75.4043C16.9862 75.6443 17.2708 75.7452 17.4753 75.6021L19.7441 74.0139C21.4571 72.8148 23.4166 72.014 25.4791 71.6703L25.7636 71.6229C27.6904 71.3017 29.6652 71.4266 31.5362 71.9879C33.15 72.4721 34.6521 73.2706 35.9561 74.3375L38.2548 76.2183C39.282 77.0587 40.241 77.9792 41.1228 78.9712L41.7126 79.6347C43.2452 81.359 45.0643 82.8053 47.0896 83.91C48.9161 84.9063 50.8868 85.6118 52.9307 86.0011L55.399 86.4713L58.5276 86.7693C60.1386 86.9227 61.7618 86.8922 63.3659 86.6783L64.7638 86.4919C67.4657 86.1316 70.0298 85.0836 72.2104 83.4481C72.813 82.9962 73.3827 82.5021 73.9153 81.9695L75.0257 80.8591C75.8632 80.0215 76.5764 79.0684 77.1436 78.0286L77.6041 77.1843C78.7985 74.9946 79.1257 72.4357 78.5208 70.0159C78.4601 69.7734 78.1935 69.6464 77.967 69.7521L72.9681 72.0849C71.335 72.847 69.5237 73.1449 67.7325 72.9459C66.3994 72.7977 65.1107 72.378 63.946 71.7124L63.4632 71.4366C62.4985 70.8853 61.6115 70.2078 60.8258 69.4221L56.7212 65.3175L54.3334 63.4807C51.3718 61.2025 47.9848 59.5392 44.3713 58.5882Z" stroke="black" stroke-width="4"/>
</svg>

