<svg width="120" height="120" viewBox="0 0 120 120" fill="none" xmlns="http://www.w3.org/2000/svg">
<path d="M0 10C0 4.47715 4.47715 0 10 0H110C115.523 0 120 4.47715 120 10V110C120 115.523 115.523 120 110 120H10C4.47715 120 0 115.523 0 110V10Z" fill="#BE91CE"/>
<path d="M56.044 22.7866L28.4275 39.3565C26.9215 40.2601 26 41.8876 26 43.6439V78.148C26 79.9894 27.0121 81.6817 28.6344 82.5529L58.6626 98.6792C60.1911 99.5001 62.0359 99.4699 63.5368 98.5994L91.1509 82.5832C92.693 81.6887 93.6423 80.0408 93.6423 78.258V43.755C93.6423 41.9392 92.6578 40.2661 91.0705 39.3842L61.0447 22.7032C59.4827 21.8354 57.5763 21.8672 56.044 22.7866Z" fill="#66BE65"/>
<path d="M48.1138 46.6667L48.2833 82.3501C48.2849 82.6873 48.2524 83.0237 48.1863 83.3544L47.9083 84.7444C47.7802 85.3848 47.5279 85.9939 47.1656 86.5373L47.1261 86.5965C46.76 87.1458 46.2886 87.6171 45.7394 87.9833L45.6801 88.0228C45.1367 88.385 44.5276 88.6373 43.8872 88.7654L43.1025 88.9224C42.3766 89.0675 41.6274 89.0497 40.9092 88.8702L40.328 88.7249C39.9205 88.623 39.5274 88.4702 39.1581 88.27L28.6174 82.5569C27.0046 81.6827 26 79.9955 26 78.161V43.607C26 41.8707 26.9008 40.2587 28.3795 39.3487L57.2254 21.5974C58.8195 20.6164 60.828 20.6079 62.4303 21.5753L91.877 39.3545C93.3763 40.2597 94.2927 41.8834 94.2927 43.6348V78.1745C94.2927 80.0019 93.2958 81.6837 91.6927 82.5608L62.2405 98.6762C60.7346 99.5002 58.9111 99.494 57.4108 98.6598L50.5714 94.8571" stroke="black" stroke-width="4" stroke-linecap="round"/>
<path d="M82.5851 50.5693L81.9384 48.813C81.6057 47.9094 81.0192 47.1212 80.2494 46.5429L79.9719 46.3345C79.1337 45.7048 78.1187 45.3546 77.0705 45.3332L67.7145 45.1431L61.6601 45.3248C60.7606 45.3518 59.8852 45.621 59.126 46.104L58.2152 46.6835C57.5603 47.1003 57.0113 47.6638 56.6119 48.3295L55.9806 49.3817C55.5143 50.1588 55.268 51.0605 55.268 51.9668V51.9668C55.268 54.1992 56.7479 56.1953 58.8944 56.8086L78.9587 62.5413C81.1052 63.1546 82.5851 65.1165 82.5851 67.3489V70.0968C82.5851 71.7189 81.7982 73.2402 80.4743 74.1776L77.5602 76.2408C76.7304 76.8283 75.7413 77.1489 74.7246 77.1598L67.6258 77.2359L62.5691 77.1666C61.4595 77.1513 60.3865 76.7674 59.5192 76.0753L57.1494 74.1844C55.9605 73.2356 55.268 71.7972 55.268 70.2761V69.4311" stroke="black" stroke-width="4" stroke-linecap="round"/>
</svg>

