<svg width="69" height="80" viewBox="0 0 69 80" fill="none" xmlns="http://www.w3.org/2000/svg">
<path d="M5.5775 19.0725L32.9287 3.92413C34.5159 3.04504 36.4548 3.09481 37.9949 4.05419L63.6437 20.0322C65.1092 20.9451 66 22.5495 66 24.2761V55.7239C66 57.4505 65.1092 59.0549 63.6437 59.9678L38.0617 75.9042C36.4863 76.8856 34.4968 76.9135 32.8945 75.9768L5.47652 59.9478C3.94276 59.0512 3 57.408 3 55.6313V23.4464C3 21.6282 3.98698 19.9534 5.5775 19.0725Z" fill="#B0E2F1"/>
<path d="M59 25L47 32.25M59 25L47 18M59 25V39.75M35 68.5L47 61.5M35 68.5V54M35 68.5L22.75 61.5M10.5 25L22.75 18M10.5 25L22.75 32.25M10.5 25V39.75M35 39.5L47 32.25M35 39.5L22.75 32.25M35 39.5V54M22.75 18L32.4935 12.4323C34.0445 11.546 35.9506 11.5545 37.4936 12.4546L47 18M22.75 18L47 32.25M47 32.25V61.5M47 18L22.75 32.25M22.75 32.25V61.5M47 61.5L56.5194 55.947C58.0554 55.051 59 53.4065 59 51.6281V39.75M35 54L59 39.75M35 54L10.5 39.75M10.5 39.75V51.5984C10.5 53.3927 11.4614 55.0494 13.0193 55.9396L22.75 61.5M66.5 23.8233V56.1767C66.5 57.9289 65.5828 59.5532 64.0825 60.4582L37.5234 76.4779C35.9663 77.4171 34.022 77.4369 32.4461 76.5296L4.50518 60.4424C2.95526 59.55 2 57.8977 2 56.1093V23.8907C2 22.1023 2.95525 20.45 4.50518 19.5576L32.4461 3.47041C34.022 2.56307 35.9663 2.58285 37.5234 3.52207L64.0825 19.5418C65.5828 20.4468 66.5 22.0711 66.5 23.8233Z" stroke="black" stroke-width="4"/>
</svg>
