<svg width="90" height="96" viewBox="0 0 90 96" fill="none" xmlns="http://www.w3.org/2000/svg">
<path d="M33.2155 11.0156H23.8521H22.1998L19.4459 21.4805L22.1998 35.2501L11.1841 38.004L1.8208 44.6134L3.47315 51.2228L11.1841 57.8322L21.0982 61.1369L19.4459 69.9495L21.0982 83.7191L28.8092 85.3714L37.6217 80.4144L44.7819 73.2542L52.4929 80.4144L61.3054 85.3714L67.3641 83.7191L70.118 73.2542L67.3641 61.1369L83.3368 54.5275L87.7431 47.3673L83.3368 40.2072L67.3641 34.1485L70.118 18.7266L67.3641 11.0156H58.0007L44.7819 21.4805L33.2155 11.0156Z" fill="#A2CCEB"/>
<circle cx="45.5" cy="46.5" r="6.5" fill="white"/>
<path d="M58.712 40.0649C64.7558 50.693 68.4757 61.2057 69.6576 69.5607C70.2494 73.7445 70.1896 77.2812 69.5437 79.9827C68.8989 82.6798 67.726 84.3506 66.2325 85.1999C64.739 86.0492 62.7034 86.203 60.0558 85.3781C57.4039 84.5519 54.3338 82.7951 51.0409 80.1473C44.4648 74.8597 37.332 66.2878 31.2882 55.6597C25.2444 45.0315 21.5245 34.5188 20.3426 26.1638C19.7508 21.98 19.8106 18.4433 20.4565 15.7419C21.1013 13.0447 22.2742 11.3739 23.7677 10.5246C25.2612 9.67535 27.2968 9.52156 29.9444 10.3464C32.5963 11.1726 35.6664 12.9295 38.9594 15.5772C45.5354 20.8648 52.6682 29.4367 58.712 40.0649Z" stroke="black" stroke-width="4"/>
<path d="M58.6808 55.7144C52.5945 66.3183 45.4274 74.8616 38.8302 80.1228C35.5266 82.7573 32.4496 84.5018 29.7944 85.3174C27.1435 86.1317 25.1086 85.9697 23.6185 85.1145C22.1284 84.2592 20.9621 82.5838 20.3281 79.884C19.6931 77.18 19.6474 73.6431 20.256 69.4617C21.4714 61.1115 25.2333 50.6138 31.3196 40.0099C37.4059 29.4061 44.573 20.8628 51.1702 15.6016C54.4738 12.967 57.5508 11.2225 60.206 10.407C62.8569 9.5927 64.8919 9.75463 66.382 10.6099C67.8721 11.4652 69.0383 13.1406 69.6723 15.8403C70.3073 18.5444 70.353 22.0813 69.7444 26.2626C68.529 34.6129 64.7671 45.1106 58.6808 55.7144Z" stroke="black" stroke-width="4"/>
<path d="M45.0426 63.636C32.8163 63.6689 21.8337 61.7353 13.9783 58.6537C10.0447 57.1106 6.99517 55.3185 4.96098 53.4271C2.93007 51.5388 2.05258 49.6956 2.04796 47.9775C2.04335 46.2594 2.91093 44.4116 4.93168 42.5124C6.95567 40.6101 9.99558 38.8017 13.9208 37.2375C21.7595 34.1137 32.7316 32.1212 44.9579 32.0884C57.1842 32.0555 68.1668 33.9891 76.0222 37.0707C79.9557 38.6138 83.0053 40.4059 85.0395 42.2973C87.0704 44.1856 87.9479 46.0288 87.9525 47.7469C87.9571 49.465 87.0896 51.3128 85.0688 53.212C83.0448 55.1143 80.0049 56.9227 76.0797 58.4869C68.2409 61.6107 57.2689 63.6032 45.0426 63.636Z" stroke="black" stroke-width="4"/>
<circle cx="45.3326" cy="46.8166" r="6.26175" stroke="black" stroke-width="4"/>
</svg>
