<svg width="120" height="120" viewBox="0 0 120 120" fill="none" xmlns="http://www.w3.org/2000/svg">
<rect width="120" height="120" rx="10" fill="#BE91CE"/>
<path d="M48.2154 23.0156H38.8521H37.1997L34.4458 33.4805L37.1997 47.2501L26.184 50.004L16.8207 56.6134L18.4731 63.2228L26.184 69.8322L36.0981 73.1369L34.4458 81.9495L36.0981 95.7191L43.8091 97.3714L52.6216 92.4144L59.7818 85.2542L67.4928 92.4144L76.3053 97.3714L82.364 95.7191L85.1179 85.2542L82.364 73.1369L98.3367 66.5275L102.743 59.3673L98.3367 52.2072L82.364 46.1485L85.1179 30.7266L82.364 23.0156H73.0006L59.7818 33.4805L48.2154 23.0156Z" fill="#A2CCEB"/>
<circle cx="60.5" cy="58.5" r="6.5" fill="white"/>
<path d="M73.7119 52.065C79.7557 62.6931 83.4756 73.2058 84.6575 81.5609C85.2494 85.7446 85.1895 89.2813 84.5437 91.9828C83.8989 94.68 82.7259 96.3507 81.2324 97.2C79.7389 98.0493 77.7034 98.2031 75.0557 97.3782C72.4038 96.552 69.3338 94.7952 66.0408 92.1474C59.4647 86.8599 52.3319 78.2879 46.2881 67.6598C40.2444 57.0317 36.5245 46.5189 35.3426 38.1639C34.7507 33.9801 34.8106 30.4435 35.4564 27.742C36.1012 25.0448 37.2741 23.3741 38.7677 22.5248C40.2612 21.6755 42.2967 21.5217 44.9444 22.3466C47.5963 23.1728 50.6663 24.9296 53.9593 27.5773C60.5354 32.8649 67.6682 41.4369 73.7119 52.065Z" stroke="black" stroke-width="4"/>
<path d="M73.6808 67.7143C67.5945 78.3182 60.4275 86.8615 53.8303 92.1227C50.5267 94.7572 47.4496 96.5017 44.7945 97.3173C42.1435 98.1316 40.1086 97.9696 38.6185 97.1143C37.1284 96.2591 35.9622 94.5836 35.3282 91.8839C34.6932 89.1799 34.6475 85.643 35.2561 81.4616C36.4714 73.1114 40.2334 62.6136 46.3197 52.0098C52.406 41.406 59.5731 32.8627 66.1703 27.6015C69.4738 24.9669 72.5509 23.2224 75.2061 22.4068C77.857 21.5926 79.8919 21.7545 81.382 22.6098C82.8721 23.4651 84.0383 25.1405 84.6723 27.8402C85.3074 30.5443 85.353 34.0811 84.7445 38.2625C83.5291 46.6127 79.7671 57.1105 73.6808 67.7143Z" stroke="black" stroke-width="4"/>
<path d="M60.0425 75.6362C47.8162 75.669 36.8336 73.7354 28.9782 70.6538C25.0446 69.1107 21.9951 67.3186 19.9609 65.4272C17.93 63.5389 17.0525 61.6958 17.0479 59.9777C17.0432 58.2596 17.9108 56.4117 19.9316 54.5125C21.9556 52.6103 24.9955 50.8018 28.9207 49.2376C36.7594 46.1138 47.7315 44.1213 59.9578 44.0885C72.1841 44.0556 83.1667 45.9892 91.022 49.0708C94.9556 50.6139 98.0052 52.406 100.039 54.2974C102.07 56.1858 102.948 58.0289 102.952 59.747C102.957 61.4651 102.089 63.3129 100.069 65.2121C98.0447 67.1144 95.0048 68.9228 91.0796 70.4871C83.2408 73.6108 72.2688 75.6033 60.0425 75.6362Z" stroke="black" stroke-width="4"/>
<circle cx="60.3326" cy="58.8164" r="6.26175" stroke="black" stroke-width="4"/>
</svg>

