<svg width="94" height="94" viewBox="0 0 94 94" fill="none" xmlns="http://www.w3.org/2000/svg">
<path d="M90.2968 42.9894L51.0106 3.70324C50.4736 3.16343 49.8352 2.73507 49.1321 2.44277C48.4291 2.15047 47.6752 2 46.9137 2C46.1523 2 45.3984 2.15047 44.6954 2.44277C43.9923 2.73507 43.3539 3.16343 42.8169 3.70324L34.6665 11.8537L45.0163 22.2035C46.2337 21.7995 47.5397 21.7429 48.7875 22.04C50.0354 22.3371 51.1757 22.9761 52.0805 23.8854C52.9853 24.7946 53.6187 25.9381 53.9096 27.1874C54.2005 28.4367 54.1374 29.7423 53.7274 30.9578L63.6891 40.9626C65.1822 40.4522 66.8051 40.4691 68.2873 41.0103C69.7695 41.5515 71.0214 42.5843 71.8344 43.9367C72.6474 45.2891 72.9722 46.8792 72.7549 48.4421C72.5375 50.005 71.791 51.4461 70.6399 52.5253C69.4887 53.6045 68.0025 54.2566 66.4288 54.3728C64.8552 54.489 63.2893 54.0623 61.9921 53.1638C60.695 52.2654 59.7449 50.9495 59.3004 49.4355C58.8558 47.9215 58.9436 46.3009 59.5492 44.8438L50.2343 35.5289V60.0235C51.6489 60.7248 52.7803 61.8901 53.4394 63.3248C54.0986 64.7596 54.2458 66.377 53.8564 67.9071C53.467 69.4373 52.5645 70.7876 51.2997 71.7327C50.0349 72.6778 48.4842 73.1605 46.9065 73.1003C45.3287 73.0401 43.8193 72.4406 42.6302 71.4018C41.4411 70.363 40.6442 68.9478 40.3726 67.3925C40.101 65.8371 40.371 64.2356 41.1376 62.8553C41.9042 61.475 43.1211 60.3993 44.585 59.8079V35.1408C43.7443 34.7925 42.9818 34.2793 42.3426 33.6315C41.3771 32.6609 40.7221 31.4251 40.461 30.0812C40.1999 28.7374 40.3445 27.3462 40.8764 26.0847L30.6559 15.8643L3.70324 42.8169C3.16344 43.3539 2.73507 43.9923 2.44277 44.6954C2.15047 45.3984 2 46.1523 2 46.9137C2 47.6752 2.15047 48.4291 2.44277 49.1321C2.73507 49.8352 3.16344 50.4736 3.70324 51.0106L42.9894 90.2968C43.5264 90.8366 44.1648 91.2649 44.8679 91.5572C45.5709 91.8495 46.3248 92 47.0863 92C47.8477 92 48.6016 91.8495 49.3046 91.5572C50.0077 91.2649 50.6461 90.8366 51.1831 90.2968L90.2968 51.1831C90.8366 50.6461 91.2649 50.0077 91.5572 49.3046C91.8495 48.6016 92 47.8477 92 47.0862C92 46.3248 91.8495 45.5709 91.5572 44.8679C91.2649 44.1648 90.8366 43.5264 90.2968 42.9894Z" fill="#FF522D" stroke="black" stroke-width="4" stroke-linecap="round" stroke-linejoin="round"/>
</svg>
