<svg width="120" height="120" viewBox="0 0 120 120" fill="none" xmlns="http://www.w3.org/2000/svg">
<rect width="120" height="120" rx="10" fill="#BE91CE"/>
<path d="M87.5859 26H29C26.2386 26 24 28.2386 24 31V91C24 93.7614 26.2386 96 29 96H52.9394C55.7008 96 57.9394 93.7614 57.9394 91V47.2626C57.9394 44.5012 60.178 42.2626 62.9394 42.2626H71.3232C74.0847 42.2626 76.3232 44.5012 76.3232 47.2626V91C76.3232 93.7614 78.5618 96 81.3232 96H87.5859C90.3473 96 92.5859 93.7614 92.5859 91V31C92.5859 28.2386 90.3473 26 87.5859 26Z" fill="#EF5C5C"/>
<path d="M24 28V93.2929C24 94.3975 24.8954 95.2929 26 95.2929H55.9394C57.044 95.2929 57.9394 94.3975 57.9394 93.2929V44.2626C57.9394 43.1581 58.8348 42.2626 59.9394 42.2626H74.3232C75.4278 42.2626 76.3232 43.1581 76.3232 44.2626V93.2929C76.3232 94.3975 77.2187 95.2929 78.3232 95.2929H91.2929C92.3975 95.2929 93.2929 94.3975 93.2929 93.2929V28C93.2929 26.8954 92.3975 26 91.2929 26H26C24.8954 26 24 26.8954 24 28Z" stroke="black" stroke-width="4"/>
</svg>

