<svg width="71" height="70" viewBox="0 0 71 70" fill="none" xmlns="http://www.w3.org/2000/svg">
<ellipse cx="35.4167" cy="35" rx="35.4167" ry="35" fill="#ED87D0"/>
<path d="M30.3392 43.2803L30.2263 43.1905L28 44L24.5 46L23 47.5L22.1243 49.2515C22.0415 49.417 21.9706 49.5881 21.9121 49.7636C20.8212 53.0365 24.1954 56.0152 27.3077 54.5267L28.916 53.7576C29.937 53.2692 30.7458 52.4264 31.1917 51.3861L32 49.5L32.195 47.7447C32.3848 46.0365 31.684 44.3506 30.3392 43.2803Z" fill="#ED87D0"/>
<path d="M31.1098 29.8725L33.5 31.5L35.3756 32.069C35.8462 32.2118 36.3353 32.2843 36.8271 32.2843H39.8128L43.5488 31.4804L46.5 30.5L48.939 28.6667L51 27L52.318 25.2589C52.8216 24.5936 53.1506 23.8129 53.2753 22.9879L53.5 21.5V20.5172C53.5 19.5402 53.2138 18.5847 52.6768 17.7686L52.5 17.5L51.5823 16.6818C50.9368 16.1064 50.1532 15.7082 49.3079 15.5261L47.3864 15.1121C47.0403 15.0376 46.6874 15 46.3334 15H43.9501C43.683 15 43.4163 15.0214 43.1526 15.064L39.0155 15.7325C38.7212 15.78 38.4318 15.8538 38.1506 15.9529L34.0122 17.4118L30.1923 19.2633C29.975 19.3687 29.7655 19.4897 29.5656 19.6253L25.7195 22.2353L23.1398 24.3789C22.925 24.5574 22.7256 24.7535 22.5436 24.9652L21.503 26.1757C21.0036 26.7567 20.6444 27.4446 20.4531 28.1865L19.9493 30.1402C19.6589 31.2663 19.7701 32.4584 20.2638 33.5114L20.5788 34.1832C21.2329 35.5781 22.2004 36.8031 23.4059 37.7625L30.3392 43.2803C31.684 44.3506 32.3848 46.0365 32.195 47.7447L32 49.5L31.1917 51.3861C30.7458 52.4264 29.937 53.2692 28.916 53.7576L27.3077 54.5267C24.1954 56.0152 20.8212 53.0365 21.9121 49.7636V49.7636C21.9706 49.5881 22.0415 49.417 22.1243 49.2515L23 47.5L24.5 46L28 44L33.5 42L36.5732 41.6158C37.1858 41.5393 37.8072 41.5768 38.4061 41.7265L39.5 42L40.2317 42.7353" stroke="black" stroke-width="4" stroke-linecap="round"/>
<path d="M68.8333 35C68.8333 53.2031 53.8946 68 35.4167 68C16.9388 68 2 53.2031 2 35C2 16.7969 16.9388 2 35.4167 2C53.8946 2 68.8333 16.7969 68.8333 35Z" stroke="black" stroke-width="4"/>
</svg>
