<svg width="120" height="120" viewBox="0 0 120 120" fill="none" xmlns="http://www.w3.org/2000/svg">
<rect width="120" height="120" rx="10" fill="#BE91CE"/>
<rect x="24" y="24" width="71" height="71" rx="8" fill="#6066FA" stroke="black" stroke-width="4"/>
<path d="M49.5227 67.0114V63.4773H68.0909V67.0114H60.8977V86.75H56.7159V67.0114H49.5227ZM84.3182 69.875C84.2121 68.8826 83.7652 68.1098 82.9773 67.5568C82.197 67.0038 81.1818 66.7273 79.9318 66.7273C79.053 66.7273 78.2992 66.8598 77.6705 67.125C77.0417 67.3902 76.5606 67.75 76.2273 68.2045C75.8939 68.6591 75.7235 69.178 75.7159 69.7614C75.7159 70.2462 75.8258 70.6667 76.0455 71.0227C76.2727 71.3788 76.5795 71.6818 76.9659 71.9318C77.3523 72.1742 77.7803 72.3788 78.25 72.5455C78.7197 72.7121 79.1932 72.8523 79.6705 72.9659L81.8523 73.5114C82.7311 73.7159 83.5758 73.9924 84.3864 74.3409C85.2045 74.6894 85.9356 75.1288 86.5795 75.6591C87.2311 76.1894 87.7462 76.8295 88.125 77.5795C88.5038 78.3295 88.6932 79.2083 88.6932 80.2159C88.6932 81.5795 88.3447 82.7803 87.6477 83.8182C86.9508 84.8485 85.9432 85.6553 84.625 86.2386C83.3144 86.8144 81.7273 87.1023 79.8636 87.1023C78.053 87.1023 76.4811 86.822 75.1477 86.2614C73.822 85.7008 72.7841 84.8826 72.0341 83.8068C71.2917 82.7311 70.8902 81.4205 70.8295 79.875H74.9773C75.0379 80.6856 75.2879 81.3598 75.7273 81.8977C76.1667 82.4356 76.7386 82.8371 77.4432 83.1023C78.1553 83.3674 78.9508 83.5 79.8295 83.5C80.7462 83.5 81.5492 83.3636 82.2386 83.0909C82.9356 82.8106 83.4811 82.4242 83.875 81.9318C84.2689 81.4318 84.4697 80.8485 84.4773 80.1818C84.4697 79.5758 84.2917 79.0758 83.9432 78.6818C83.5947 78.2803 83.1061 77.947 82.4773 77.6818C81.8561 77.4091 81.1288 77.1667 80.2955 76.9545L77.6477 76.2727C75.7311 75.7803 74.2159 75.0341 73.1023 74.0341C71.9962 73.0265 71.4432 71.6894 71.4432 70.0227C71.4432 68.6515 71.8144 67.4508 72.5568 66.4205C73.3068 65.3902 74.3258 64.5909 75.6136 64.0227C76.9015 63.447 78.3598 63.1591 79.9886 63.1591C81.6402 63.1591 83.0871 63.447 84.3295 64.0227C85.5795 64.5909 86.5606 65.3826 87.2727 66.3977C87.9848 67.4053 88.3523 68.5644 88.375 69.875H84.3182Z" fill="black"/>
</svg>

