<svg width="63" height="69" viewBox="0 0 63 69" fill="none" xmlns="http://www.w3.org/2000/svg">
<path d="M59.2601 2H3.09756C2.50861 2 2.04721 2.50642 2.10187 3.09282L7.15952 57.3475C7.19576 57.7363 7.45497 58.0684 7.82329 58.198L32.483 66.8746C32.7127 66.9554 32.964 66.9497 33.1897 66.8584L54.5743 58.2136C54.921 58.0734 55.1605 57.7516 55.1952 57.3793L60.2558 3.09282C60.3105 2.50642 59.8491 2 59.2601 2Z" fill="#FB7D36" stroke="black" stroke-width="4" stroke-linecap="round"/>
<path d="M48.5 16H15.1422C14.5374 16 14.071 16.5327 14.151 17.1322L15.8843 30.1322C15.9505 30.629 16.3743 31 16.8755 31H44.3792C44.9765 31 45.4406 31.5201 45.3727 32.1135L43.5672 47.9121C43.5258 48.2747 43.2901 48.5859 42.9523 48.7241L32.8431 52.8596C32.6217 52.9502 32.3752 52.9584 32.1483 52.8828L19.5321 48.6774C19.2016 48.5672 18.9522 48.293 18.8739 47.9535L17.5 42" stroke="black" stroke-width="4" stroke-linecap="round"/>
</svg>
