<svg width="76" height="78" viewBox="0 0 76 78" fill="none" xmlns="http://www.w3.org/2000/svg">
<path d="M44.7611 22.2611L47.0852 24.5852C47.6925 25.1925 48.3756 25.7191 49.1175 26.1519L51.9922 27.8288C53.3131 28.5993 54.7932 29.0567 56.3185 29.1656L59.3003 29.3786C60.4253 29.459 61.5558 29.3484 62.644 29.0516L63.9379 28.6987C65.6169 28.2409 67.1473 27.3527 68.3778 26.1222L71.34 23.16C72.0234 22.4766 71.4361 21.3175 70.4809 21.4645L67.7558 21.8837C67.2527 21.9611 66.7443 22 66.2353 22H61L58.9846 21.7481C57.6745 21.5843 56.4098 21.1628 55.2635 20.5077L54.325 19.9715C53.7763 19.6579 53.2584 19.2929 52.7785 18.8816L51.3151 17.6273C50.4449 16.8813 49.7093 15.9913 49.1406 14.9961L48.6844 14.1977C48.2303 13.403 47.8874 12.5497 47.6654 11.6617L47 9L45.6036 3.41445C45.385 2.54016 44.2123 2.37839 43.7652 3.16085L42.1156 6.04761C41.3811 7.33315 40.9411 8.76578 40.8275 10.242L40.6996 11.9053C40.5687 13.6068 40.8754 15.3134 41.5905 16.8628L42.7526 19.3806C43.247 20.4518 43.927 21.427 44.7611 22.2611Z" fill="#4C91E2"/>
<path d="M44.7611 22.2611L47.0852 24.5852C47.6925 25.1925 48.3756 25.7191 49.1175 26.1519L51.9922 27.8288C53.3131 28.5993 54.7932 29.0567 56.3185 29.1656L59.3003 29.3786C60.4253 29.459 61.5558 29.3484 62.644 29.0516L63.9379 28.6987C65.6169 28.2409 67.1473 27.3527 68.3778 26.1222L71.34 23.16C72.0234 22.4766 71.4361 21.3175 70.4809 21.4645L67.7558 21.8837C67.2527 21.9611 66.7443 22 66.2353 22H61L58.9846 21.7481C57.6745 21.5843 56.4098 21.1628 55.2635 20.5077L54.325 19.9715C53.7763 19.6579 53.2584 19.2929 52.7785 18.8816L51.3151 17.6273C50.4449 16.8813 49.7093 15.9913 49.1406 14.9961L48.6844 14.1977C48.2303 13.403 47.8874 12.5497 47.6654 11.6617L47 9L45.6036 3.41445C45.385 2.54016 44.2123 2.37839 43.7652 3.16085L42.1156 6.04761C41.3811 7.33315 40.9411 8.76578 40.8275 10.242L40.6996 11.9053C40.5687 13.6068 40.8754 15.3134 41.5905 16.8628L42.7526 19.3806C43.247 20.4518 43.927 21.427 44.7611 22.2611Z" stroke="black" stroke-width="4"/>
<path d="M28.998 39.3401L33.9273 44.2694C34.5346 44.8767 35.2177 45.4033 35.9596 45.8361L42.308 49.5393C43.6289 50.3099 45.1089 50.7672 46.6343 50.8761L53.6687 51.3786C54.7938 51.459 55.9243 51.3484 57.0124 51.0516L61.4906 49.8303C63.1695 49.3724 64.6999 48.4843 65.9305 47.2538L72.9453 40.2389C73.6287 39.5555 73.0414 38.3965 72.0861 38.5434L65.5979 39.5416C65.0948 39.619 64.5864 39.6579 64.0774 39.6579H55.3684L51.0372 39.1165C49.7271 38.9527 48.4625 38.5312 47.3161 37.8761L44.3514 36.182C43.8026 35.8684 43.2847 35.5035 42.8048 35.0921L39.3151 32.1009C38.4449 31.355 37.7093 30.465 37.1406 29.4698L35.5265 26.6451C35.0724 25.8504 34.7295 24.9971 34.5075 24.1091L33.2632 19.1316L30.7089 8.91445C30.4903 8.04016 29.3176 7.87839 28.8705 8.66085L24.9051 15.6002C24.1705 16.8858 23.7306 18.3184 23.617 19.7947L23.1996 25.2211C23.0687 26.9226 23.3754 28.6292 24.0905 30.1786L26.9894 36.4596C27.4838 37.5307 28.1638 38.5059 28.998 39.3401Z" fill="#4C91E2"/>
<path d="M28.7654 9.12934L25.1663 16.1925C24.7245 17.0595 24.4116 17.9864 24.2375 18.9438L23.5 23V26.5323C23.5 27.5056 23.6421 28.4736 23.9217 29.4058L25 33L27.2613 37.1964C27.5775 37.7833 27.9517 38.3371 28.3781 38.8495L31 42L34.8421 45.1842L39 48L42.8162 49.9459C43.8089 50.4521 44.8793 50.7888 45.9831 50.9421L50 51.5H54.3012C55.0107 51.5 55.7181 51.4245 56.4116 51.2748L60 50.5L63.3215 49.0238C64.1039 48.676 64.8385 48.2292 65.5071 47.6944L69.5 44.5L73.305 40.1412C73.9182 39.4388 73.3212 38.3534 72.3996 38.4952L65.5979 39.5416C65.0948 39.619 64.5864 39.6579 64.0774 39.6579H55.3684L51.0372 39.1165C49.7271 38.9527 48.4625 38.5312 47.3161 37.8761L44.3514 36.182C43.8026 35.8684 43.2847 35.5035 42.8048 35.0921L39.3151 32.1009C38.4449 31.355 37.7093 30.465 37.1406 29.4698L35.1999 26.0735C34.9617 25.6566 34.7538 25.2231 34.5778 24.7763L32.8547 20.4006C32.6188 19.8016 32.4413 19.1812 32.3246 18.5481L30.6399 9.40219C30.4667 8.46203 29.1995 8.27756 28.7654 9.12934Z" stroke="black" stroke-width="4"/>
<path d="M9.57692 57.8664L16.8746 65.1641C17.482 65.7715 18.1651 66.298 18.907 66.7308L28.4133 72.2762C29.7342 73.0467 31.2142 73.504 32.7395 73.613L43.4582 74.3786C44.5832 74.459 45.7137 74.3484 46.8019 74.0516L54.1748 72.0409C55.8537 71.583 57.3841 70.6948 58.6147 69.4643L69.3137 58.7652C69.9971 58.0818 69.4098 56.9228 68.4546 57.0697L58.5453 58.5942C58.0422 58.6717 57.5338 58.7105 57.0247 58.7105H45.1579L38.7214 57.906C37.4113 57.7422 36.1467 57.3207 35.0004 56.6656L30.1935 53.9188C29.6447 53.6052 29.1268 53.2403 28.6469 52.829L23.3151 48.2588C22.4449 47.5129 21.7093 46.6229 21.1406 45.6277L18.4739 40.9609C18.0198 40.1662 17.6769 39.3129 17.4549 38.4249L15.6842 31.3421L12.0773 16.9145C11.8587 16.0402 10.686 15.8784 10.2389 16.6609L4.16828 27.2845C3.43369 28.57 2.99373 30.0026 2.88017 31.4789L2.19959 40.3264C2.06871 42.0278 2.37542 43.7345 3.09054 45.2839L7.5684 54.9859C8.06276 56.057 8.74275 57.0322 9.57692 57.8664Z" fill="#4C91E2"/>
<path d="M68.9054 57.6783L59.2246 59.8383C58.7422 59.946 58.2525 60.0177 57.7594 60.0529L51.5 60.5L44.5 60L39.797 59.2162C38.936 59.0727 38.0976 58.8171 37.303 58.4559L33 56.5L29.3684 53.9474L25.5 51L22.5723 48.1823C22.1914 47.8157 21.8401 47.4195 21.5218 46.9974L17.7294 41.9674C17.2449 41.3248 16.8397 40.6261 16.5227 39.8864L14.4555 35.0627C14.1528 34.3566 13.9326 33.6179 13.7991 32.8614L12.5 25.5L11.734 17.6635C11.644 16.7428 10.4595 16.4274 9.92359 17.1816L6.5 22L3.54032 28.6423C3.21635 29.3694 2.98035 30.1326 2.83733 30.9156L2 35.5V41.7071C2 42.8415 2.193 43.9676 2.57074 45.0372L4.5 50.5L7.83621 56.2751C8.1552 56.8273 8.52628 57.3477 8.94437 57.8292L13 62.5L17.5 66.5L23.5 71L29.5061 73.5577C30.1146 73.8169 30.7472 74.015 31.3948 74.1492L35.5 75L41 75.5H45L51.5 74.5L56.7368 71.8421L62 68.5L66.5 64L69.9342 59.2393C70.4723 58.4935 69.803 57.478 68.9054 57.6783Z" stroke="black" stroke-width="4"/>
</svg>
