<svg width="84" height="56" viewBox="0 0 84 56" fill="none" xmlns="http://www.w3.org/2000/svg">
<path d="M49.3238 3.13784L49.0322 3.06111C46.3629 2.35866 43.5948 2.10809 40.8428 2.31979L40.7296 2.32849C39.2466 2.44257 37.7776 2.69701 36.3426 3.08839L35.5659 3.30021C33.8645 3.76424 32.2402 4.4749 30.7447 5.40959C29.5853 6.13419 28.5119 6.98805 27.5452 7.95479L26.4106 9.08936C25.4778 10.0222 24.7204 11.1152 24.1745 12.3161L23.8069 13.1249C22.9632 14.9809 22.8075 17.0764 23.3676 19.0366C23.4324 19.2635 23.7015 19.359 23.8948 19.2236L26.0399 17.7221C27.6595 16.5884 29.5121 15.8313 31.4621 15.5063L31.7311 15.4615C33.5528 15.1579 35.4198 15.2759 37.1888 15.8066C38.7145 16.2644 40.1347 17.0193 41.3676 18.028L43.5409 19.8062C44.5121 20.6008 45.4188 21.4711 46.2525 22.409L46.8101 23.0363C48.2591 24.6665 49.979 26.034 51.8938 27.0784C53.6207 28.0204 55.4839 28.6874 57.4163 29.0555L59.75 29.5L62.7079 29.7817C64.231 29.9268 65.7657 29.8979 67.2823 29.6957L68.604 29.5195C71.1585 29.1789 73.5827 28.188 75.6444 26.6417C76.2141 26.2144 76.7527 25.7473 77.2562 25.2438L78.3061 24.1939C79.098 23.402 79.7723 22.5009 80.3085 21.5178L80.7439 20.7196C81.8731 18.6493 82.1825 16.23 81.6105 13.9421C81.5532 13.7129 81.3011 13.5928 81.087 13.6927L76.3608 15.8983C74.8168 16.6188 73.1042 16.9005 71.4108 16.7123C70.1503 16.5723 68.9319 16.1754 67.8308 15.5462L67.3743 15.2853C66.4622 14.7641 65.6236 14.1236 64.8807 13.3807L61 9.5L58.7425 7.76345C55.9424 5.60954 52.7401 4.03688 49.3238 3.13784Z" fill="#51C8ED"/>
<path d="M28.8238 25.1378L28.5322 25.0611C25.8629 24.3587 23.0948 24.1081 20.3428 24.3198L20.2296 24.3285C18.7466 24.4426 17.2776 24.697 15.8426 25.0884L15.0659 25.3002C13.3645 25.7642 11.7402 26.4749 10.2447 27.4096C9.0853 28.1342 8.01195 28.9881 7.04521 29.9548L5.91064 31.0894C4.97782 32.0222 4.22038 33.1152 3.67449 34.3161L3.30685 35.1249C2.46325 36.9809 2.30755 39.0764 2.86761 41.0366C2.93244 41.2635 3.20148 41.359 3.39479 41.2236L5.53992 39.7221C7.15945 38.5884 9.01206 37.8313 10.9621 37.5063L11.2311 37.4615C13.0528 37.1579 14.9198 37.2759 16.6888 37.8066C18.2145 38.2644 19.6347 39.0193 20.8676 40.028L23.0409 41.8062C24.0121 42.6008 24.9188 43.4711 25.7525 44.409L26.3101 45.0363C27.7591 46.6665 29.479 48.034 31.3938 49.0784C33.1207 50.0204 34.9839 50.6874 36.9163 51.0555L39.25 51.5L42.2079 51.7817C43.731 51.9268 45.2657 51.8979 46.7823 51.6957L48.104 51.5195C50.6585 51.1789 53.0827 50.188 55.1444 48.6417C55.7141 48.2144 56.2527 47.7473 56.7562 47.2438L57.8061 46.1939C58.598 45.402 59.2723 44.5009 59.8085 43.5178L60.2439 42.7196C61.3731 40.6493 61.6825 38.23 61.1105 35.9421C61.0532 35.7129 60.8011 35.5928 60.587 35.6927L55.8608 37.8983C54.3168 38.6188 52.6042 38.9005 50.9108 38.7123C49.6503 38.5723 48.4319 38.1754 47.3308 37.5462L46.8743 37.2853C45.9622 36.7641 45.1236 36.1236 44.3807 35.3807L40.5 31.5L38.2425 29.7634C35.4424 27.6095 32.2401 26.0369 28.8238 25.1378Z" fill="#51C8ED"/>
<path d="M49.3238 3.13784L49.0322 3.06111C46.3629 2.35866 43.5948 2.10809 40.8428 2.31979L40.7296 2.32849C39.2466 2.44257 37.7776 2.69701 36.3426 3.08839L35.5659 3.30021C33.8645 3.76424 32.2402 4.4749 30.7447 5.40959C29.5853 6.13419 28.5119 6.98805 27.5452 7.95479L26.4106 9.08936C25.4778 10.0222 24.7204 11.1152 24.1745 12.3161L23.8069 13.1249C22.9632 14.9809 22.8075 17.0764 23.3676 19.0366C23.4324 19.2635 23.7015 19.359 23.8948 19.2236L26.0399 17.7221C27.6595 16.5884 29.5121 15.8313 31.4621 15.5063L31.7311 15.4615C33.5528 15.1579 35.4198 15.2759 37.1888 15.8066C38.7145 16.2644 40.1347 17.0193 41.3676 18.028L43.5409 19.8062C44.5121 20.6008 45.4188 21.4711 46.2525 22.409L46.8101 23.0363C48.2591 24.6665 49.979 26.034 51.8938 27.0784C53.6207 28.0204 55.4839 28.6874 57.4163 29.0555L59.75 29.5L62.7079 29.7817C64.231 29.9268 65.7657 29.8979 67.2823 29.6957L68.604 29.5195C71.1585 29.1789 73.5827 28.188 75.6444 26.6417C76.2141 26.2144 76.7527 25.7473 77.2562 25.2438L78.3061 24.1939C79.098 23.402 79.7723 22.5009 80.3085 21.5178L80.7439 20.7196C81.8731 18.6493 82.1825 16.23 81.6105 13.9421C81.5532 13.7129 81.3011 13.5928 81.087 13.6927L76.3608 15.8983C74.8168 16.6188 73.1042 16.9005 71.4108 16.7123C70.1503 16.5723 68.9319 16.1754 67.8308 15.5462L67.3743 15.2853C66.4622 14.7641 65.6236 14.1236 64.8807 13.3807L61 9.5L58.7425 7.76345C55.9424 5.60954 52.7401 4.03688 49.3238 3.13784Z" stroke="black" stroke-width="4"/>
<path d="M28.8238 27.1378L28.5322 27.0611C25.8629 26.3587 23.0948 26.1081 20.3428 26.3198L20.2296 26.3285C18.7466 26.4426 17.2776 26.697 15.8426 27.0884L15.0659 27.3002C13.3645 27.7642 11.7402 28.4749 10.2447 29.4096C9.0853 30.1342 8.01195 30.9881 7.04521 31.9548L5.91064 33.0894C4.97782 34.0222 4.22038 35.1152 3.67449 36.3161L3.30685 37.1249C2.46325 38.9809 2.30755 41.0764 2.86761 43.0366C2.93244 43.2635 3.20148 43.359 3.39479 43.2236L5.53992 41.7221C7.15945 40.5884 9.01206 39.8313 10.9621 39.5063L11.2311 39.4615C13.0528 39.1579 14.9198 39.2759 16.6888 39.8066C18.2145 40.2644 19.6347 41.0193 20.8676 42.028L23.0409 43.8062C24.0121 44.6008 24.9188 45.4711 25.7525 46.409L26.3101 47.0363C27.7591 48.6665 29.479 50.034 31.3938 51.0784C33.1207 52.0204 34.9839 52.6874 36.9163 53.0555L39.25 53.5L42.2079 53.7817C43.731 53.9268 45.2657 53.8979 46.7823 53.6957L48.104 53.5195C50.6585 53.1789 53.0827 52.188 55.1444 50.6417C55.7141 50.2144 56.2527 49.7473 56.7562 49.2438L57.8061 48.1939C58.598 47.402 59.2723 46.5009 59.8085 45.5178L60.2439 44.7196C61.3731 42.6493 61.6825 40.23 61.1105 37.9421C61.0532 37.7129 60.8011 37.5928 60.587 37.6927L55.8608 39.8983C54.3168 40.6188 52.6042 40.9005 50.9108 40.7123C49.6503 40.5723 48.4319 40.1754 47.3308 39.5462L46.8743 39.2853C45.9622 38.7641 45.1236 38.1236 44.3807 37.3807L40.5 33.5L38.2425 31.7634C35.4424 29.6095 32.2401 28.0369 28.8238 27.1378Z" stroke="black" stroke-width="4"/>
</svg>
