<svg width="84" height="80" viewBox="0 0 84 80" fill="none" xmlns="http://www.w3.org/2000/svg">
<rect x="2" y="2" width="76" height="76" rx="8" fill="#6066FA" stroke="black" stroke-width="4"/>
<path d="M29.2727 47.2614V43.7273H47.8409V47.2614H40.6477V67H36.4659V47.2614H29.2727ZM64.0682 50.125C63.9621 49.1326 63.5152 48.3598 62.7273 47.8068C61.947 47.2538 60.9318 46.9773 59.6818 46.9773C58.803 46.9773 58.0492 47.1098 57.4205 47.375C56.7917 47.6402 56.3106 48 55.9773 48.4545C55.6439 48.9091 55.4735 49.428 55.4659 50.0114C55.4659 50.4962 55.5758 50.9167 55.7955 51.2727C56.0227 51.6288 56.3295 51.9318 56.7159 52.1818C57.1023 52.4242 57.5303 52.6288 58 52.7955C58.4697 52.9621 58.9432 53.1023 59.4205 53.2159L61.6023 53.7614C62.4811 53.9659 63.3258 54.2424 64.1364 54.5909C64.9545 54.9394 65.6856 55.3788 66.3295 55.9091C66.9811 56.4394 67.4962 57.0795 67.875 57.8295C68.2538 58.5795 68.4432 59.4583 68.4432 60.4659C68.4432 61.8295 68.0947 63.0303 67.3977 64.0682C66.7008 65.0985 65.6932 65.9053 64.375 66.4886C63.0644 67.0644 61.4773 67.3523 59.6136 67.3523C57.803 67.3523 56.2311 67.072 54.8977 66.5114C53.572 65.9508 52.5341 65.1326 51.7841 64.0568C51.0417 62.9811 50.6402 61.6705 50.5795 60.125H54.7273C54.7879 60.9356 55.0379 61.6098 55.4773 62.1477C55.9167 62.6856 56.4886 63.0871 57.1932 63.3523C57.9053 63.6174 58.7008 63.75 59.5795 63.75C60.4962 63.75 61.2992 63.6136 61.9886 63.3409C62.6856 63.0606 63.2311 62.6742 63.625 62.1818C64.0189 61.6818 64.2197 61.0985 64.2273 60.4318C64.2197 59.8258 64.0417 59.3258 63.6932 58.9318C63.3447 58.5303 62.8561 58.197 62.2273 57.9318C61.6061 57.6591 60.8788 57.4167 60.0455 57.2045L57.3977 56.5227C55.4811 56.0303 53.9659 55.2841 52.8523 54.2841C51.7462 53.2765 51.1932 51.9394 51.1932 50.2727C51.1932 48.9015 51.5644 47.7008 52.3068 46.6705C53.0568 45.6402 54.0758 44.8409 55.3636 44.2727C56.6515 43.697 58.1098 43.4091 59.7386 43.4091C61.3902 43.4091 62.8371 43.697 64.0795 44.2727C65.3295 44.8409 66.3106 45.6326 67.0227 46.6477C67.7348 47.6553 68.1023 48.8144 68.125 50.125H64.0682Z" fill="black"/>
</svg>
