<svg width="54" height="54" viewBox="0 0 54 54" fill="none" xmlns="http://www.w3.org/2000/svg">
<path d="M2 5.57143C2 3.59898 3.59898 2 5.57143 2H48.4286C50.401 2 52 3.59898 52 5.57143V48.4286C52 50.401 50.401 52 48.4286 52H5.57143C3.59898 52 2 50.401 2 48.4286V5.57143Z" stroke="#AF25D2" stroke-width="3"/>
<path d="M43.4286 39.5H10.5714C9.38796 39.5 8.42857 38.5406 8.42857 37.3571C8.42857 36.1737 9.38796 35.2143 10.5714 35.2143H21.2857L8.75772 16.0743C8.54296 15.7462 8.42857 15.3626 8.42857 14.9704C8.42857 12.9863 10.9936 12.196 12.1103 13.8361L19.8571 25.2143H32L42.3619 12.3982C43.432 11.0747 45.5714 11.8314 45.5714 13.5334C45.5714 13.9288 45.4417 14.3132 45.2021 14.6276L34.1429 29.1429H22.5L26.5 35.2143H43.4286C44.612 35.2143 45.5714 36.1737 45.5714 37.3571C45.5714 38.5406 44.612 39.5 43.4286 39.5Z" stroke="#AF25D2" stroke-width="3"/>
</svg>
