<svg width="576" height="500" viewBox="0 0 576 500" fill="none" xmlns="http://www.w3.org/2000/svg">
<path d="M262.594 0.557476C261.192 1.24283 260.6 2.89391 260.881 5.23034C261.068 6.60105 261.224 6.91257 261.971 7.31755C262.625 7.66023 263.093 7.69139 263.653 7.50447C264.588 7.13064 264.868 6.32068 264.588 4.82536L264.401 3.73502H267.516C274.868 3.73502 286.208 6.75681 303.248 13.33C318.544 19.1866 340.07 30.0588 351.348 37.5666L354.276 39.5292L355.615 38.6258C356.332 38.0962 356.986 37.5354 357.08 37.3174C357.204 36.8812 352.531 33.7037 345.148 29.28C337.703 24.7941 317.609 15.0122 307.921 11.1493C293.716 5.47956 281.286 1.61666 273.778 0.495171C269.167 -0.190182 264.027 -0.159031 262.594 0.557476Z" fill="#8DD126"/>
<path d="M272.407 7.56664C268.887 8.75043 266.426 11.3049 265.523 14.7629C264.931 17.0058 264.993 18.3454 265.772 20.4637C266.862 23.3921 268.482 25.2924 271.005 26.6631C272.719 27.5977 277.547 27.5042 279.385 26.5385C281.597 25.3235 283.56 23.1429 284.183 21.118C284.993 18.5323 284.993 15.1678 284.152 13.3298C283.248 11.2426 280.943 8.93735 279.012 8.09623C277.049 7.25512 274.121 7.0059 272.407 7.56664ZM276.956 11.2115C278.264 11.5853 280.476 13.7971 281.161 15.4482C281.815 17.0058 281.442 19.3423 280.227 21.118C278.669 23.4232 277.89 23.8282 275.055 23.8282C272.781 23.8282 272.532 23.7659 271.41 22.8625C270.756 22.3329 269.884 21.2426 269.479 20.4014C268.762 19.0307 268.731 18.8127 269.074 16.8812C269.51 14.3267 270.663 12.551 272.563 11.5853C274.058 10.8376 275.211 10.7442 276.956 11.2115Z" fill="#8DD126"/>
<path d="M288.077 17.5979C287.423 19.0621 288.233 19.2801 294.276 19.3113H299.635L302.999 21.1181C311.13 25.5106 319.479 30.8377 326.924 36.3517C331.504 39.7161 332.438 40.308 334.37 40.9622C337.89 42.146 336.239 40.308 329.136 35.0744C320.787 28.8751 313.373 24.1399 305.429 19.8409C303.56 18.8128 301.628 17.7225 301.192 17.411C300.476 16.9437 299.604 16.8502 294.401 16.8502L288.451 16.8191L288.077 17.5979Z" fill="#8DD126"/>
<path d="M257.143 21.0869C255.087 21.4919 251.598 22.2707 249.355 22.7691C247.143 23.2676 243.342 24.0775 240.943 24.576C230.975 26.632 220.227 29.7161 214.215 32.2083C207.735 34.8874 194.994 42.1771 194.994 43.174C194.994 43.797 194.184 45.3235 191.006 50.9309C187.143 57.6287 181.847 69.342 178.919 77.504C175.461 87.1612 174.713 89.6223 173.374 96.2577C171.878 103.61 170.975 117.628 171.629 123.36C172.346 129.747 173.841 137.223 175.212 141.086C176.458 144.669 177.361 146.569 179.573 150.276C184.713 158.999 190.445 172.83 192.657 181.958C193.062 183.64 193.467 185.167 193.592 185.354C193.81 185.728 195.617 184.886 195.617 184.388C195.617 183.485 193.872 177.41 192.314 172.862C189.324 164.045 186.209 157.223 181.318 148.594C179.324 145.105 176.614 138.968 176.614 137.971C176.614 137.722 176.769 137.753 177.174 138.064C178.701 139.435 182.19 140.619 186.115 141.117C189.729 141.585 198.919 141.522 203.249 140.993C208.576 140.37 211.193 139.871 211.193 139.497C211.193 139.155 210.944 139.155 204.651 140.027C192.875 141.616 181.691 140.588 177.922 137.566C177.174 136.974 176.458 136.444 176.271 136.382C175.866 136.257 174.215 126.008 173.841 121.304C173.311 114.202 174.246 102.831 176.022 94.8559C176.956 90.6814 177.548 88.6877 178.109 88.0646C178.732 87.3793 183.934 84.7313 184.713 84.7313C184.994 84.7313 185.866 84.451 186.614 84.1394C187.361 83.7968 188.327 83.4541 188.763 83.3606C189.199 83.2983 190.321 83.0179 191.318 82.7687C194.869 81.803 198.95 81.5538 206.676 81.7719C226.364 82.3014 233.311 84.5444 250.289 95.7904C252.688 97.3792 256.146 99.9337 257.984 101.46C262.221 105.012 279.759 121.242 280.009 121.865C280.04 122.021 278.171 124.139 275.772 126.569C270.912 131.553 268.326 134.513 265.616 138.127L263.778 140.65L258.42 141.335C250.538 142.363 251.691 142.613 245.959 138.314C243.218 136.257 240.819 134.575 240.632 134.575C240.445 134.575 238.918 132.986 237.236 131.055C235.554 129.155 233.778 127.254 233.28 126.849L232.376 126.102L229.012 126.631C224.557 127.317 220.352 128.282 218.825 128.999C217.673 129.529 217.268 130.089 214.464 135.136C208.856 145.074 208.264 146.444 208.14 149.217C207.984 152.612 208.825 155.51 211.847 161.647C213.249 164.45 214.62 167.503 214.962 168.469C215.616 170.401 216.364 174.201 216.676 177.316C216.769 178.5 216.987 179.435 217.143 179.435C217.797 179.435 218.981 178.656 218.981 178.22C218.95 177.472 218.389 173.173 218.171 172.114C217.984 171.179 217.984 171.179 218.607 171.771C219.573 172.612 220.445 174.668 220.694 176.538C220.819 177.441 221.068 178.189 221.224 178.189C221.722 178.189 221.317 174.731 220.694 173.485C220.134 172.425 218.514 170.214 217.859 169.622C217.641 169.466 217.236 168.531 216.956 167.597C216.644 166.662 215.243 163.547 213.841 160.681C211.131 155.198 210.258 152.519 210.258 149.715C210.258 147.472 210.881 145.977 214.37 139.84C215.959 137.005 217.704 133.921 218.202 132.924C219.106 131.18 219.199 131.117 221.162 130.494C223.498 129.778 231.38 128.345 231.909 128.532C232.314 128.687 238.42 135.697 240.32 138.158C242.096 140.494 243.872 144.419 244.432 147.348C245.118 150.837 244.837 152.363 241.566 162.207C240.102 166.6 238.981 170.245 239.043 170.338C239.137 170.401 239.728 170.214 240.351 169.871C241.504 169.279 241.535 169.186 243.809 162.457C246.208 155.26 247.018 152.176 247.018 150.12C247.018 147.348 246.084 144.108 244.214 140.401C243.218 138.407 242.439 136.756 242.532 136.756C242.594 136.756 244.401 138.095 246.52 139.715L250.383 142.675H252.376C253.436 142.675 256.302 142.394 258.7 142.052C261.099 141.74 263.062 141.491 263.124 141.522C263.155 141.553 262.189 143.111 260.974 144.98C257.953 149.653 255.616 154.17 254.526 157.472C253.56 160.432 252.999 163.547 253.467 163.547C253.591 163.547 254.183 163.267 254.744 162.924C255.46 162.488 255.741 162.083 255.741 161.491C255.741 159.186 258.389 153.298 262.314 147.005C267.08 139.342 269.977 135.697 277.61 127.846C282.906 122.395 283.155 121.896 281.847 120.463C279.853 118.314 263.155 102.924 259.541 99.9337C252.034 93.6409 239.386 85.9774 232.376 83.3918C226.239 81.1176 217.392 79.6846 209.324 79.6535H204.495L206.52 79.1862C209.074 78.5943 217.236 78.532 220.694 79.0927C232.158 80.8996 241.909 84.4198 250.32 89.7157C254.619 92.426 257.361 94.5132 263.84 99.996C273.622 108.283 279.136 112.457 282.812 114.295C283.965 114.887 284.463 114.98 286.021 114.793C288.42 114.513 288.856 114.077 288.326 112.519C287.765 111.024 285.118 104.949 283.529 101.522C280.632 95.3543 277.859 86.2578 277.859 82.9868V81.4292L283.871 80.5881C287.142 80.1208 290.351 79.7469 290.974 79.7469C291.909 79.7469 294.214 81.0242 303.591 86.7874C309.915 90.6503 317.485 95.3543 320.382 97.1923C323.31 99.0303 327.298 101.46 329.292 102.582C331.285 103.703 333.809 105.167 334.899 105.822C338.637 108.127 344.993 111.46 345.927 111.647C347.017 111.865 348.326 111.149 347.796 110.65C347.64 110.463 345.584 109.311 343.279 108.033C336.768 104.482 326.083 98.1892 319.448 94.0148C317.391 92.7064 310.538 88.4696 304.183 84.5756L292.656 77.504L289.697 77.6909C288.077 77.7843 284.494 78.2205 281.753 78.6566C275.834 79.56 275.678 79.6535 275.678 82.7064C275.678 83.7968 275.896 85.7282 276.146 86.9743C276.924 90.588 279.479 97.94 281.722 102.831C285.647 111.554 285.99 112.457 285.46 112.675C283.965 113.236 276.364 107.846 265.46 98.5007C253.28 88.0335 245.616 83.5164 233.778 79.8404C224.339 76.9121 216.956 75.9775 207.766 76.6005C202.501 76.9432 198.202 77.8155 192.906 79.6223C191.691 80.0273 190.29 80.37 189.791 80.37C189.293 80.37 188.607 80.5881 188.265 80.8061C187.891 81.0553 186.707 81.5849 185.617 81.9588C184.526 82.3326 183.124 82.8622 182.533 83.1737C180.695 84.0771 179.044 84.7625 178.919 84.6379C178.701 84.4198 182.626 74.1707 185.367 67.8156C188.701 60.0586 192.19 53.0804 195.399 47.6599L197.735 43.7659L201.909 41.2114C214.9 33.2052 225.585 29.8096 257.703 23.3299C260.569 22.738 262.906 22.1772 262.906 22.0838C262.906 21.6788 261.597 20.2458 261.255 20.2769C261.037 20.3081 259.199 20.6508 257.143 21.0869Z" fill="#8DD126"/>
<path d="M289.105 26.5074C288.42 26.9124 288.139 27.3174 288.139 27.9093C288.139 28.6258 288.669 28.9685 294.463 31.7722C297.921 33.4544 304.12 36.1647 308.233 37.7846C321.877 43.174 343.123 50.4637 345.273 50.4637C345.647 50.4637 347.422 50.9621 349.229 51.5851C354.93 53.5166 360.88 53.3608 362.562 51.2113C363.341 50.2144 363.622 48.1895 363.217 46.1335C363.03 45.1989 362.843 44.3889 362.781 44.3266C362.251 43.7659 359.105 44.8251 359.323 45.4793C359.385 45.7285 359.541 46.6007 359.634 47.4107L359.852 48.8749L358.7 49.0929C356.176 49.5602 349.042 48.3453 344.214 46.5696C342.5 45.9777 340.133 45.3235 338.482 45.012C337.049 44.7628 334.245 43.797 322.718 39.6226C308.856 34.5759 303.871 32.551 295.585 28.5635L290.071 25.9155L289.105 26.5074Z" fill="#8DD126"/>
<path d="M103.405 36.1335C102.222 37.3173 102.564 38.1584 105.056 39.9652C111.193 44.5135 152.813 72.9245 153.623 73.1426C153.935 73.2049 154.526 73.0491 154.963 72.7688C155.959 72.1146 155.991 70.7438 155.056 69.8716C154.651 69.5289 146.863 64.1707 137.735 57.9713C121.63 47.0368 112.221 40.5571 107.486 37.1615C104.963 35.3547 104.34 35.1989 103.405 36.1335Z" fill="#8DD126"/>
<path d="M411.97 36.1024C410.257 36.4139 407.796 36.9746 406.519 37.3796C401.721 38.8126 385.46 45.6039 382.749 47.3484C381.971 47.8468 381.254 48.5322 381.13 48.906C380.849 49.8406 381.721 51.0867 382.687 51.0867C383.123 51.0867 385.179 50.2456 387.267 49.2487C391.877 47.0057 403.061 42.3952 406.425 41.3048C410.257 40.121 413.559 39.498 417.266 39.3422C422.749 39.093 426.674 40.2768 428.17 42.6755C428.824 43.7347 428.949 44.2955 428.949 46.3827C428.949 47.7534 428.793 49.5914 428.606 50.4325C428.17 52.4574 426.301 55.3546 423.653 58.096C421.503 60.3078 421.129 61.1489 421.597 62.5819C421.815 63.205 422.002 63.2984 422.998 63.1427C423.871 62.9869 424.587 62.4573 426.394 60.5882C431.191 55.6038 432.687 52.177 432.687 46.1958C432.687 43.3297 432.625 43.0182 431.628 41.2737C430.319 38.8749 428.637 37.5977 425.428 36.5697C422.002 35.4482 416.55 35.2613 411.97 36.1024Z" fill="#8DD126"/>
<path d="M350.974 55.3235C350.569 55.7284 351.379 56.7565 355.429 61.0555C365.304 71.5539 372.594 79.9339 373.185 81.4603C373.497 82.2392 373.154 93.049 372.687 96.8808C372.5 98.563 372.438 98.6253 370.569 99.9649C359.167 108.189 329.042 126.663 305.896 139.56C289.23 148.874 283.56 151.834 260.569 163.298C239.137 173.983 230.943 177.846 227.859 178.656C227.018 178.905 225.461 179.497 224.433 179.995C223.405 180.494 221.785 181.148 220.85 181.429C219.915 181.74 218.514 182.176 217.735 182.457C216.956 182.706 212.283 184.17 207.299 185.696C202.345 187.223 197.548 188.749 196.707 189.092C195.835 189.435 194.744 189.715 194.308 189.715C193.841 189.715 192.221 189.995 190.726 190.369C180.788 192.706 168.67 194.699 163.031 194.918C157.05 195.167 150.726 194.076 146.956 192.176C145.43 191.397 143.717 189.871 143.499 189.123C143.28 188.189 144.215 186.413 146.77 183.017C149.791 178.936 152.19 176.413 157.143 171.989C165.959 164.17 166.52 163.422 165.087 161.989C164.028 160.93 163.28 161.242 160.757 163.64C159.449 164.887 156.645 167.472 154.495 169.373C148.794 174.419 145.742 177.815 142.066 183.173C139.044 187.566 138.981 190.12 141.847 192.986C146.365 197.503 157.33 199.715 168.109 198.282C176.489 197.192 189.261 194.731 193.872 193.329C195.243 192.893 200.445 191.335 205.398 189.871C210.352 188.407 215.616 186.724 217.112 186.133C218.576 185.572 220.196 184.98 220.725 184.886C221.909 184.606 225.274 183.453 225.679 183.173C225.866 183.048 227.049 182.643 228.295 182.27C229.573 181.865 231.847 180.93 233.373 180.182C234.869 179.435 236.239 178.812 236.426 178.812C237.33 178.812 279.323 157.94 289.23 152.55C303.934 144.575 312.469 139.871 314.152 138.843C314.837 138.438 320.164 135.323 325.989 131.927C337.204 125.416 349.042 118.22 352.158 116.04C353.186 115.323 354.245 114.638 354.525 114.544C355.429 114.233 365.21 107.878 370.164 104.389C378.949 98.2203 393.59 87.4416 393.902 86.912C394.089 86.6005 393.31 84.8871 392.811 84.5756C392.064 84.1083 390.039 85.2298 385.802 88.5008C377.079 95.2297 373.653 97.7842 373.59 97.5661C373.559 97.4415 373.684 94.0459 373.902 90.0273L374.307 82.7064L376.114 85.5102C377.111 87.0366 378.139 88.6254 378.388 89.0304C378.762 89.6223 378.917 89.6846 379.291 89.3731C380.475 88.3762 380.413 87.9712 378.637 85.0429C377.671 83.5164 376.581 81.8653 376.207 81.398C375.802 80.8996 375.117 79.9339 374.618 79.2174C373.497 77.5351 370.039 73.5476 363.185 66.0399C355.927 58.0649 353.341 55.5727 352.126 55.3546C351.566 55.2611 351.067 55.23 350.974 55.3235Z" fill="#8DD126"/>
<path d="M406.488 64.8873C403.372 65.7907 400.538 68.1583 399.26 70.9932C398.762 72.0523 398.606 73.0804 398.606 74.9184C398.575 77.1302 398.7 77.6286 399.603 79.3732C400.849 81.7719 402.002 82.8622 404.65 84.2018C406.488 85.1052 406.924 85.1987 409.478 85.1987C411.846 85.1987 412.562 85.0741 414.058 84.3576C416.425 83.2672 418.481 81.3046 419.509 79.1551C420.226 77.6909 420.382 77.0056 420.382 74.9184C420.382 72.8312 420.226 72.1458 419.509 70.6816C418.481 68.5321 416.394 66.5695 414.12 65.5103C412.064 64.5758 408.606 64.2954 406.488 64.8873ZM413.092 69.3732C415.086 70.4324 415.428 70.7128 416.051 72.1146C417.64 75.5103 416.394 78.9059 412.905 80.775C411.161 81.7096 407.796 81.7096 406.052 80.775C404.182 79.7781 402.157 76.6317 402.157 74.7003C402.157 72.7377 403.777 70.2455 405.74 69.2486C408.388 67.8468 410.195 67.9091 413.092 69.3732Z" fill="#8DD126"/>
<path d="M295.18 84.7002C294.713 85.4479 300.538 89.1239 311.815 95.1674C318.793 98.9057 324.432 101.585 324.557 101.211C324.588 101.055 324.588 100.837 324.557 100.806C324.494 100.744 321.005 98.968 316.8 96.8185C306.083 91.3668 297.485 86.3825 296.27 84.9183C295.803 84.3575 295.429 84.2952 295.18 84.7002Z" fill="#8DD126"/>
<path d="M510.724 98.4384C502.78 99.3418 489.571 101.585 479.415 103.734C473.341 105.012 451.69 110.619 446.082 112.364C433.777 116.164 420.319 120.993 408.232 125.915C405.335 127.099 400.413 129.061 397.329 130.276C394.245 131.46 391.534 132.675 391.347 132.955C390.413 134.108 391.285 135.821 392.812 135.821C393.217 135.821 398.949 133.672 405.553 131.024C432.126 120.401 442.282 116.974 464.306 111.242C485.584 105.728 505.147 102.27 516.985 101.959C524.057 101.772 528.044 102.146 531.689 103.392C535.209 104.607 537.421 105.977 540.038 108.563C544.399 112.862 546.611 118.75 547.203 127.41C547.421 131.086 547.733 131.678 549.228 131.585C551.097 131.46 551.222 131.086 550.817 126.258C549.539 111.086 542.811 102.239 530.038 99.0303C527.982 98.5007 526.269 98.3761 520.381 98.2826C516.456 98.2203 512.094 98.2826 510.724 98.4384Z" fill="#8DD126"/>
<path d="M382.905 99.0615C382.282 99.591 382.251 99.778 382.531 100.993C383.061 103.329 382.905 107.504 382.22 109.747C380.943 113.921 377.298 116.631 372.345 117.192C369.759 117.504 364.276 117.348 363.902 117.005C363.84 116.912 364.37 116.102 365.148 115.198C368.824 110.868 372.251 105.51 371.628 105.136C371.441 105.012 371.254 104.98 371.223 105.012C369.572 108.189 366.394 112.675 364.151 115.012L362.438 116.787L360.507 116.164L358.575 115.541L357.921 116.195C357.578 116.538 357.298 116.943 357.298 117.13C357.298 117.379 359.011 117.971 363.996 119.404C365.647 119.871 368.326 121.896 369.447 123.485C370.787 125.448 371.285 126.943 371.628 129.871C372.033 133.329 372.002 141.491 371.597 143.298C371.161 145.323 369.042 150.93 368.139 152.488C367.921 152.831 367.516 153.609 367.236 154.201C366.924 154.793 366.332 155.665 365.927 156.164C365.491 156.631 364.993 157.628 364.806 158.376C364.525 159.591 364.276 159.809 362.625 160.681C361.628 161.242 360.725 161.678 360.631 161.678C360.538 161.678 360.382 160.712 360.257 159.528C360.133 158.345 359.634 156.226 359.167 154.793C358.295 152.176 358.295 152.176 358.856 150.868C359.167 150.151 359.977 148.75 360.662 147.753C362.625 144.856 365.429 140.152 366.052 138.687C366.862 136.818 366.799 134.388 365.896 131.678C365.024 129.092 361.784 122.332 361.348 122.177C360.725 121.958 361.067 123.111 362.376 125.603C364.307 129.248 365.678 133.018 365.896 135.136C366.083 136.756 365.989 137.13 364.993 139.092C364.401 140.307 362.812 142.955 361.472 145.011C360.133 147.067 358.669 149.497 358.201 150.401L357.391 152.052L358.139 154.139C358.793 155.883 359.79 160.588 359.79 161.896C359.79 162.114 359.385 162.488 358.887 162.737C358.046 163.173 357.983 163.173 357.828 162.612C357.641 161.896 356.613 161.771 356.083 162.426C355.803 162.737 355.803 163.64 356.021 165.79C356.27 168.407 356.114 170.899 355.585 172.55C355.429 173.111 353.404 174.139 349.977 175.478C348.451 176.07 347.921 176.444 347.111 177.69C346.55 178.531 346.083 179.061 346.083 178.874C346.083 178.5 344.401 177.877 343.404 177.877C342.999 177.877 342.656 178.002 342.656 178.189C342.656 178.344 342.874 178.5 343.124 178.5C343.373 178.5 344.12 178.718 344.806 178.999C345.958 179.466 346.021 179.528 345.74 180.463C345.367 181.771 345.834 184.575 347.236 189.03C349.105 195.073 349.136 195.26 348.295 198.438C347.734 200.587 347.61 201.802 347.672 203.952C347.796 206.475 347.89 206.818 348.856 208.157C349.416 208.936 349.977 210.026 350.102 210.587C350.195 211.117 350.444 211.553 350.6 211.522C351.223 211.459 350.787 209.559 349.884 208.282C348.139 205.821 347.828 203.484 348.793 199.746L349.323 197.659L349.572 198.905C349.666 199.59 349.915 201.366 350.102 202.861C350.351 204.949 350.818 206.662 352.158 209.995C353.092 212.394 353.871 214.668 353.871 215.073C353.871 215.447 353.155 217.005 352.282 218.531C349.136 224.076 346.55 226.693 344.681 226.35C343.092 226.039 338.918 223.827 336.145 221.802C333.435 219.871 332.469 219.434 331.504 219.715C331.223 219.777 329.728 220.244 328.202 220.681L325.429 221.491L324.183 220.681C323.529 220.244 323.03 219.839 323.093 219.777C323.279 219.621 329.416 217.223 331.068 216.693C332.625 216.163 333.248 215.572 332.189 215.572C331.94 215.572 330.226 216.132 328.388 216.849C326.55 217.565 324.37 218.344 323.529 218.593L322.002 219.061L320.974 217.939C319.728 216.6 319.728 216.537 320.538 213.983C321.255 211.615 322.594 209.372 324.37 207.534C325.46 206.444 325.616 206.132 325.304 205.665C324.868 204.98 323.186 205.042 322.345 205.821C322.002 206.132 320.632 207.69 319.292 209.279C317.267 211.677 316.083 212.706 312.033 215.603C307.485 218.843 304.65 221.335 304.65 222.145C304.65 222.332 305.429 221.771 306.395 220.93C308.233 219.279 315.554 213.889 315.554 214.17C315.554 214.263 315.273 214.917 314.931 215.603C314.432 216.537 314.37 216.973 314.619 217.441C315.024 218.188 315.647 218.251 316.301 217.565C317.018 216.849 317.734 217.129 318.357 218.375C320.008 221.677 319.946 221.459 319.479 222.363C318.389 224.388 317.703 224.762 312.843 225.976C304.37 228.064 303.84 228.282 302.438 229.871C301.753 230.649 300.538 232.3 299.759 233.578C297.423 237.316 297.61 239.528 300.382 241.023C301.878 241.833 306.27 241.74 309.79 240.836C313.466 239.87 321.068 237.285 327.08 234.98C329.728 233.92 333.248 232.643 334.868 232.113C336.488 231.584 338.015 231.023 338.264 230.867C338.7 230.587 343.56 232.113 344.463 232.799C344.712 232.986 344.837 234.107 344.837 236.35C344.837 238.967 344.712 239.808 344.214 240.805C343.871 241.49 343.497 242.051 343.404 242.051C343.31 242.051 342.812 241.833 342.251 241.553C341.286 241.054 341.223 241.054 339.385 242.051L337.485 243.079L335.055 241.927C332.438 240.743 331.691 240.618 330.32 241.117C327.36 242.238 314.962 245.883 312.781 246.257C309.417 246.849 308.762 247.347 309.822 248.437C310.195 248.78 310.632 248.874 311.442 248.718C315.118 248.095 317.641 247.44 324.432 245.322L332.002 242.923L334.868 244.263C337.703 245.571 337.765 245.603 338.638 245.073C339.136 244.793 339.946 244.294 340.444 244.014C340.943 243.702 341.472 243.546 341.566 243.671C341.971 244.076 342.096 247.347 341.722 248.842C340.631 253.453 337.516 254.979 328.17 255.447C322.874 255.696 322.22 255.852 319.759 257.409C315.46 260.12 311.971 263.484 308.108 268.749C305.336 272.518 305.273 272.549 301.815 273.048C300.694 273.204 300.04 273.11 298.949 272.643C296.208 271.428 290.476 266.724 284.9 261.085L281.784 257.97L281.816 255.54C281.816 253.64 282.127 251.926 283.28 247.565C285.273 240.089 286.27 235.135 286.27 232.737V230.743L283.965 228.406C281.66 226.101 281.629 226.039 281.006 223.36C280.632 221.864 280.351 219.715 280.351 218.562C280.351 216.226 279.884 215.821 279.573 217.846C279.386 219.092 280.009 223.702 280.569 225.135C280.725 225.54 280.414 225.385 279.573 224.73C278.887 224.201 276.302 222.394 273.809 220.712C264.9 214.637 259.947 210.587 257.922 207.628C255.336 203.858 254.495 198.188 254.495 184.388C254.495 178.313 254.37 174.45 254.183 174.45C254.028 174.45 253.529 174.606 253.093 174.824L252.314 175.167V184.918C252.314 202.394 253.342 206.475 259.292 212.301C262.626 215.54 264.121 216.724 272.408 222.425C280.725 228.157 281.691 228.967 282.999 231.366L284.121 233.484L283.778 235.821C283.56 237.098 282.563 241.459 281.504 245.478C279.915 251.615 279.635 253.235 279.604 255.509C279.604 257.97 279.666 258.282 280.507 259.496C281.006 260.213 283.217 262.549 285.429 264.668C292.065 271.054 297.111 274.792 299.728 275.228C300.507 275.384 302.096 275.26 303.871 274.917L306.769 274.356L309.354 270.743C311.66 267.534 317.61 261.054 318.295 261.054C318.669 261.054 319.292 262.487 319.292 263.266C319.292 264.637 316.862 268.5 312.002 274.73C309.074 278.531 308.7 279.123 309.292 279.123C309.915 279.123 317.984 268.25 319.417 265.509C320.008 264.356 320.071 262.363 319.541 261.21C319.136 260.306 319.292 260.12 321.909 258.687C323.311 257.908 323.84 257.814 328.451 257.596C331.223 257.472 333.934 257.254 334.494 257.129L335.491 256.911V259.839C335.491 264.668 334.868 273.172 334.463 274.2C334.121 275.01 333.466 275.384 328.7 277.44C320.195 281.054 313.716 283.017 307.329 283.795C301.13 284.574 298.762 283.951 291.722 279.59C287.953 277.285 282.657 273.671 282.407 273.235C282.314 273.079 282.781 272.581 283.498 272.144C285.149 271.054 284.744 270.462 283.031 271.49C282.283 271.926 281.535 272.269 281.379 272.269C280.819 272.269 276.177 268.375 271.193 263.733C268.576 261.303 265.429 258.406 264.183 257.222L261.878 255.135L262.065 253.64C262.158 252.83 262.501 251.553 262.844 250.774C263.747 248.687 263.996 247.036 263.373 247.036C263.093 247.036 262.906 247.316 262.906 247.721C262.906 248.126 262.439 249.715 261.878 251.272L260.881 254.107L253.872 248.469C250.009 245.384 245.585 241.584 244.059 240.026C236.645 232.612 231.785 227.472 231.255 226.475C230.289 224.668 230.445 218.905 231.66 211.989C232.221 208.905 232.875 204.263 233.155 201.709C233.841 195.26 233.997 194.481 236.613 185.728C237.361 183.235 237.361 183.111 236.831 182.706C236.364 182.363 236.146 182.363 235.648 182.675C234.962 183.142 234.37 184.949 232.969 190.743C231.847 195.354 231.722 195.478 228.825 195.167C225.99 194.886 225.741 194.606 227.174 193.329C228.42 192.207 228.576 191.896 227.86 191.896C227.61 191.896 226.832 192.456 226.177 193.111L224.962 194.326L223.436 193.609C221.66 192.768 221.099 192.207 220.227 190.245C219.853 189.435 219.48 188.78 219.324 188.78C219.199 188.78 218.763 189.123 218.389 189.528L217.704 190.276L218.483 191.802C219.511 193.889 220.944 195.073 223.685 196.132C224.962 196.631 226.053 197.129 226.084 197.285C226.146 197.41 226.863 197.846 227.673 198.251C229.324 199.123 229.791 199.777 230.227 202.176C230.663 204.606 230.601 205.416 229.479 211.677C228.701 216.101 228.483 218.157 228.483 221.491C228.483 226.6 228.856 227.628 231.847 230.774C233.124 232.145 233.841 233.142 233.872 233.671C233.903 234.138 234.152 235.322 234.402 236.319C234.9 238.157 235.18 241.584 235.803 252.145C236.115 257.845 236.458 259.901 237.143 260.338C237.33 260.462 238.296 260.649 239.261 260.774C240.258 260.898 242.034 261.459 243.405 262.113C247.33 263.982 250.009 266.911 251.411 270.898C252.875 275.135 252.844 290.15 251.317 295.945C251.006 297.16 247.081 304.574 243.436 310.96C242.252 313.016 242.252 313.016 241.691 312.362C241.255 311.801 240.757 311.677 238.794 311.583C237.205 311.49 236.426 311.552 236.426 311.801C236.426 312.206 236.333 312.175 238.638 312.238C240.819 312.3 241.504 312.829 241.224 314.138C240.975 315.228 238.327 319.309 234.9 323.795C231.909 327.72 231.722 328.032 232.096 328.717C232.75 329.963 233.529 329.309 236.987 324.667C241.162 319.122 243.654 315.104 248.763 305.914C250.912 302.051 252.781 298.686 252.937 298.437C253.093 298.188 254.931 294.823 257.018 290.96C262.719 280.369 265.429 275.696 266.021 275.384C267.112 274.792 269.635 274.668 270.57 275.166C272.003 275.914 273.591 277.596 274.993 279.964C277.174 283.546 278.015 283.982 281.66 283.484C283.872 283.172 286.862 283.546 291.255 284.699C296.146 285.976 297.298 286.132 302.781 286.101C307.485 286.101 308.794 285.976 312.283 285.228C316.737 284.263 323.124 282.269 327.329 280.493C335.958 276.88 335.242 277.285 336.177 275.384C336.924 273.889 337.08 273.172 337.205 269.933C337.329 267.876 337.454 265.758 337.547 265.197L337.703 264.201L339.79 264.948C342.843 265.976 346.145 267.347 349.666 268.998C351.379 269.808 354.525 271.241 356.675 272.176C364.65 275.665 373.746 280.929 380.506 285.945C382.936 287.752 384.712 289.278 384.619 289.496C380.07 300.337 376.519 309.06 376.394 309.714C376.145 310.991 376.799 310.773 377.235 309.465C378.014 307.129 385.304 289.87 385.491 289.901C385.615 289.932 386.612 290.711 387.734 291.615C389.354 292.923 389.852 293.203 390.288 292.923C391.254 292.331 391.067 291.552 389.634 290.337C388.918 289.683 388.388 289.06 388.482 288.967C388.886 288.562 397.671 288.157 402.157 288.344L406.986 288.531L407.889 287.565C408.388 287.035 408.731 286.506 408.606 286.412C408.513 286.319 404.245 286.194 399.136 286.163C390.039 286.132 387.111 286.381 386.581 287.222C386.488 287.378 385.366 286.693 384.089 285.727C380.974 283.328 376.052 279.995 370.974 276.88C368.98 275.633 364.743 273.39 362.905 272.581C359.261 270.992 353.466 268.344 349.51 266.443C345.865 264.668 340.413 262.549 338.544 262.176L337.734 261.989L337.859 259.154L337.983 256.319L339.603 255.509C342.625 253.983 344.214 250.867 344.214 246.568C344.214 244.574 344.307 244.263 345.024 243.578C346.457 242.238 347.08 240.587 347.236 237.69C347.329 236.226 347.236 234.419 347.08 233.671C346.768 232.363 346.8 232.207 347.672 231.241C348.419 230.369 348.575 229.902 348.575 228.624C348.575 227.316 348.7 227.036 349.292 226.755C350.226 226.319 352.5 222.986 354.681 218.843C356.052 216.195 356.395 215.291 356.27 214.512C356.176 213.983 355.398 211.802 354.494 209.684L352.905 205.852L353.684 204.699C354.806 203.048 356.893 198.5 357.329 196.787C357.578 195.759 357.609 194.388 357.454 192.425C357.298 190.837 357.204 187.877 357.173 185.821C357.173 181.179 357.89 178.812 359.946 176.631C361.503 174.98 365.709 169.777 365.927 169.248C365.989 169.061 366.893 168.313 367.921 167.597L369.759 166.32L369.821 162.207C369.852 159.933 369.852 157.753 369.821 157.316C369.79 156.88 370.538 154.918 371.472 152.924C374.556 146.475 375.616 140.619 375.678 129.747C375.709 123.859 375.989 120.619 376.644 119.186C376.83 118.781 377.578 118.189 378.264 117.878C379.977 117.099 382.874 114.202 383.715 112.426C385.335 109.061 385.709 103.703 384.587 100.027C384.12 98.4073 383.871 98.2515 382.905 99.0615ZM364.961 163.111C365.335 164.575 364.837 166.756 363.996 167.441C363.092 168.189 358.856 170.525 358.731 170.369C358.669 170.307 358.513 169.186 358.419 167.877C358.201 165.572 358.201 165.541 358.98 165.167C359.479 164.949 359.79 164.918 359.79 165.105C359.79 165.697 360.475 165.416 360.631 164.793C360.787 164.232 363.746 162.363 364.525 162.301C364.65 162.301 364.868 162.675 364.961 163.111ZM334.744 223.547C339.603 226.942 343.809 228.874 345.522 228.469C346.488 228.282 346.706 228.78 346.021 229.652C345.335 230.462 344.775 230.462 342.189 229.528C340.351 228.842 339.385 228.656 338.513 228.78C336.831 229.061 331.566 230.867 325.211 233.328C314.931 237.316 307.921 239.341 304.339 239.372C301.597 239.403 300.289 238.811 300.289 237.534C300.289 236.786 303.467 231.771 304.557 230.743C304.931 230.431 307.579 229.621 310.912 228.78C317.703 227.129 324.463 225.011 327.267 223.671C329.385 222.643 331.379 221.864 331.94 221.833C332.127 221.802 333.373 222.581 334.744 223.547Z" fill="#8DD126"/>
<path d="M225.835 133.173C219.853 134.949 219.76 134.98 219.76 136.008C219.76 136.88 219.822 136.912 221.099 136.849C222.532 136.787 222.595 136.849 221.94 138.002C221.691 138.438 221.504 139.092 221.473 139.497C221.473 140.151 218.109 144.7 217.828 144.419C217.766 144.388 218.015 142.457 218.358 140.183C218.732 137.909 218.919 135.977 218.825 135.884C218.389 135.447 218.078 136.6 217.455 140.868C217.05 143.672 216.458 146.257 215.959 147.566C214.869 150.369 214.807 154.108 215.835 156.725C216.676 158.968 218.856 162.332 219.542 162.519C219.822 162.612 220.601 163.796 221.286 165.136C221.94 166.506 222.626 167.597 222.75 167.597C223.218 167.597 223.062 167.005 221.94 164.793C221.349 163.609 220.85 162.207 220.85 161.709C220.85 161.211 220.726 160.681 220.539 160.587C220.383 160.494 220.227 159.902 220.227 159.31C220.227 158.282 219.791 157.846 219.511 158.625C219.293 159.279 217.828 156.008 217.423 154.014C216.738 150.525 217.423 148.625 221.099 144.139C222.782 142.052 229.137 135.821 229.573 135.821C230.04 135.821 230.539 138.313 230.725 141.273L230.881 144.388L229.355 146.538C227.922 148.531 227.673 148.718 225.492 149.56C221.972 150.93 218.95 153.859 219.448 155.447C219.76 156.413 220.819 156.195 222.501 154.793C224.464 153.111 225.866 152.924 228.825 153.89C232.501 155.105 233.311 155.541 233.311 156.257C233.311 156.787 233.062 156.943 232.096 157.098C230.507 157.285 228.264 158.438 227.205 159.528C225.554 161.242 226.395 165.634 228.576 166.662C229.822 167.254 230.04 168.189 229.542 171.21C229.199 173.36 228.701 174.45 228.015 174.45C227.392 174.45 225.741 172.706 225.025 171.273C224.152 169.559 223.529 169.154 222.813 169.871C222.345 170.307 222.345 170.494 222.875 171.834C223.56 173.64 225.648 176.008 226.582 176.008C226.925 176.008 227.704 175.728 228.264 175.385C228.825 175.042 229.542 174.762 229.884 174.762C230.601 174.762 232.127 174.108 232.439 173.672C232.813 173.173 232.719 171.21 232.221 168.999L231.722 166.911L232.688 164.98C233.218 163.952 234.09 162.239 234.619 161.211C235.554 159.435 235.616 159.186 235.554 156.226C235.461 151.491 234.9 144.388 234.401 141.335C233.56 136.444 231.66 132.301 230.165 132.176C229.76 132.145 227.797 132.581 225.835 133.173Z" fill="#8DD126"/>
<path d="M540.474 139.871C530.848 141.273 522.998 149.186 521.783 158.718C521.627 159.902 521.378 160.93 521.191 160.993C520.599 161.179 515.521 164.887 513.465 166.631C512.344 167.597 510.973 168.999 510.443 169.715C509.602 170.899 509.478 171.335 509.478 173.049C509.478 175.291 509.914 175.977 511.97 177.036C513.777 177.971 520.537 178.158 524.586 177.41L527.484 176.88L528.917 178.282C530.599 179.902 534.368 181.865 537.67 182.893C541.004 183.89 546.487 183.89 549.82 182.893C554.524 181.46 558.48 178.781 561.191 175.229C564.057 171.46 565.458 167.877 565.863 163.36L566.082 160.806L568.761 158.936C574.275 155.136 575.365 153.983 575.365 151.989C575.365 150.494 574.15 149.186 571.72 148.033C570.194 147.317 569.415 147.192 566.611 147.099C564.181 147.005 563.029 147.099 562.187 147.472C561.066 147.94 561.035 147.909 560.256 146.974C558.075 144.388 554.15 141.896 550.256 140.619C547.608 139.747 543.465 139.435 540.474 139.871ZM548.698 144.108C555.988 146.008 561.377 152.426 562.125 160.12L562.312 162.145L559.103 164.077C552.281 168.158 545.926 170.743 534.711 173.952L530.973 175.042L529.82 173.734C528.449 172.207 526.767 169.092 525.957 166.662C525.178 164.295 525.178 159.061 525.957 156.693C527.297 152.706 529.322 149.715 532.219 147.41C536.892 143.703 542.686 142.55 548.698 144.108ZM571.253 148.874C573.122 149.715 574.43 151.086 574.43 152.208C574.43 153.236 572.25 155.323 568.543 157.877L565.708 159.84V158.75C565.708 157.161 564.555 153.703 563.184 151.117C562.499 149.84 562.063 148.718 562.187 148.563C562.655 148.127 563.714 148.002 566.642 148.095C568.948 148.158 569.976 148.345 571.253 148.874ZM521.596 162.986C521.689 163.391 521.783 164.139 521.783 164.669C521.783 166.943 523.714 171.74 525.708 174.513L526.767 175.946L525.926 176.133C521.97 176.911 520.755 177.005 517.484 176.88C514.587 176.756 513.59 176.6 512.53 176.07C511.066 175.291 510.256 174.326 510.256 173.267C510.256 172.207 511.097 170.369 512.063 169.341C513.777 167.535 520.537 162.301 521.16 162.301C521.284 162.301 521.471 162.612 521.596 162.986ZM561.471 166.756C559.384 173.111 554.991 177.441 548.73 179.31C546.206 180.058 541.284 180.058 538.792 179.31C536.705 178.687 533.839 177.316 532.717 176.413L531.97 175.821L535.054 174.949C540.941 173.267 551.222 169.559 554.337 167.971C556.05 167.098 558.449 165.759 559.633 164.98L561.814 163.578L561.907 164.357C561.969 164.762 561.782 165.852 561.471 166.756Z" fill="#8DD126"/>
<path d="M316.208 140.868C315.678 141.211 315.242 141.553 315.304 141.585C315.366 141.616 317.018 142.519 318.98 143.609C323.404 146.008 326.426 148.127 337.516 156.475C346.207 163.049 346.238 163.08 346.207 164.201C346.176 165.572 345.179 167.659 343.809 169.248L342.812 170.463L339.229 167.41C333.809 162.799 323.03 151.989 318.669 146.756C316.519 144.201 314.556 142.083 314.307 142.083C314.058 142.083 313.528 142.239 313.155 142.457C312.5 142.831 312.5 142.862 314.151 144.856C315.086 145.977 315.865 146.974 315.865 147.099C315.865 147.254 315.46 147.348 314.93 147.348C314.432 147.348 313.996 147.472 313.996 147.659C313.996 147.815 314.619 147.971 315.366 147.971C316.55 147.971 316.831 148.127 317.485 148.968C317.921 149.528 318.513 150.494 318.824 151.086C319.136 151.678 319.665 152.519 320.039 152.955C320.413 153.391 321.254 154.855 321.908 156.164C323.653 159.591 323.715 159.528 316.114 159.871C308.638 160.214 308.638 160.214 308.762 161.304L308.856 162.145L315.086 162.052C321.877 161.958 326.363 162.301 326.799 162.986C326.955 163.204 327.08 163.703 327.08 164.108C327.08 164.731 326.955 164.824 326.239 164.668C324.214 164.232 318.014 163.827 311.254 163.64C305.429 163.485 303.871 163.547 303.217 163.89C302.469 164.264 302.22 164.201 300.039 163.08C295.99 160.993 294.712 159.092 293.902 153.952C293.778 153.142 293.529 152.675 293.342 152.737C292.874 152.893 292.968 153.672 293.809 157.005C294.37 159.279 294.65 159.84 295.834 161.086C296.706 161.989 298.201 163.017 299.821 163.827C301.254 164.544 302.5 165.354 302.594 165.665C302.937 166.662 310.102 173.64 311.909 174.731C315.803 177.036 319.946 178.033 323.591 177.566C325.148 177.379 325.211 177.379 325.211 178.095C325.211 178.718 324.837 179.03 323.155 179.809C320.974 180.837 320.538 181.335 321.192 182.114C321.628 182.643 322.968 182.519 324.712 181.771C325.242 181.522 326.612 181.055 327.765 180.712C329.759 180.089 329.915 180.089 330.943 180.556C334.65 182.363 330.569 186.942 321.535 191.179C316.768 193.391 316.955 193.266 316.955 194.108C316.955 195.416 318.762 195.042 323.404 192.706C327.952 190.463 329.946 189.061 333.248 185.914C335.616 183.671 336.488 181.989 336.207 180.214C336.145 179.684 336.207 178.189 336.363 176.849C336.737 173.983 337.765 172.27 339.167 172.27C339.634 172.27 340.226 172.145 340.444 171.989C340.756 171.771 341.192 171.896 341.815 172.332C342.999 173.173 343.777 172.83 345.615 170.494C347.516 168.064 348.326 166.257 348.513 163.983L348.637 162.083L341.379 156.693C337.36 153.703 332.531 150.058 330.6 148.563C326.862 145.666 322.905 143.08 319.416 141.335L317.236 140.245L316.208 140.868ZM321.161 166.32L323.186 166.506L323.373 167.753C323.466 168.438 323.684 169.31 323.902 169.684C324.774 171.273 324.12 173.858 322.563 174.886C321.472 175.603 318.482 175.478 318.606 174.731C318.731 173.858 315.896 173.048 315.398 173.827C314.961 174.513 310.133 170.899 307.423 167.846L305.46 165.634L312.282 165.883C316.052 166.008 320.039 166.195 321.161 166.32ZM325.958 167.815C326.924 169.248 327.485 171.771 327.142 173.017C326.831 174.139 325.74 174.98 324.307 175.26L323.248 175.478L324.089 174.388C325.179 172.924 325.429 171.397 324.774 169.777C323.653 166.974 324.494 165.603 325.958 167.815Z" fill="#8DD126"/>
<path d="M308.139 145.541C307.734 145.759 307.485 146.07 307.579 146.32C307.703 146.6 307.485 146.725 306.987 146.725C306.083 146.725 301.223 148.905 301.722 149.092C302.22 149.31 310.133 148.718 310.538 148.469C311.068 148.127 310.943 147.379 310.227 146.226C309.541 145.105 309.261 145.011 308.139 145.541Z" fill="#8DD126"/>
<path d="M482.998 169.653C482.686 169.964 482.531 170.556 482.593 171.117C482.655 171.896 483.247 172.519 485.957 174.731C490.163 178.126 498.73 185.478 503.714 189.964C507.359 193.266 507.671 193.485 508.667 193.329C509.882 193.142 510.256 192.737 510.256 191.584C510.256 190.93 509.291 189.933 505.521 186.538C493.559 175.915 485.303 169.154 484.244 169.154C483.839 169.154 483.278 169.373 482.998 169.653Z" fill="#8DD126"/>
<path d="M255.741 176.818C255.741 177.161 261.286 187.129 263.093 189.995C264.682 192.55 267.361 195.977 267.922 196.195C268.607 196.475 268.077 195.416 266.8 193.89C265.149 191.989 261.473 185.977 258.545 180.463C257.423 178.376 256.333 176.631 256.146 176.631C255.928 176.631 255.741 176.725 255.741 176.818Z" fill="#8DD126"/>
<path d="M310.413 182.363C309.541 182.924 307.734 184.045 306.364 184.855C304.993 185.665 303.186 186.849 302.314 187.472C301.473 188.095 299.603 189.248 298.202 190.027C296.8 190.805 294.432 192.114 292.937 192.955C290.102 194.544 287.61 195.136 286.426 194.481C285.118 193.734 280.974 195.79 278.046 198.562C275.99 200.556 275.585 200.712 274.152 200.276C273.467 200.089 272.47 199.435 271.909 198.874C270.819 197.752 270.382 197.565 270.382 198.22C270.382 198.874 272.376 200.618 273.529 200.93C275.585 201.522 276.083 201.366 278.607 199.092C282.407 195.696 284.401 194.917 287.61 195.478C289.199 195.79 290.725 195.167 296.021 192.176C298.388 190.805 300.413 189.715 300.507 189.715C300.6 189.715 301.535 189.061 302.594 188.282C303.622 187.472 305.834 186.07 307.454 185.104C309.074 184.17 310.756 183.111 311.161 182.799C311.971 182.176 314.058 182.052 315.335 182.519C316.363 182.924 318.17 183.048 318.295 182.706C318.388 182.394 314.588 181.397 313.061 181.366C312.282 181.335 311.473 181.647 310.413 182.363Z" fill="#8DD126"/>
<path d="M523.153 185.104C521.565 187.098 518.948 190.245 514.524 195.478C513.808 196.319 512.717 197.441 512.125 197.97C511.533 198.469 507.764 202.145 503.714 206.07C493.309 216.257 475.085 233.733 469.727 238.655C467.235 240.961 463.247 244.668 460.848 246.88C455.116 252.269 451.658 255.229 443.247 262.051C433.341 270.057 415.646 284.886 414.151 286.412C413.466 287.129 412.282 288.188 411.503 288.78C410.724 289.372 407.36 292.175 404.026 294.979C397.765 300.244 389.977 306.568 383.902 311.272L380.413 313.951L379.229 312.736C378.139 311.646 377.235 311.178 377.235 311.739C377.235 311.864 377.796 312.518 378.481 313.234L379.727 314.481L374.743 318.312C360.07 329.621 341.41 342.611 329.51 349.776L328.388 350.462L326.644 347.969C323.778 343.92 320.974 340.555 317.298 336.817C314.183 333.639 313.061 332.798 313.061 333.608C313.061 333.764 313.778 334.512 314.681 335.228C316.893 337.097 321.067 341.832 324.338 346.194C325.834 348.219 327.204 350.119 327.36 350.43C327.641 350.898 326.613 351.614 319.51 355.82C315.024 358.499 308.762 362.113 305.585 363.857C302.407 365.633 298.42 367.876 296.706 368.842C294.993 369.838 289.822 372.704 285.18 375.228C280.569 377.751 273.685 381.583 269.915 383.732C256.27 391.52 248.825 395.633 248.482 395.633C248.295 395.633 247.921 395.82 247.672 396.069C247.392 396.318 242.563 399.153 236.894 402.424C231.255 405.664 225.71 408.872 224.588 409.558C222.408 410.866 206.925 419.277 203.965 420.741L202.19 421.583L199.293 419.776C196.831 418.218 189.916 413.608 188.576 412.611C188.078 412.268 187.673 412.58 187.984 413.078C188.171 413.358 198.296 420.15 200.788 421.676C201.255 421.956 199.293 423.047 188.919 428.312C175.586 435.04 167.517 438.748 155.586 443.607C146.551 447.283 143.187 448.779 136.707 452.019C130.508 455.134 123.436 458.436 119.76 459.9C107.736 464.698 84.0597 471.769 73.9663 473.545C70.3838 474.199 68.9196 474.293 61.038 474.293C52.5957 474.293 52.035 474.261 49.8232 473.576C46.1783 472.423 43.3746 470.803 41.0693 468.498C38.6394 466.099 37.113 463.514 35.8357 459.651C33.3747 452.174 33.8108 441.769 37.0507 430.741C38.7017 425.134 39.7609 422.33 42.4712 416.661C47.2998 406.598 53.0007 397.813 61.7545 386.941L64.8698 383.078L63.5302 381.832L62.1907 380.555L61.1003 381.801C60.5396 382.455 58.2966 385.259 56.1471 388.031C42.1908 406.006 33.9666 422.829 31.2875 438.934C30.5709 443.234 30.3217 450.772 30.8202 454.261C32.4401 466.38 38.4837 474.043 48.7951 477.127C51.3185 477.906 52.0973 477.969 58.6081 478.124C71.4118 478.373 77.4554 477.314 97.3929 471.364C107.331 468.374 117.019 465.04 120.072 463.576C121.1 463.078 122.502 462.423 123.187 462.143C124.807 461.458 132.128 458 141.567 453.483C145.679 451.52 151.91 448.748 155.43 447.346C167.455 442.517 177.392 437.969 190.944 431.084C203.56 424.667 204.526 424.231 205.18 424.636C205.585 424.885 208.794 427.065 212.345 429.464C226.115 438.841 235.305 443.545 248.918 448.218C259.23 451.769 270.756 454.822 271.192 454.137C271.473 453.701 271.473 453.732 267.859 452.984C264.308 452.268 255.897 449.776 249.23 447.501C240.071 444.355 232.906 441.177 225.523 436.941C221.909 434.854 208.483 426.1 206.24 424.324L205.461 423.732L207.797 422.579C211.909 420.492 224.651 413.514 227.704 411.676C232.657 408.685 247.703 400.119 249.199 399.464C249.978 399.122 251.473 398.281 252.47 397.595C253.498 396.91 254.837 396.069 255.429 395.788C256.021 395.477 261.629 392.33 267.89 388.779C274.152 385.228 282.563 380.524 286.582 378.343C290.6 376.162 295.803 373.265 298.108 371.957C300.413 370.648 305.024 368.063 308.326 366.225C311.659 364.356 317.734 360.866 321.877 358.405C325.99 355.944 329.479 353.982 329.634 354.075C329.915 354.262 335.616 364.574 336.426 366.443C337.017 367.782 337.672 368.374 337.672 367.595C337.672 366.972 333.871 359.683 330.32 353.546C330.257 353.452 331.441 352.611 332.936 351.708C344.463 344.667 361.285 332.923 376.051 321.583C379.229 319.122 381.97 317.128 382.126 317.128C382.282 317.128 383.497 318.25 384.868 319.652C388.917 323.764 394.836 328.935 405.584 337.751C411.16 342.3 417.048 347.159 418.668 348.561C421.565 351.022 422.282 351.458 422.032 350.68C421.877 350.212 414.151 343.67 403.403 334.917C394.899 327.97 390.693 324.294 385.646 319.403C382.78 316.599 382.718 316.474 383.31 316.038C392.438 309.029 409.353 295.166 416.02 289.278C417.391 288.063 418.917 286.786 419.416 286.443C419.883 286.101 424.93 281.957 430.631 277.253C436.3 272.518 443.528 266.568 446.705 264.014C453.559 258.468 457.64 254.979 461.69 251.21C463.341 249.683 467.484 245.852 470.879 242.674C488.917 225.945 515.832 199.559 521.191 193.298C526.082 187.597 527.982 185.042 527.795 184.481C527.452 183.485 526.673 182.861 525.801 182.861C525.085 182.861 524.586 183.266 523.153 185.104Z" fill="#8DD126"/>
<path d="M232.003 183.89C231.317 184.17 231.162 184.388 231.193 185.385C231.224 187.939 229.448 189.279 225.835 189.435C223.965 189.497 223.81 189.466 223.031 188.531C222.065 187.379 221.754 187.316 221.037 188.126C220.632 188.562 220.57 188.874 220.788 189.31C221.193 190.027 222.377 191.086 223.187 191.491C224.183 191.989 228.638 191.491 230.196 190.712C232.439 189.622 233.81 187.005 233.405 184.544C233.218 183.391 233.218 183.391 232.003 183.89Z" fill="#8DD126"/>
<path d="M214.433 191.023C213.872 192.207 213.685 192.363 211.816 192.893C205.866 194.606 197.579 196.6 197.018 196.444C196.676 196.35 195.959 196.444 195.43 196.631L194.464 196.973L194.277 201.678C194.059 207.41 193.218 213.858 191.567 222.737C188.732 237.783 187.423 243.453 184.838 252.02C184.402 253.484 183.218 258.157 182.19 262.456C181.193 266.724 180.04 271.428 179.635 272.892L178.919 275.54L175.492 275.602C169.23 275.727 158.763 276.35 155.056 276.817C137.953 278.936 117.922 285.415 104.433 293.172C98.2652 296.724 90.5082 302.238 90.7263 302.923C90.7886 303.11 91.1936 303.453 91.6297 303.702C92.3774 304.138 92.5331 304.044 94.8696 302.269C106.645 293.328 121.505 286.63 140.259 281.895C146.832 280.244 161.473 278.063 162.906 278.562C163.093 278.624 162.47 279.59 161.505 280.68C159.916 282.487 155.741 288.063 151.66 293.826C150.632 295.259 149.48 296.35 147.611 297.658C142.19 301.428 135.492 306.568 135.492 306.942C135.492 307.471 136.147 308.094 136.707 308.094C136.957 308.094 138.483 307.097 140.103 305.882C141.816 304.574 142.969 303.889 142.813 304.231C141.349 307.783 140.788 310.555 141.224 312.269C141.598 313.826 142.034 313.079 142.034 310.805C142.034 308.188 142.844 305.415 144.215 303.39C144.776 302.518 146.333 301.241 148.763 299.558C151.224 297.876 152.502 296.817 152.564 296.381C152.72 295.384 160.072 291.802 167.237 289.216C167.548 289.122 167.579 288.967 167.361 288.749C166.925 288.312 160.788 290.711 155.773 293.297C153.623 294.418 151.847 295.259 151.785 295.197C151.474 294.917 160.913 282.362 163.218 279.964L164.963 278.188H171.567C176.146 278.188 178.171 278.281 178.171 278.531C178.171 279.59 174.495 290.96 174.153 290.96C174.028 290.96 173.623 290.431 173.28 289.777C172.315 288.126 171.255 287.222 169.947 287.004C169.044 286.879 168.825 286.942 168.825 287.347C168.825 287.689 169.106 287.845 169.698 287.845C171.318 287.845 173.966 291.428 173.623 293.141C173.405 294.107 173.467 294.169 175.149 294.543C175.928 294.699 176.022 294.636 175.866 294.138C175.741 293.826 176.302 291.895 177.081 289.745C178.763 285.166 182.657 271.054 184.589 262.612C185.336 259.278 186.8 253.577 187.828 249.995C188.825 246.381 190.165 241.21 190.757 238.469C192.564 230.151 195.585 214.232 195.617 212.674C195.617 212.55 196.458 212.456 197.517 212.456C199.76 212.456 203.498 211.272 205.398 209.995C208.95 207.534 211.442 203.671 215.429 194.419C217.174 190.369 217.236 189.715 215.71 189.715C215.211 189.715 214.869 190.058 214.433 191.023ZM213.373 193.609C213.373 193.858 210.414 200.12 209.324 202.176C208.701 203.329 207.299 205.135 206.021 206.413C203.498 208.967 201.442 209.933 197.984 210.213L195.835 210.369L196.022 209.372C196.146 208.843 196.395 205.883 196.613 202.799L196.987 197.192H197.735C198.514 197.192 206.676 195.167 210.258 194.107C212.283 193.516 213.373 193.329 213.373 193.609Z" fill="#8DD126"/>
<path d="M216.8 193.578C216.8 195.011 220.071 198.749 221.348 198.749C222.034 198.749 224.495 200.899 224.9 201.833C225.118 202.363 225.367 202.799 225.492 202.799C225.585 202.799 225.585 204.513 225.429 206.6C225.149 211.273 223.716 218.967 221.909 225.852C220.102 232.674 215.274 249.185 214.869 250.057C214.682 250.431 214.62 251.335 214.744 252.238C214.993 253.92 216.146 257.69 216.489 257.939C216.613 258.032 216.831 258.531 216.925 259.092C217.112 259.839 217.517 260.307 218.514 260.867C220.009 261.771 220.227 261.833 220.227 261.366C220.227 261.21 219.697 260.711 219.012 260.307C218.327 259.87 217.735 259.185 217.61 258.749C217.517 258.313 217.267 257.939 217.112 257.939C216.925 257.939 216.8 257.721 216.8 257.44C216.8 257.16 216.489 255.976 216.146 254.761C215.71 253.391 215.523 252.113 215.616 251.303C215.71 250.587 216.769 246.599 218.015 242.456C222.439 227.41 225.024 217.16 225.834 211.522C226.302 208.375 226.177 202.55 225.679 201.522C225.149 200.525 222.563 198.126 221.972 198.126C221.722 198.126 221.099 197.784 220.601 197.347C220.071 196.911 219.542 196.569 219.355 196.569C219.199 196.569 218.669 195.79 218.171 194.855C217.299 193.173 216.8 192.706 216.8 193.578Z" fill="#8DD126"/>
<path d="M309.915 196.444C307.267 197.752 302.314 200.182 298.887 201.865C295.46 203.547 291.348 205.759 289.791 206.818C285.866 209.372 280.165 214.855 280.788 215.478C280.881 215.572 282.283 214.326 283.872 212.706C288.077 208.469 291.317 206.475 303.809 200.338C309.791 197.41 314.806 195.011 314.962 195.011C315.305 195.011 315.336 194.481 314.993 194.263C314.837 194.17 312.563 195.167 309.915 196.444Z" fill="#8DD126"/>
<path d="M519.166 201.584C518.2 202.706 518.138 203.235 518.948 203.796C520.319 204.793 557.764 239.715 564.337 246.163C566.58 248.344 568.605 250.151 568.854 250.151C569.82 250.151 570.692 249.185 570.692 248.188C570.692 247.316 570.194 246.693 566.892 243.422C564.773 241.366 558.512 235.416 552.935 230.213C547.359 225.011 540.848 218.905 538.449 216.662C526.518 205.478 521.066 200.618 520.537 200.618C520.225 200.618 519.602 201.055 519.166 201.584Z" fill="#8DD126"/>
<path d="M249.293 204.107C244.62 209.684 241.878 214.481 241.878 217.129C241.878 218.406 242.065 218.749 244.09 221.179C245.305 222.643 247.423 225.291 248.794 227.098C250.196 228.905 253.031 232.332 255.118 234.73C258.638 238.78 261.411 242.238 262.75 244.294C263.311 245.229 263.841 245.447 263.841 244.761C263.841 244.17 259.697 238.811 255.71 234.201C253.716 231.927 250.508 228.033 248.576 225.54C246.645 223.048 244.495 220.4 243.841 219.621C242.688 218.313 242.595 218.126 242.751 216.724C243 214.045 245.118 210.525 250.383 204.076C251.66 202.488 251.941 201.865 251.442 201.865C251.317 201.865 250.352 202.893 249.293 204.107Z" fill="#8DD126"/>
<path d="M73.2186 227.721C64.7451 228.438 58.8262 230.774 55.7421 234.668C52.8761 238.219 51.6611 242.3 51.6611 248.282C51.63 262.736 57.9228 276.973 71.5987 293.297C74.4959 296.786 84.7139 307.16 85.2123 307.16C85.3992 307.16 86.178 307.814 86.9257 308.593C88.2341 309.932 94.7449 315.509 99.044 318.935C100.165 319.839 101.318 320.555 101.63 320.555C102.253 320.555 103.436 318.811 103.187 318.188C103.094 317.938 101.754 316.724 100.197 315.509C94.0284 310.618 88.6391 305.727 82.3774 299.34C65.1501 281.802 56.8013 267.035 55.4617 251.615C54.6206 241.833 57.4555 235.821 64.1533 233.297C70.0411 231.054 80.9444 230.618 93.9038 232.082C100.508 232.83 111.785 234.543 120.383 236.132C126.302 237.223 126.988 237.316 127.611 236.88C128.452 236.35 128.576 234.855 127.86 234.17C127.33 233.609 126.52 233.422 118.172 231.958C97.5175 228.282 83.0005 226.911 73.2186 227.721Z" fill="#8DD126"/>
<path d="M170.383 251.895C167.735 254.232 162.907 258.624 159.667 261.615L153.779 267.067L155.555 267.97L157.33 268.873L161.598 264.886C163.966 262.705 168.016 258.998 170.632 256.693L175.368 252.487V250.057C175.368 248.749 175.336 247.659 175.305 247.659C175.243 247.659 173.031 249.559 170.383 251.895Z" fill="#8DD126"/>
<path d="M191.162 250.68C190.788 251.335 190.601 254.201 190.134 266.506C189.292 288.313 189.884 301.802 192.283 317.284L192.657 319.776L189.884 324.138C188.358 326.537 186.177 330.181 185.056 332.237C183.965 334.294 183 336.038 182.969 336.069C182.906 336.132 181.754 336.35 180.383 336.505L177.86 336.848L176.053 335.166C173.747 333.047 170.009 330.368 165.772 327.783C161.318 325.104 148.67 318.904 148.109 319.122C147.486 319.34 147.517 320.368 148.202 320.929C148.483 321.209 151.567 322.829 155.025 324.574C164.994 329.527 170.694 333.172 175.149 337.315C176.8 338.842 177.423 339.278 177.953 339.122C178.327 339.029 179.916 338.811 181.473 338.593C184.215 338.25 184.339 338.281 185.835 339.029C187.517 339.87 190.352 342.674 191.691 344.823C192.564 346.163 192.564 346.225 192.065 347.284C191.193 349.091 190.57 352.611 190.414 356.941C190.227 360.929 190.258 361.116 190.944 361.832C191.691 362.611 193.997 363.546 195.211 363.546C196.551 363.546 195.928 363.016 193.903 362.455C192.813 362.175 191.754 361.739 191.535 361.49C190.944 360.773 190.85 358.592 191.255 354.948C191.722 350.493 192.439 347.658 193.062 347.658C193.311 347.658 193.436 347.564 193.342 347.44C193.218 347.346 193.436 347.097 193.81 346.91C194.931 346.35 194.838 345.664 193.342 343.39C191.193 340.088 186.987 336.443 185.274 336.443C183.997 336.412 183.997 335.913 185.461 333.141C187.174 329.808 192.221 321.739 192.657 321.583C192.844 321.521 193.467 324.387 194.152 328.25C195.835 337.876 196.302 339.901 196.925 340.306C197.361 340.555 197.579 340.524 197.984 340.119C198.451 339.652 198.42 339.247 197.517 334.512C192.252 306.848 191.317 294.574 192.314 267.129C192.626 259.403 192.906 252.799 193 252.425C193.28 251.335 192.844 250.462 192.034 250.462C191.629 250.462 191.224 250.556 191.162 250.68Z" fill="#8DD126"/>
<path d="M378.7 253.515C378.139 254.107 378.014 255.353 378.419 255.914C378.544 256.101 380.195 257.347 382.064 258.718C386.924 262.207 399.042 271.366 406.363 277.067C409.79 279.746 412.936 282.02 413.341 282.113C414.65 282.487 415.771 281.334 415.46 279.995C415.241 279.154 408.045 273.453 392.22 261.584C379.977 252.394 379.79 252.3 378.7 253.515Z" fill="#8DD126"/>
<path d="M221.473 262.986C221.473 263.204 223.093 265.353 225.087 267.752C230.881 274.73 232.626 277.067 234.557 280.4C236.645 284.014 237.423 284.045 235.492 280.431C233.81 277.316 232.346 275.322 227.455 269.434C225.243 266.724 223.124 264.107 222.751 263.578C222.034 262.581 221.473 262.331 221.473 262.986Z" fill="#8DD126"/>
<path d="M286.332 272.02C286.457 272.394 292.532 276.194 298.388 279.652C300.787 281.054 304.152 282.051 305.896 281.864C307.547 281.708 307.205 281.147 305.429 281.054C304.588 281.023 303.248 280.836 302.469 280.618C301.13 280.275 295.336 277.035 289.572 273.39C286.706 271.615 286.114 271.366 286.332 272.02Z" fill="#8DD126"/>
<path d="M265.928 276.537C265.585 276.848 266.021 277.253 266.706 277.253C268.482 277.253 271.94 282.985 270.818 284.045C270.569 284.263 270.382 284.792 270.382 285.228C270.382 287.347 266.052 298.842 260.912 310.337C259.105 314.418 257.61 317.938 257.61 318.219C257.61 319.091 258.171 318.686 258.669 317.409C258.949 316.692 260.787 312.549 262.719 308.125C266.395 299.901 269.853 290.711 270.881 286.599C271.192 285.322 271.597 284.169 271.753 284.045C272.563 283.484 269.946 278.095 268.451 277.16C267.579 276.599 266.177 276.257 265.928 276.537Z" fill="#8DD126"/>
<path d="M208.576 277.814C208.327 278.25 206.832 292.393 206.613 296.412C206.395 300.992 206.832 303.951 207.984 305.322C208.981 306.474 211.691 308.562 214.183 310.057C215.461 310.836 216.177 311.459 216.302 311.988C216.613 313.203 217.112 320.181 216.925 320.649C216.769 321.085 217.548 322.113 218.046 322.113C218.202 322.113 218.545 321.864 218.825 321.583C219.292 321.147 219.324 320.649 219.168 318.094C218.856 313.546 218.358 310.493 217.828 309.901C217.579 309.621 216.395 308.811 215.212 308.094C214.028 307.378 212.221 306.132 211.224 305.291C209.542 303.889 209.324 303.577 208.981 301.957C208.514 299.683 208.732 295.197 209.791 285.602C210.227 281.646 210.539 278.219 210.445 277.97C210.258 277.534 208.825 277.409 208.576 277.814Z" fill="#8DD126"/>
<path d="M234.9 286.848C234.495 287.845 231.941 291.023 224.62 299.683C220.04 305.104 219.822 305.415 219.853 306.692C219.885 310.368 222.501 312.082 228.95 312.767C232.844 313.172 233 313.172 233 312.611C233 312.238 232.564 312.144 231.068 312.144C228.358 312.113 224.651 311.396 223.093 310.618C221.504 309.808 220.819 308.811 220.632 307.066C220.476 305.758 220.57 305.602 222.47 303.39C232.906 291.272 236.458 286.724 235.897 286.163C235.523 285.789 235.243 285.976 234.9 286.848Z" fill="#8DD126"/>
<path d="M422.593 287.907C422.313 288.281 422.095 288.749 422.095 288.936C422.095 289.154 424.12 289.403 427.64 289.652C435.21 290.182 441.534 291.521 442.718 292.861C443.341 293.608 444.992 297.783 445.646 300.306C445.895 301.334 446.207 303.546 446.331 305.197C446.612 309.153 447.204 309.153 447.079 305.197C446.954 302.02 446.3 299.122 444.867 295.478C444.338 294.107 443.964 292.985 444.026 292.923C444.213 292.736 450.693 296.194 453.403 297.939C460.724 302.674 463.777 306.319 466.051 312.985L466.954 315.695L466.144 316.942C465.708 317.658 464.929 318.624 464.431 319.153C459.634 324.231 454.306 330.742 450.506 336.131C445.553 343.234 439.322 353.39 437.764 356.972C437.36 357.938 436.674 359.402 436.269 360.275C435.864 361.116 434.836 363.452 433.964 365.415C432.001 369.838 429.509 374.262 428.886 374.387C428.637 374.449 426.612 372.736 424.369 370.617C420.226 366.63 419.291 366.007 418.512 366.661C417.796 367.253 417.92 367.658 419.79 370.586C421.503 373.296 426.737 383.764 428.481 387.969L429.384 390.119L428.325 391.022C427.733 391.52 422.687 395.695 417.142 400.243C402.967 411.894 397.516 416.505 393.933 419.932C389.447 424.199 380.911 433.421 381.192 433.67C381.347 433.763 381.877 433.95 382.438 434.044C383.248 434.199 383.528 434.106 383.902 433.576C384.338 432.953 384.369 432.984 384.556 434.075C384.681 434.698 384.93 435.196 385.148 435.196C385.335 435.196 385.833 435.29 386.238 435.414C386.986 435.601 386.986 435.601 386.737 433.763C386.612 432.766 386.394 431.769 386.238 431.583C385.802 431.053 395.023 421.676 401.223 416.349C407.765 410.742 418.699 401.77 418.824 401.925C419.011 402.081 421.098 412.486 421.939 417.346C423.029 423.732 422.936 423.358 423.839 423.358C424.244 423.358 424.68 423.14 424.805 422.86C425.054 422.143 424.525 418.717 422.531 408.717L420.818 400.15L421.721 399.371C424.712 396.754 431.098 391.676 431.846 391.334C432.375 391.116 432.687 390.742 432.687 390.337C432.687 389.963 432.811 389.433 432.967 389.153C433.123 388.873 433.403 387.066 433.59 385.197C434.213 379.309 435.241 373.016 435.522 373.67C435.646 374.013 436.051 376.817 436.425 379.901C437.173 386.131 439.135 398.935 439.384 399.402C439.634 399.776 441.004 399.776 441.254 399.371C441.347 399.215 440.942 395.882 440.35 391.988C439.198 384.729 437.546 371.77 437.204 367.595C437.017 365.446 437.079 365.01 438.138 361.988C439.665 357.595 442.375 352.549 447.671 344.293L449.135 342.019L449.789 345.695C450.63 350.244 450.662 350.368 451.285 350.586C452.219 350.96 452.718 350.15 452.5 348.592C452.063 345.01 451.067 340.337 450.786 340.244C450.444 340.119 454.057 334.574 454.462 334.574C454.867 334.574 459.197 355.477 459.976 361.209C460.225 363.172 460.599 363.857 461.316 363.857C462.406 363.857 462.562 363.234 462.095 360.43C460.911 353.328 460.194 349.652 458.543 342.05C457.546 337.502 456.674 333.359 456.549 332.829C456.425 332.019 456.612 331.552 457.546 330.368C458.169 329.558 458.73 329.06 458.792 329.278C458.855 329.465 459.166 331.116 459.447 332.923C459.976 336.318 460.381 337.066 461.471 336.661C462.126 336.412 462.095 335.446 461.347 331.116C461.004 329.153 460.724 327.315 460.724 327.035C460.724 326.755 461.409 325.789 462.219 324.885L463.714 323.234L464.119 326.038C464.587 329.496 466.954 340.742 468.387 346.568C470.537 355.166 474.275 367.627 474.774 367.938C475.334 368.281 474.618 372.081 473.247 376.193C471.503 381.271 469.852 383.95 466.02 387.938C462.531 391.552 459.229 394.573 459.01 394.324C458.761 394.075 454.587 373.047 453.372 365.882C452.749 362.268 452.063 359.153 451.845 358.904C451.285 358.312 450.132 358.748 450.132 359.589C450.132 361.053 456.082 392.673 456.861 395.383C456.986 395.788 456.394 396.225 454.213 397.315L451.409 398.717L451.254 397.876C451.16 397.408 450.849 395.695 450.599 394.075C450.319 392.455 449.945 390.96 449.758 390.742C449.322 390.212 448.294 390.243 448.076 390.773C447.982 391.022 448.201 393.14 448.606 395.477C448.979 397.782 449.229 399.745 449.166 399.776C449.104 399.838 448.138 400.492 447.017 401.24C444.026 403.234 442.313 404.791 439.447 408.094C434.431 413.826 432.157 417.315 430.226 422.174C428.948 425.321 428.201 428.592 427.266 435.196C426.83 438.187 426.269 441.364 426.051 442.268L425.615 443.888L426.55 444.23C427.079 444.386 427.578 444.542 427.733 444.542C428.107 444.542 428.855 440.804 429.571 435.352C429.945 432.611 430.35 429.869 430.506 429.277C432.531 421.302 434.68 417.252 440.662 410.212C445.054 405.009 446.549 403.857 453.31 400.492C456.487 398.872 459.384 397.284 459.727 396.972C460.038 396.661 461.285 395.601 462.5 394.605C465.708 391.988 470.007 387.408 471.721 384.823C473.091 382.767 474.68 379.184 476.113 374.979C476.892 372.673 477.546 367.284 477.546 363.141C477.546 360.337 477.359 358.437 476.736 355.477C475.989 351.832 475.926 351.209 476.144 346.412C476.549 336.287 474.836 327.191 471.004 319.153C470.194 317.44 469.135 314.854 468.668 313.39C467.515 309.901 466.238 307.066 464.992 305.322C463.341 302.985 459.166 298.967 456.674 297.316C449.509 292.518 445.833 290.805 439.166 289.122C433.808 287.752 430.132 287.222 425.927 287.222C423.31 287.222 423.029 287.284 422.593 287.907ZM471.285 326.132C473.185 332.082 474.493 342.05 473.839 345.633C473.372 348.187 473.434 351.147 473.995 353.733C474.742 357.159 475.397 361.396 475.303 362.113C475.21 362.86 472.468 353.67 470.661 346.536C469.073 340.181 466.83 329.403 466.144 324.885L465.615 321.241L466.83 319.776L468.045 318.281L469.166 320.711C469.789 322.051 470.755 324.48 471.285 326.132Z" fill="#8DD126"/>
<path d="M0.50899 303.671C-0.114059 304.356 -0.176363 305.291 0.38438 305.945C1.16319 306.942 7.73636 311.926 14.9326 317.035C23.188 322.892 47.5803 339.371 48.2034 339.496C49.8856 339.839 50.789 337.44 49.4495 336.225C49.0445 335.882 42.2844 331.209 34.4028 325.851C18.0478 314.73 9.97933 309.029 5.64914 305.54C2.47159 302.985 1.44356 302.612 0.50899 303.671Z" fill="#8DD126"/>
<path d="M79.9164 312.518C75.9289 316.848 71.4118 322.643 70.3526 324.792C69.1688 327.222 68.9196 329.465 69.5738 332.082C70.5395 336.038 80.1656 354.387 83.1251 357.938C84.8696 360.025 90.9132 366.038 91.2871 366.038C91.4117 366.038 91.3182 366.63 91.069 367.346C90.2279 369.745 88.826 375.477 88.4833 378.032C88.1095 380.586 88.2341 382.206 89.854 395.882C90.4148 400.679 90.5394 401.427 92.0036 407.626C96.3961 426.723 100.882 437.377 110.477 451.707C111.193 452.829 112.284 454.23 112.845 454.822C113.374 455.445 114.215 456.411 114.714 456.972C115.368 457.782 115.742 457.969 116.302 457.813C116.707 457.72 117.112 457.439 117.206 457.221C117.299 456.972 116.458 455.695 115.368 454.324C108.982 446.505 102.315 434.075 98.5144 422.891C94.963 412.362 92.7201 401.925 91.2559 388.935C90.6952 383.857 90.4771 380.15 90.8509 381.77C90.9132 382.113 91.3494 383.982 91.7543 385.913C93.2808 392.829 96.9879 402.268 100.975 409.496C103.063 413.265 109.044 422.517 109.605 422.86C110.477 423.421 109.729 421.988 106.801 417.502C98.7948 405.321 94.2154 394.574 91.8478 382.58C90.7886 377.19 90.7886 376.848 92.2216 371.77C93.4366 367.377 94.963 363.515 97.206 359.06C99.3244 354.885 103.405 347.627 105.493 344.418C107.019 342.082 106.988 341.646 105.461 340.213L104.807 339.589L101.38 342.705C97.4552 346.256 93.935 348.779 89.6671 351.054C86.5207 352.736 85.3681 352.954 83.1563 352.3C82.0971 351.988 81.8167 351.614 79.7918 348.001C76.8635 342.736 72.7825 334.48 72.1283 332.487C71.3183 330.057 71.3806 328.157 72.3464 326.038C73.0629 324.449 73.8105 323.951 73.8105 325.01C73.8105 325.851 75.7731 332.393 76.0224 332.393C76.4585 332.393 76.365 331.708 75.3993 328.125C74.9009 326.287 74.4024 324.387 74.309 323.92C74.1532 323.203 74.4959 322.58 76.6766 319.901C78.0784 318.157 80.3837 315.509 81.8167 314.013C83.2497 312.518 84.4024 311.178 84.4024 311.054C84.4024 310.805 83.094 309.683 82.7824 309.652C82.6578 309.652 81.3806 310.96 79.9164 312.518Z" fill="#8DD126"/>
<path d="M440.786 317.97C438.138 322.206 435.895 325.851 435.864 326.1C435.49 327.533 437.048 325.446 441.285 318.686C445.739 311.552 446.456 310.275 445.833 310.275C445.708 310.275 443.434 313.733 440.786 317.97Z" fill="#8DD126"/>
<path d="M125.057 312.954C122.377 313.671 120.415 314.418 118.826 315.353C116.739 316.568 113.935 319.185 112.72 321.054C112.284 321.708 111.568 322.829 111.1 323.515C109.948 325.29 109.293 327.97 109.106 331.926C108.951 334.979 109.044 335.664 109.761 338.281C110.758 341.708 111.754 343.795 113.406 345.913C115.867 348.997 118.795 351.053 122.564 352.362C124.402 352.985 125.337 353.11 128.483 353.11C134.278 353.11 137.518 351.801 141.972 347.627C144.34 345.415 145.773 343.047 147.206 338.935C148.047 336.505 148.047 329.558 147.206 327.097C146.147 324.013 144.62 321.334 142.658 319.185C140.01 316.256 138.919 315.353 136.521 314.107C134.433 313.016 134.34 313.016 130.041 312.892C127.642 312.861 125.399 312.861 125.057 312.954ZM133.904 317.097C138.826 318.966 142.689 323.328 144.028 328.561C144.683 331.022 144.683 335.384 144.028 337.627C140.384 350.275 125.181 354.106 116.708 344.511C113.779 341.209 112.44 337.502 112.44 332.642C112.44 328.312 113.779 324.792 116.708 321.521C121.038 316.63 127.954 314.823 133.904 317.097Z" fill="#8DD126"/>
<path d="M305.74 324.636L301.379 325.851L286.582 326.163C271.597 326.443 268.544 326.63 269.043 327.129C269.199 327.284 274.183 327.284 280.974 327.097C287.392 326.942 293.934 326.786 295.46 326.817H298.264L294.214 328.312C287.672 330.711 278.607 334.667 269.604 338.998C253.654 346.692 248.482 348.779 241.971 350.306L239.573 350.867L236.52 349.465C232.813 347.72 230.289 347.035 227.548 347.035C225.18 347.035 223.685 347.658 220.258 350.057C217.049 352.269 210.57 358.001 210.57 358.592C210.57 359.247 211.38 359.932 211.878 359.714C212.096 359.62 213.685 358.312 215.398 356.817C219.074 353.608 222.439 351.085 224.464 349.994C227.174 348.561 231.006 349.153 236.27 351.77C239.199 353.265 239.884 353.265 245.678 351.583C251.878 349.807 253.342 349.153 273.03 339.776C281.878 335.571 292.688 331.085 299.105 328.935L304.65 327.097L306.301 327.72C308.451 328.53 310.164 330.026 310.694 331.552C310.912 332.206 311.223 332.705 311.379 332.642C311.722 332.518 311.535 331.178 311.005 330.15C310.538 329.247 307.61 327.097 306.862 327.097C305.803 327.097 307.142 326.474 309.323 325.945C311.597 325.415 311.659 325.353 311.659 324.449C311.659 323.141 310.943 323.141 305.74 324.636Z" fill="#8DD126"/>
<path d="M431.627 331.521C429.54 334.294 422.811 347.004 422.251 349.309C421.877 350.711 422.874 350.337 423.31 348.935C423.871 347.004 428.73 337.533 430.973 333.982C432.095 332.206 432.998 330.711 432.998 330.649C432.998 330.213 432.282 330.68 431.627 331.521Z" fill="#8DD126"/>
<path d="M79.8854 333.639C79.5739 334.138 84.5272 336.131 88.7639 337.222C92.6268 338.25 98.7327 339.122 99.5115 338.779C100.041 338.561 99.9788 338.499 99.0442 338.312C98.4523 338.156 96.7078 337.907 95.2124 337.72C91.4741 337.222 86.0536 335.789 82.8449 334.449C79.8231 333.172 80.1347 333.234 79.8854 333.639Z" fill="#8DD126"/>
<path d="M199.666 342.767C199.666 343.016 200.009 343.515 200.445 343.92C202.034 345.415 206.115 351.863 207.579 355.197L208.358 356.972L203.872 359.309C201.38 360.586 198.95 361.708 198.42 361.832C197.922 361.957 197.486 362.237 197.486 362.486C197.486 363.203 198.732 362.767 203.467 360.399C207.704 358.281 208.701 357.471 208.701 356.163C208.701 354.761 204.246 347.159 201.473 343.826C200.227 342.362 199.666 342.019 199.666 342.767Z" fill="#8DD126"/>
<path d="M152.595 351.116C151.256 352.455 151.692 352.829 159.324 356.941C170.944 363.172 179.044 367.315 187.673 371.334C192.128 373.421 199.48 376.879 204.028 379.028C221.006 387.066 233.342 392.517 234.557 392.58C236.022 392.642 236.8 392.05 236.676 391.053C236.582 390.368 235.149 389.62 223.81 384.449C216.8 381.209 208.296 377.284 204.963 375.695C201.629 374.106 195.741 371.365 191.879 369.558C182.252 365.072 173.499 360.649 163.218 355.135C158.452 352.58 154.246 350.462 153.873 350.462C153.53 350.462 152.969 350.742 152.595 351.116Z" fill="#8DD126"/>
<path d="M337.921 369.34C337.796 369.433 337.952 370.025 338.232 370.648C338.575 371.521 338.731 373.141 338.824 376.972C338.918 381.926 338.918 382.237 338.108 384.449C336.363 389.34 332.75 396.505 328.856 402.798C326.955 405.882 317.983 418.436 317.578 418.592C317.142 418.748 301.379 414.293 291.41 411.209C280.912 407.938 275.305 406.1 268.7 403.701C263.435 401.77 262.688 401.583 261.784 401.863C260.663 402.237 260.071 403.576 260.787 404.2C262.22 405.508 288.482 414.106 306.831 419.308C311.192 420.555 314.899 421.676 315.024 421.801C315.553 422.268 304.837 436.38 298.825 443.171C297.734 444.386 296.862 445.477 296.862 445.601C296.862 447.034 302.812 440.181 310.32 430.056C312.874 426.629 315.242 423.421 315.647 422.922L316.363 422.019L325.678 424.729C330.818 426.224 339.167 428.685 344.214 430.212C363.528 436.006 384.338 441.738 386.051 441.738C386.55 441.738 387.204 441.894 387.547 442.081C388.326 442.486 396.394 444.635 400.911 445.632C407.173 447.034 421.659 450.461 424.431 451.24C435.895 454.355 460.163 458.654 486.02 462.143C504.805 464.666 507.826 464.916 520.069 464.916C531.346 464.947 535.303 464.666 540.474 463.545C546.486 462.237 548.013 461.115 546.019 459.402C545.365 458.872 544.742 458.592 544.368 458.654C544.025 458.747 542.405 459.152 540.754 459.589C536.487 460.71 532.997 461.053 523.963 461.271C512.312 461.52 504.96 460.959 485.023 458.249C473.154 456.629 451.503 453.202 444.525 451.832C432.78 449.557 411.098 444.635 398.575 441.458C393.777 440.212 385.553 438.311 385.117 438.311C384.805 438.311 383.217 437.906 381.597 437.377C379.977 436.878 374.307 435.259 368.98 433.794C363.684 432.361 353.03 429.277 345.304 427.003C337.609 424.698 328.451 421.988 324.993 420.991C321.504 419.994 318.669 419.09 318.669 418.966C318.669 418.841 320.725 415.882 323.217 412.393C330.912 401.676 336.332 392.019 339.042 384.106C339.665 382.299 339.759 381.552 339.697 377.408C339.603 371.801 338.855 368.374 337.921 369.34Z" fill="#8DD126"/>
<path d="M513.371 403.732C512.593 404.511 512.561 405.664 513.309 406.287C513.59 406.536 515.396 407.626 517.266 408.717C522.748 411.863 527.265 415.165 533.963 420.897C536.611 423.171 538.293 423.109 538.293 420.773C538.293 419.682 537.234 418.623 531.658 414.075C526.424 409.807 515.988 403.109 514.555 403.109C514.244 403.109 513.714 403.39 513.371 403.732Z" fill="#8DD126"/>
<path d="M163.374 411.801C151.349 420.71 148.514 422.455 136.894 427.938L131.287 430.586L128.234 429.9C122.533 428.654 113.125 425.072 112.377 423.888C112.253 423.701 112.066 423.639 111.941 423.732C110.789 424.916 118.764 428.405 127.517 430.523L131.193 431.427L134.994 429.682C146.676 424.293 151.847 421.302 160.321 415.009C163.53 412.642 166.489 410.492 166.894 410.243C167.548 409.838 167.86 409.028 167.361 409.028C167.206 409.028 165.43 410.274 163.374 411.801Z" fill="#8DD126"/>
<path d="M412.126 416.661C411.846 417.003 411.908 418.904 412.407 425.446C412.749 430.025 413.154 435.57 413.248 437.751C413.435 441.396 413.497 441.707 414.12 441.863C415.678 442.299 415.646 442.361 415.428 437.595C415.055 429.651 413.964 417.003 413.622 416.598C413.185 416.069 412.593 416.1 412.126 416.661Z" fill="#8DD126"/>
<path d="M547.639 425.446C545.739 425.726 543.06 426.598 541.97 427.283C541.346 427.688 540.038 428.81 539.072 429.776C533.59 435.352 533.59 444.075 539.103 449.682C541.533 452.143 544.399 453.452 548.698 454.106L552.001 454.604L555.303 453.109C557.888 451.925 558.979 451.209 560.381 449.838C566.082 444.137 566.144 435.445 560.536 429.745C557.297 426.442 552.156 424.729 547.639 425.446ZM552.748 429.433C554.867 429.994 557.39 431.583 558.636 433.171C560.256 435.227 560.848 436.972 560.848 439.713C560.848 442.455 560.256 444.199 558.636 446.255C557.702 447.439 554.586 449.713 554.275 449.402C554.181 449.308 553.683 449.464 553.122 449.744C552.499 450.056 551.315 450.243 549.664 450.274C547.484 450.305 546.923 450.181 545.085 449.308C542.561 448.124 540.661 446.286 539.602 443.95C538.917 442.517 538.792 441.738 538.792 439.713C538.792 435.508 540.505 432.704 544.306 430.679C547.702 428.872 549.54 428.592 552.748 429.433Z" fill="#8DD126"/>
<path d="M371.566 444.168C370.475 445.477 365.678 451.614 360.881 457.782C353.248 467.657 347.391 475.009 342.937 480.243C341.254 482.205 340.507 482.579 329.261 486.94C314.308 492.735 305.896 494.666 285.554 497.034C274.028 498.373 257.33 497.657 250.757 495.57C247.704 494.604 241.567 491.987 236.863 489.62C230.289 486.317 220.134 481.738 216.022 480.212C214.308 479.588 212.003 478.592 210.882 478.031C209.76 477.47 207.424 476.567 205.679 476.037C202.844 475.165 201.536 474.978 194.62 474.448C182.502 473.483 173.467 473.701 158.39 475.258C149.698 476.162 147.891 476.099 142.72 474.884C137.767 473.732 133 471.177 127.798 466.941C125.368 464.947 124.558 464.698 124.029 465.85C123.717 466.567 123.842 466.723 125.929 468.436C135.119 476.006 145.306 479.9 161.349 481.987C165.742 482.548 178.732 482.486 183.156 481.863C187.58 481.24 198.67 481.395 202.782 482.112C207.143 482.891 211.878 484.635 217.548 487.532C223.592 490.648 225.679 491.52 232.813 493.919C237.766 495.539 248.233 498.062 252.937 498.716C261.162 499.9 275.336 500.367 282.221 499.682C283.841 499.526 286.021 499.308 287.049 499.215C292.719 498.654 306.644 496.442 310.538 495.476C316.769 493.95 324.744 491.333 328.887 489.495C329.884 489.059 331.223 488.529 331.909 488.311C334.027 487.626 337.111 486.411 339.074 485.507C341.223 484.542 342.345 484.448 347.952 484.884C354.401 485.383 364.899 485.258 367.204 484.635C369.665 483.981 370.133 483.638 371.659 481.551C374.058 478.311 374.899 477.377 377.422 475.103C382.687 470.305 387.734 467.813 397.329 465.258C409.852 461.956 417.111 458.934 420.787 455.632C422.251 454.293 422.407 454.043 421.908 453.857C420.693 453.389 419.821 453.607 418.108 454.853L416.332 456.1L416.083 454.448C415.802 452.579 415.74 452.455 414.494 452.143L413.59 451.925L413.809 454.573L414.058 457.221L412.126 458.062C410.101 458.966 401.129 461.987 400.444 461.987C400.133 461.987 400.008 460.523 399.915 455.632C399.852 452.112 399.728 449.184 399.665 449.121C399.572 449.028 399.073 448.872 398.544 448.779L397.578 448.561L397.734 455.695L397.89 462.828L396.675 463.078C391.753 463.981 382.75 467.937 378.855 470.866L376.675 472.486L376.488 468.093C376.176 461.333 375.74 456.754 374.837 450.368L374.027 444.511L375.055 443.452C375.647 442.86 376.052 442.33 375.958 442.268C375.896 442.206 375.335 442.05 374.681 441.956C373.591 441.801 373.497 441.863 371.566 444.168ZM372.843 451.863C373.622 457.626 374.027 462.455 374.307 469.215L374.525 474.417L372.656 476.691C371.659 477.937 370.32 479.62 369.697 480.398C368.918 481.364 368.17 481.925 367.36 482.174C365.273 482.797 358.887 483.202 354.743 482.984L350.756 482.766L350.6 481.8C349.79 477.283 349.603 475.819 349.79 475.539C349.946 475.352 351.722 473.109 353.747 470.554C355.803 467.969 357.765 465.476 358.108 464.978L358.762 464.075L358.949 465.757C359.198 467.813 359.79 475.539 359.884 477.844C359.946 479.62 360.476 480.336 361.472 479.962C362.158 479.682 362.127 476.255 361.379 467.906L360.787 461.52L361.628 460.43C367.298 453.078 372.033 447.034 372.127 447.097C372.158 447.159 372.5 449.308 372.843 451.863Z" fill="#8DD126"/>
</svg>

