<svg width="120" height="120" viewBox="0 0 120 120" fill="none" xmlns="http://www.w3.org/2000/svg">
<rect width="120" height="120" rx="10" fill="#BE91CE"/>
<path d="M89.7492 27H29.0976C28.5086 27 28.0472 27.5064 28.1019 28.0928L33.561 86.6541C33.5972 87.0429 33.8564 87.375 34.2248 87.5046L60.8553 96.8746C61.085 96.9554 61.3362 96.9497 61.562 96.8584L84.6619 87.5201C85.0086 87.38 85.2481 87.0582 85.2828 86.6858L90.7448 28.0928C90.7995 27.5064 90.3381 27 89.7492 27Z" fill="#60D4EE" stroke="black" stroke-width="4" stroke-linecap="round"/>
<path d="M40.9231 43.1538H77.1077L75.2802 58.2307M44.9436 69.7897L46.9538 76.323L60.5231 80.8461L73.0872 76.323L75.2802 58.2307M42.4308 58.2307H75.2802" stroke="black" stroke-width="4" stroke-linecap="round" stroke-linejoin="round"/>
</svg>

