<svg width="120" height="120" viewBox="0 0 120 120" fill="none" xmlns="http://www.w3.org/2000/svg">
<rect width="120" height="120" rx="10" fill="#BE91CE"/>
<path d="M103.297 57.9894L64.0106 18.7032C63.4736 18.1634 62.8352 17.7351 62.1321 17.4428C61.4291 17.1505 60.6752 17 59.9137 17C59.1523 17 58.3984 17.1505 57.6954 17.4428C56.9923 17.7351 56.3539 18.1634 55.8169 18.7032L47.6665 26.8537L58.0163 37.2035C59.2337 36.7995 60.5397 36.7429 61.7875 37.04C63.0354 37.3371 64.1757 37.9761 65.0805 38.8854C65.9853 39.7946 66.6187 40.9381 66.9096 42.1874C67.2005 43.4367 67.1374 44.7423 66.7274 45.9578L76.6891 55.9626C78.1822 55.4522 79.8051 55.4691 81.2873 56.0103C82.7695 56.5515 84.0214 57.5843 84.8344 58.9367C85.6474 60.2891 85.9722 61.8792 85.7549 63.4421C85.5375 65.005 84.791 66.4461 83.6399 67.5253C82.4887 68.6045 81.0025 69.2566 79.4288 69.3728C77.8552 69.489 76.2893 69.0623 74.9921 68.1638C73.695 67.2654 72.7449 65.9495 72.3004 64.4355C71.8558 62.9215 71.9436 61.3009 72.5492 59.8438L63.2343 50.5289V75.0235C64.6489 75.7248 65.7803 76.8901 66.4394 78.3248C67.0986 79.7596 67.2458 81.377 66.8564 82.9071C66.467 84.4373 65.5645 85.7876 64.2997 86.7327C63.0349 87.6778 61.4842 88.1605 59.9065 88.1003C58.3287 88.0401 56.8193 87.4406 55.6302 86.4018C54.4411 85.363 53.6442 83.9478 53.3726 82.3925C53.101 80.8371 53.371 79.2356 54.1376 77.8553C54.9042 76.475 56.1211 75.3993 57.585 74.8079V50.1408C56.7443 49.7925 55.9818 49.2793 55.3426 48.6315C54.3771 47.6609 53.7221 46.4251 53.461 45.0812C53.1999 43.7374 53.3445 42.3462 53.8764 41.0847L43.6559 30.8643L16.7032 57.8169C16.1634 58.3539 15.7351 58.9923 15.4428 59.6954C15.1505 60.3984 15 61.1523 15 61.9137C15 62.6752 15.1505 63.4291 15.4428 64.1321C15.7351 64.8352 16.1634 65.4736 16.7032 66.0106L55.9894 105.297C56.5264 105.837 57.1648 106.265 57.8679 106.557C58.5709 106.85 59.3248 107 60.0863 107C60.8477 107 61.6016 106.85 62.3046 106.557C63.0077 106.265 63.6461 105.837 64.1831 105.297L103.297 66.1831C103.837 65.6461 104.265 65.0077 104.557 64.3046C104.85 63.6016 105 62.8477 105 62.0862C105 61.3248 104.85 60.5709 104.557 59.8679C104.265 59.1648 103.837 58.5264 103.297 57.9894Z" fill="#FF522D" stroke="black" stroke-width="4" stroke-linecap="round" stroke-linejoin="round"/>
</svg>

