<svg width="120" height="120" viewBox="0 0 120 120" fill="none" xmlns="http://www.w3.org/2000/svg">
<rect width="120" height="120" rx="10" fill="#BE91CE"/>
<path d="M65.7611 43.2611L68.0852 45.5852C68.6925 46.1925 69.3756 46.7191 70.1175 47.1519L72.9922 48.8288C74.3131 49.5993 75.7932 50.0567 77.3185 50.1656L80.3003 50.3786C81.4253 50.459 82.5558 50.3484 83.644 50.0516L84.9379 49.6987C86.6169 49.2409 88.1473 48.3527 89.3778 47.1222L92.34 44.16C93.0234 43.4766 92.4361 42.3175 91.4809 42.4645L88.7558 42.8837C88.2527 42.9611 87.7443 43 87.2353 43H82L79.9846 42.7481C78.6745 42.5843 77.4098 42.1628 76.2635 41.5077L75.325 40.9715C74.7763 40.6579 74.2584 40.2929 73.7785 39.8816L72.3151 38.6273C71.4449 37.8813 70.7093 36.9913 70.1406 35.9961L69.6844 35.1977C69.2303 34.403 68.8874 33.5497 68.6654 32.6617L68 30L66.6036 24.4145C66.385 23.5402 65.2123 23.3784 64.7652 24.1609L63.1156 27.0476C62.3811 28.3332 61.9411 29.7658 61.8275 31.242L61.6996 32.9053C61.5687 34.6068 61.8754 36.3134 62.5905 37.8628L63.7526 40.3806C64.247 41.4518 64.927 42.427 65.7611 43.2611Z" fill="#4C91E2"/>
<path d="M65.7611 43.2611L68.0852 45.5852C68.6925 46.1925 69.3756 46.7191 70.1175 47.1519L72.9922 48.8288C74.3131 49.5993 75.7932 50.0567 77.3185 50.1656L80.3003 50.3786C81.4253 50.459 82.5558 50.3484 83.644 50.0516L84.9379 49.6987C86.6169 49.2409 88.1473 48.3527 89.3778 47.1222L92.34 44.16C93.0234 43.4766 92.4361 42.3175 91.4809 42.4645L88.7558 42.8837C88.2527 42.9611 87.7443 43 87.2353 43H82L79.9846 42.7481C78.6745 42.5843 77.4098 42.1628 76.2635 41.5077L75.325 40.9715C74.7763 40.6579 74.2584 40.2929 73.7785 39.8816L72.3151 38.6273C71.4449 37.8813 70.7093 36.9913 70.1406 35.9961L69.6844 35.1977C69.2303 34.403 68.8874 33.5497 68.6654 32.6617L68 30L66.6036 24.4145C66.385 23.5402 65.2123 23.3784 64.7652 24.1609L63.1156 27.0476C62.3811 28.3332 61.9411 29.7658 61.8275 31.242L61.6996 32.9053C61.5687 34.6068 61.8754 36.3134 62.5905 37.8628L63.7526 40.3806C64.247 41.4518 64.927 42.427 65.7611 43.2611Z" stroke="black" stroke-width="4"/>
<path d="M49.998 60.3401L54.9273 65.2694C55.5346 65.8767 56.2177 66.4033 56.9596 66.8361L63.308 70.5393C64.6289 71.3099 66.1089 71.7672 67.6343 71.8761L74.6687 72.3786C75.7938 72.459 76.9243 72.3484 78.0124 72.0516L82.4906 70.8303C84.1695 70.3724 85.6999 69.4843 86.9305 68.2538L93.9453 61.2389C94.6287 60.5555 94.0414 59.3965 93.0861 59.5434L86.5979 60.5416C86.0948 60.619 85.5864 60.6579 85.0774 60.6579H76.3684L72.0372 60.1165C70.7271 59.9527 69.4625 59.5312 68.3161 58.8761L65.3514 57.182C64.8026 56.8684 64.2847 56.5035 63.8048 56.0921L60.3151 53.1009C59.4449 52.355 58.7093 51.465 58.1406 50.4698L56.5265 47.6451C56.0724 46.8504 55.7295 45.9971 55.5075 45.1091L54.2632 40.1316L51.7089 29.9145C51.4903 29.0402 50.3176 28.8784 49.8705 29.6608L45.9051 36.6002C45.1705 37.8858 44.7306 39.3184 44.617 40.7947L44.1996 46.2211C44.0687 47.9226 44.3754 49.6292 45.0905 51.1786L47.9894 57.4596C48.4838 58.5307 49.1638 59.5059 49.998 60.3401Z" fill="#4C91E2"/>
<path d="M49.7654 30.1293L46.1663 37.1925C45.7245 38.0595 45.4116 38.9864 45.2375 39.9438L44.5 44V47.5323C44.5 48.5056 44.6421 49.4736 44.9217 50.4058L46 54L48.2613 58.1964C48.5775 58.7833 48.9517 59.3371 49.3781 59.8495L52 63L55.8421 66.1842L60 69L63.8162 70.9459C64.8089 71.4521 65.8793 71.7888 66.9831 71.9421L71 72.5H75.3012C76.0107 72.5 76.7181 72.4245 77.4116 72.2748L81 71.5L84.3215 70.0238C85.1039 69.676 85.8385 69.2292 86.5071 68.6944L90.5 65.5L94.305 61.1412C94.9182 60.4388 94.3212 59.3534 93.3996 59.4952L86.5979 60.5416C86.0948 60.619 85.5864 60.6579 85.0774 60.6579H76.3684L72.0372 60.1165C70.7271 59.9527 69.4625 59.5312 68.3161 58.8761L65.3514 57.182C64.8026 56.8684 64.2847 56.5035 63.8048 56.0921L60.3151 53.1009C59.4449 52.355 58.7093 51.465 58.1406 50.4698L56.1999 47.0735C55.9617 46.6566 55.7538 46.2231 55.5778 45.7763L53.8547 41.4006C53.6188 40.8016 53.4413 40.1812 53.3246 39.5481L51.6399 30.4022C51.4667 29.462 50.1995 29.2776 49.7654 30.1293Z" stroke="black" stroke-width="4"/>
<path d="M30.5769 78.8664L37.8746 86.1641C38.482 86.7715 39.1651 87.298 39.907 87.7308L49.4133 93.2762C50.7342 94.0467 52.2142 94.504 53.7395 94.613L64.4582 95.3786C65.5832 95.459 66.7137 95.3484 67.8019 95.0516L75.1748 93.0409C76.8537 92.583 78.3841 91.6948 79.6147 90.4643L90.3137 79.7652C90.9971 79.0818 90.4098 77.9228 89.4546 78.0697L79.5453 79.5942C79.0422 79.6717 78.5338 79.7105 78.0247 79.7105H66.1579L59.7214 78.906C58.4113 78.7422 57.1467 78.3207 56.0004 77.6656L51.1935 74.9188C50.6447 74.6052 50.1268 74.2403 49.6469 73.829L44.3151 69.2588C43.4449 68.5129 42.7093 67.6229 42.1406 66.6277L39.4739 61.9609C39.0198 61.1662 38.6769 60.3129 38.4549 59.4249L36.6842 52.3421L33.0773 37.9145C32.8587 37.0402 31.686 36.8784 31.2389 37.6609L25.1683 48.2845C24.4337 49.57 23.9937 51.0026 23.8802 52.4789L23.1996 61.3264C23.0687 63.0278 23.3754 64.7345 24.0905 66.2839L28.5684 75.9859C29.0628 77.057 29.7427 78.0322 30.5769 78.8664Z" fill="#4C91E2"/>
<path d="M89.9054 78.6783L80.2246 80.8383C79.7422 80.946 79.2525 81.0177 78.7594 81.0529L72.5 81.5L65.5 81L60.797 80.2162C59.936 80.0727 59.0976 79.8171 58.303 79.4559L54 77.5L50.3684 74.9474L46.5 72L43.5723 69.1823C43.1914 68.8157 42.8401 68.4195 42.5218 67.9974L38.7294 62.9674C38.2449 62.3248 37.8397 61.6261 37.5227 60.8864L35.4555 56.0627C35.1528 55.3566 34.9326 54.6179 34.7991 53.8614L33.5 46.5L32.734 38.6635C32.644 37.7428 31.4595 37.4274 30.9236 38.1816L27.5 43L24.5403 49.6423C24.2164 50.3694 23.9804 51.1326 23.8373 51.9156L23 56.5V62.7071C23 63.8415 23.193 64.9676 23.5707 66.0372L25.5 71.5L28.8362 77.2751C29.1552 77.8273 29.5263 78.3477 29.9444 78.8292L34 83.5L38.5 87.5L44.5 92L50.5061 94.5577C51.1146 94.8169 51.7472 95.015 52.3948 95.1492L56.5 96L62 96.5H66L72.5 95.5L77.7368 92.8421L83 89.5L87.5 85L90.9342 80.2393C91.4723 79.4935 90.803 78.478 89.9054 78.6783Z" stroke="black" stroke-width="4"/>
</svg>

