<svg width="120" height="120" viewBox="0 0 120 120" fill="none" xmlns="http://www.w3.org/2000/svg">
<rect width="120" height="120" rx="10" fill="#BE91CE"/>
<path d="M88.7491 29H28.0976C27.5086 29 27.0472 29.5064 27.1019 30.0928L32.561 88.654C32.5972 89.0428 32.8564 89.3749 33.2247 89.5045L59.8552 98.8745C60.0849 98.9553 60.3362 98.9496 60.5619 98.8583L83.6618 89.5201C84.0085 89.3799 84.248 89.0581 84.2827 88.6858L89.7448 30.0928C89.7994 29.5064 89.338 29 88.7491 29Z" fill="#FB7D36" stroke="black" stroke-width="4" stroke-linecap="round"/>
<path d="M77.0769 44.0771H41.0653C40.4605 44.0771 39.9941 44.6098 40.0741 45.2093L41.9612 59.3631C42.0275 59.8599 42.4513 60.231 42.9525 60.231H72.7253C73.3226 60.231 73.7867 60.7511 73.7189 61.3445L71.7595 78.4892C71.7181 78.8518 71.4824 79.163 71.1446 79.3012L60.1893 83.7829C59.9679 83.8735 59.7214 83.8817 59.4944 83.806L45.8398 79.2545C45.5093 79.1443 45.2599 78.8701 45.1816 78.5306L43.6923 72.0771" stroke="black" stroke-width="4" stroke-linecap="round"/>
</svg>

