<svg width="120" height="120" viewBox="0 0 120 120" fill="none" xmlns="http://www.w3.org/2000/svg">
<rect width="120" height="120" rx="10" fill="#BE91CE"/>
<path d="M33.1314 87.7813L28.0219 28.5112H89.3358L84.2263 87.7813L59.7007 97.4893L33.1314 87.7813Z" fill="#FBDB36" stroke="black"/>
<path d="M88.7492 28H28.0976C27.5086 28 27.0472 28.5064 27.1019 29.0928L32.561 87.6541C32.5972 88.0429 32.8564 88.375 33.2248 88.5046L59.8553 97.8746C60.085 97.9554 60.3362 97.9496 60.562 97.8584L83.6619 88.5201C84.0086 88.38 84.2481 88.0581 84.2828 87.6858L89.7448 29.0928C89.7995 28.5064 89.3381 28 88.7492 28Z" fill="#FBDB36"/>
<path d="M38.7518 43.3285H55.1241C55.6764 43.3285 56.1241 43.7762 56.1241 44.3285V79.3811C56.1241 80.0209 55.5317 80.4961 54.9072 80.3573L47.5198 78.7157C47.1556 78.6347 46.8667 78.3577 46.7705 77.9972L44.8832 70.9197M33.2248 88.5046L59.8553 97.8746C60.085 97.9554 60.3362 97.9496 60.562 97.8584L83.6619 88.5201C84.0086 88.38 84.2481 88.0581 84.2828 87.6858L89.7448 29.0928C89.7995 28.5064 89.3381 28 88.7492 28H28.0976C27.5086 28 27.0472 28.5064 27.1019 29.0928L32.561 87.6541C32.5972 88.0429 32.8564 88.375 33.2248 88.5046Z" stroke="black" stroke-width="4" stroke-linecap="round"/>
<path d="M77.073 49.4595L78.2952 44.5707C78.453 43.9395 77.9756 43.3281 77.3251 43.3281H64.7883C64.236 43.3281 63.7883 43.7758 63.7883 44.3281V60.2113C63.7883 60.7636 64.236 61.2113 64.7883 61.2113H73.8608C74.4746 61.2113 74.9436 61.7592 74.8488 62.3657L72.5613 77.0057C72.5074 77.3509 72.2772 77.6429 71.9541 77.776L63.7883 81.1383" stroke="black" stroke-width="4" stroke-linecap="round"/>
</svg>

