<svg width="120" height="120" viewBox="0 0 120 120" fill="none" xmlns="http://www.w3.org/2000/svg">
<rect width="120" height="120" rx="10" fill="#BE91CE"/>
<path d="M82.5 26H37.5L30 29L26 35V48.5L24.5 52L19 60L25.5 67V83L29 90L37.5 94H82.5L90.5 88L92 82V69.5L94.5 63L100.5 59L94.5 54.5L92 49V36L89 29L82.5 26Z" fill="#BA92FB"/>
<path d="M80.9738 26H37.5262C34.6169 26 31.8152 27.1002 29.6832 29.0799C27.3345 31.2608 26 34.3212 26 37.5262V47.1393C26 48.6918 25.6385 50.2229 24.9443 51.6115L24.519 52.4619C24.1742 53.1517 23.7507 53.7992 23.257 54.3916L22.4285 55.3858C21.8127 56.1247 21.0936 56.771 20.2933 57.3045L17 59.5L19.3758 60.5559C20.7732 61.177 22.0092 62.111 22.9882 63.2858C23.6585 64.0903 24.1981 64.9952 24.587 65.9675L25.2848 67.7119C25.7572 68.8931 26 70.1536 26 71.4258V81.1849C26 84.289 27.1267 87.2876 29.1707 89.6237C31.6042 92.4048 35.1197 94 38.8151 94H79.6849C83.3803 94 86.8958 92.4048 89.3293 89.6237C91.3733 87.2876 92.5 84.289 92.5 81.1849V71.4258C92.5 70.1536 92.7428 68.8931 93.2152 67.7119L93.913 65.9675C94.3019 64.9952 94.8415 64.0903 95.5118 63.2858C96.4908 62.111 97.7268 61.177 99.1242 60.5559L101.5 59.5L98.2067 57.3045C97.4064 56.771 96.6873 56.1247 96.0715 55.3858L95.243 54.3916C94.7493 53.7992 94.3258 53.1517 93.981 52.4619L93.5557 51.6115C92.8615 50.2229 92.5 48.6918 92.5 47.1393V37.5262C92.5 34.3212 91.1655 31.2608 88.8168 29.0799C86.6848 27.1002 83.8831 26 80.9738 26Z" fill="#BA92FB"/>
<path d="M49.5 59.5H63.5M63.5 59.5L65.588 57.7103C66.5199 56.9115 67.2828 55.9345 67.8317 54.8366L67.8861 54.7277C68.2927 53.9146 68.5655 53.0412 68.6941 52.1411L68.7402 51.8188C68.9106 50.6255 68.7782 49.4084 68.3549 48.2797V48.2797C67.8005 46.8012 66.7744 45.5465 65.4353 44.7096L65.3336 44.646C64.1353 43.8971 62.7508 43.5 61.3378 43.5H49.5V60.25V77H62.1536C63.6932 77 65.2082 76.6137 66.5599 75.8764L66.7801 75.7563C68.8373 74.6342 70.3485 72.7223 70.965 70.4615V70.4615C71.3168 69.1716 71.3635 67.8174 71.1013 66.5063L70.8306 65.1529C70.615 64.0751 70.0853 63.0853 69.308 62.308V62.308C68.7749 61.7749 68.139 61.3556 67.439 61.0756L63.5 59.5ZM101.5 59.5L98.2067 57.3045C97.4064 56.771 96.6873 56.1247 96.0715 55.3858L95.243 54.3916C94.7493 53.7992 94.3258 53.1517 93.981 52.4619L93.5557 51.6115C92.8615 50.2229 92.5 48.6918 92.5 47.1393V37.5262C92.5 34.3212 91.1655 31.2608 88.8168 29.0799V29.0799C86.6848 27.1002 83.8831 26 80.9738 26H37.5262C34.6169 26 31.8152 27.1002 29.6832 29.0799V29.0799C27.3345 31.2608 26 34.3212 26 37.5262V47.1393C26 48.6918 25.6385 50.2229 24.9443 51.6115L24.519 52.4619C24.1742 53.1517 23.7507 53.7992 23.257 54.3916L22.4285 55.3858C21.8127 56.1247 21.0936 56.771 20.2933 57.3045L17 59.5L19.3758 60.5559C20.7732 61.177 22.0092 62.111 22.9882 63.2858V63.2858C23.6585 64.0903 24.1981 64.9952 24.587 65.9675L25.2848 67.7119C25.7572 68.8931 26 70.1536 26 71.4258V81.1849C26 84.289 27.1267 87.2876 29.1707 89.6237V89.6237C31.6042 92.4048 35.1197 94 38.8151 94H79.6849C83.3803 94 86.8958 92.4048 89.3293 89.6237V89.6237C91.3733 87.2876 92.5 84.289 92.5 81.1849V71.4258C92.5 70.1536 92.7428 68.8931 93.2152 67.7119L93.913 65.9675C94.3019 64.9952 94.8415 64.0903 95.5118 63.2858V63.2858C96.4908 62.111 97.7268 61.177 99.1242 60.5559L101.5 59.5Z" stroke="black" stroke-width="4" stroke-linecap="round" stroke-linejoin="round"/>
</svg>

