<svg width="120" height="120" viewBox="0 0 120 120" fill="none" xmlns="http://www.w3.org/2000/svg">
<rect width="120" height="120" rx="10" fill="#BE91CE"/>
<ellipse cx="59.4762" cy="61" rx="40.4762" ry="40" fill="#ED87D0"/>
<path d="M53.982 70.7091L53.5443 70.3607L51 71.2859L47 73.5716L45.2857 75.2859L44.2849 77.2876C44.1903 77.4767 44.1093 77.6723 44.0425 77.8729C42.7956 81.6134 46.6519 85.0176 50.2089 83.3165L52.1598 82.3834C53.2539 81.8601 54.1205 80.957 54.5983 79.8423L55.5714 77.5716L55.8379 75.1735C56.0277 73.4653 55.3268 71.7794 53.982 70.7091Z" fill="#ED87D0"/>
<path d="M54.554 55.1403L57.2857 57.0002L59.5306 57.6812C60.0013 57.824 60.4904 57.8966 60.9822 57.8966H64.5004L68.77 56.9778L72.1429 55.8574L74.9303 53.7621L77.2857 51.8574L78.9016 49.7227C79.4052 49.0574 79.7343 48.2767 79.8589 47.4517L80.1429 45.5716V44.2345C80.1429 43.2575 79.8567 42.302 79.3196 41.4859L79 41.0002L77.8105 39.9397C77.1651 39.3643 76.3815 38.9661 75.5362 38.784L73.0815 38.2552C72.7355 38.1807 72.3825 38.1431 72.0285 38.1431H69.1714C68.9042 38.1431 68.6376 38.1645 68.3739 38.2071L63.5259 38.9904C63.2316 39.0379 62.9422 39.1117 62.6611 39.2108L57.8711 40.8994L53.4589 43.038C53.2415 43.1434 53.0321 43.2644 52.8322 43.4L48.3937 46.412L45.3993 48.9001C45.1846 49.0786 44.9852 49.2747 44.8032 49.4864L43.4665 51.0415C42.9671 51.6224 42.6078 52.3104 42.4165 53.0522L41.735 55.695C41.4446 56.8211 41.5558 58.0132 42.0495 59.0662L42.6607 60.3697C43.3148 61.7646 44.2823 62.9896 45.4878 63.9489L53.982 70.7091C55.3268 71.7794 56.0277 73.4653 55.8379 75.1735L55.5714 77.5716L54.5983 79.8423C54.1205 80.957 53.2539 81.8601 52.1598 82.3834L50.2089 83.3165C46.6519 85.0176 42.7956 81.6134 44.0425 77.8729V77.8729C44.1093 77.6723 44.1903 77.4767 44.2849 77.2876L45.2857 75.2859L47 73.5716L51 71.2859L57.2857 69.0002L60.9304 68.5446C61.5429 68.4681 62.1644 68.5056 62.7632 68.6553L64.1429 69.0002L64.9791 69.8405" stroke="black" stroke-width="4" stroke-linecap="round"/>
<path d="M97.9524 61C97.9524 81.9646 80.7484 99 59.4762 99C38.204 99 21 81.9646 21 61C21 40.0354 38.204 23 59.4762 23C80.7484 23 97.9524 40.0354 97.9524 61Z" stroke="black" stroke-width="4"/>
</svg>
