<svg width="120" height="120" viewBox="0 0 120 120" fill="none" xmlns="http://www.w3.org/2000/svg">
<rect width="120" height="120" rx="10" fill="#BE91CE"/>
<path d="M27.6696 38.7763L58.0142 21.97C59.6014 21.0909 61.5404 21.1407 63.0804 22.1001L91.5385 39.8281C93.0039 40.741 93.8947 42.3454 93.8947 44.072V78.9277C93.8947 80.6543 93.0039 82.2587 91.5385 83.1716L63.1472 100.858C61.5718 101.839 59.5824 101.867 57.98 100.931L27.5686 83.1516C26.0349 82.2549 25.0921 80.6117 25.0921 78.8351V43.1502C25.0921 41.332 26.0791 39.6572 27.6696 38.7763Z" fill="#B0E2F1"/>
<path d="M86.25 45.1184L73.1447 53.0362M86.25 45.1184L73.1447 37.4737M86.25 45.1184V61.227M60.0395 92.625L73.1447 84.9803M60.0395 92.625V76.7895M60.0395 92.625L46.6612 84.9803M33.2829 45.1184L46.6612 37.4737M33.2829 45.1184L46.6612 53.0362M33.2829 45.1184V61.227M60.0395 60.9539L73.1447 53.0362M60.0395 60.9539L46.6612 53.0362M60.0395 60.9539V76.7895M46.6612 37.4737L57.533 31.2612C59.084 30.3749 60.99 30.3834 62.5331 31.2835L73.1447 37.4737M46.6612 37.4737L73.1447 53.0362M73.1447 53.0362V84.9803M73.1447 37.4737L46.6612 53.0362M46.6612 53.0362V84.9803M73.1447 84.9803L83.7694 78.7826C85.3054 77.8865 86.25 76.242 86.25 74.4637V61.227M60.0395 76.7895L86.25 61.227M60.0395 76.7895L33.2829 61.227M33.2829 61.227V74.4339C33.2829 76.2282 34.2443 77.8849 35.8022 78.7751L46.6612 84.9803M94.4408 43.5733V79.4267C94.4408 81.1789 93.5236 82.8032 92.0233 83.7082L62.5629 101.478C61.0058 102.417 59.0615 102.437 57.4856 101.53L26.5052 83.6924C24.9553 82.8 24 81.1477 24 79.3593V43.6407C24 41.8523 24.9553 40.2 26.5052 39.3076L57.4856 21.4704C59.0615 20.5631 61.0058 20.5828 62.5629 21.5221L92.0233 39.2918C93.5236 40.1968 94.4408 41.8211 94.4408 43.5733Z" stroke="black" stroke-width="4"/>
</svg>

