<svg width="120" height="120" viewBox="0 0 120 120" fill="none" xmlns="http://www.w3.org/2000/svg">
<rect width="120" height="120" rx="10" fill="#BE91CE"/>
<circle opacity="0.85" cx="59" cy="60" r="38" fill="white" stroke="black" stroke-width="4"/>
<path d="M36.0667 59.5504H57.9393L57.7622 56.5393C57.6814 55.1653 57.3187 53.8147 56.7031 52.5836C55.9445 51.0664 54.8112 49.7559 53.4166 48.7903C52.2501 47.9828 50.9265 47.4302 49.532 47.1688L49.372 47.1388C47.7155 46.8282 46.007 46.9083 44.3866 47.3713C43.2434 47.6979 42.1598 48.2102 41.1823 48.887L40.7907 49.1581C39.458 50.0807 38.3627 51.3056 37.5943 52.7327C36.9809 53.8718 36.5883 55.1166 36.4371 56.4015L36.0667 59.5504Z" fill="white"/>
<path d="M62.7333 46.6665L82.5086 72.4343M62.1341 72.4343L81.9094 46.6665M57.9393 65.2433L57.3401 66.7414L57.2257 67.0274C56.9039 67.832 56.4775 68.5907 55.9575 69.2839L55.8455 69.4333C55.2482 70.2297 54.5199 70.9186 53.6917 71.4708V71.4708C52.7374 72.107 51.6678 72.55 50.5432 72.7749L50.1061 72.8624C48.5549 73.1726 46.9551 73.1456 45.4152 72.7833L44.6823 72.6109C43.345 72.2962 42.0786 71.7332 40.949 70.9512V70.9512C39.5126 69.9568 38.3328 68.6307 37.5106 67.0893V67.0893C36.7578 65.6778 36.3203 64.1162 36.2316 62.5189L36.0667 59.5504M36.0667 59.5504H57.9393L57.7622 56.5393C57.6814 55.1653 57.3187 53.8147 56.7031 52.5836V52.5836C55.9445 51.0664 54.8112 49.7559 53.4166 48.7903V48.7903C52.2501 47.9828 50.9265 47.4302 49.532 47.1688L49.372 47.1388C47.7155 46.8282 46.007 46.9083 44.3866 47.3713V47.3713C43.2434 47.6979 42.1598 48.2102 41.1823 48.887L40.7907 49.1581C39.458 50.0807 38.3627 51.3056 37.5943 52.7327V52.7327C36.9809 53.8718 36.5883 55.1166 36.4371 56.4015L36.0667 59.5504Z" stroke="black" stroke-width="4" stroke-linecap="round" stroke-linejoin="round"/>
</svg>

