<svg width="120" height="120" viewBox="0 0 120 120" fill="none" xmlns="http://www.w3.org/2000/svg">
<circle cx="60" cy="60" r="59" stroke="#8DD126" stroke-width="2"/>
<path d="M98.486 56.4351L63.5649 21.514C63.0876 21.0342 62.5202 20.6534 61.8952 20.3936C61.2703 20.1338 60.6001 20 59.9233 20C59.2465 20 58.5764 20.1338 57.9514 20.3936C57.3265 20.6534 56.7591 21.0342 56.2817 21.514L49.0369 28.7589L58.2367 37.9587C59.3189 37.5996 60.4797 37.5492 61.5889 37.8133C62.6981 38.0774 63.7117 38.6454 64.516 39.4537C65.3202 40.2619 65.8833 41.2783 66.1419 42.3888C66.4004 43.4993 66.3444 44.6599 65.9799 45.7402L74.8348 54.6334C76.162 54.1798 77.6045 54.1947 78.9221 54.6758C80.2396 55.1569 81.3524 56.075 82.075 57.2771C82.7977 58.4792 83.0864 59.8927 82.8932 61.2819C82.7 62.6711 82.0365 63.9521 81.0132 64.9114C79.99 65.8707 78.6689 66.4503 77.2701 66.5536C75.8713 66.6568 74.4794 66.2776 73.3263 65.479C72.1733 64.6804 71.3288 63.5107 70.9337 62.1649C70.5385 60.8191 70.6166 59.3786 71.1548 58.0834L62.875 49.8035V71.5765C64.1324 72.1999 65.138 73.2356 65.7239 74.511C66.3099 75.7863 66.4407 77.224 66.0945 78.5841C65.7484 79.9442 64.9463 81.1445 63.822 81.9846C62.6977 82.8247 61.3193 83.2538 59.9169 83.2003C58.5144 83.1467 57.1727 82.6138 56.1157 81.6905C55.0588 80.7671 54.3504 79.5092 54.109 78.1266C53.8675 76.7441 54.1076 75.3205 54.789 74.0936C55.4704 72.8666 56.5521 71.9105 57.8534 71.3848V49.4585C57.106 49.1489 56.4282 48.6927 55.8601 48.1169C55.0019 47.2542 54.4197 46.1556 54.1876 44.9611C53.9555 43.7665 54.084 42.53 54.5568 41.4087L45.4719 32.3238L21.514 56.2817C21.0342 56.7591 20.6534 57.3265 20.3936 57.9514C20.1338 58.5764 20 59.2465 20 59.9233C20 60.6001 20.1338 61.2703 20.3936 61.8952C20.6534 62.5202 21.0342 63.0876 21.514 63.5649L56.4351 98.486C56.9124 98.9658 57.4798 99.3466 58.1048 99.6064C58.7297 99.8662 59.3999 100 60.0767 100C60.7535 100 61.4236 99.8662 62.0486 99.6064C62.6735 99.3466 63.241 98.9658 63.7183 98.486L98.486 63.7183C98.9658 63.241 99.3466 62.6735 99.6064 62.0486C99.8662 61.4236 100 60.7535 100 60.0767C100 59.3999 99.8662 58.7297 99.6064 58.1048C99.3466 57.4798 98.9658 56.9124 98.486 56.4351Z" stroke="#8DD126" stroke-width="3" stroke-linecap="round" stroke-linejoin="round"/>
</svg>

