<svg width="221" height="153" viewBox="0 0 221 153" fill="none" xmlns="http://www.w3.org/2000/svg">
<circle cx="109.211" cy="88" r="64" stroke="#8DD126" stroke-width="2"/>
<circle cx="140.5" cy="7.5" r="7" stroke="#8DD126"/>
<path fill-rule="evenodd" clip-rule="evenodd" d="M137.888 132.921L138.683 136.841L105.076 143.65C103.162 144.038 101.198 143.276 100.046 141.7L57.938 84.09C56.2004 81.7126 56.8832 78.3559 59.4116 76.8464L122.666 39.0822C125.194 37.5727 128.473 38.5642 129.742 41.2218L160.49 105.651C161.295 107.338 161.092 109.334 159.963 110.824L156.774 108.408C157 108.11 157.041 107.711 156.88 107.374L126.132 42.9446C125.878 42.4131 125.222 42.2148 124.716 42.5167L61.4621 80.2809C60.9564 80.5828 60.8198 81.2542 61.1674 81.7296L103.276 139.34C103.506 139.655 103.899 139.807 104.282 139.73L137.888 132.921ZM137.888 132.921L138.683 136.841C139.876 136.599 140.94 135.93 141.675 134.96L159.963 110.824L156.774 108.408L138.487 132.544C138.34 132.738 138.127 132.872 137.888 132.921ZM82.387 90.6116C81.2592 89.1903 81.6414 87.101 83.1992 86.1709L120.728 63.7657C121.676 63.1995 122.904 63.5093 123.47 64.4577C124.036 65.4061 123.726 66.6339 122.778 67.2002L86.2304 89.0199L95.9504 101.269L126.413 83.0825C127.951 82.164 129.946 82.7901 130.684 84.4229L139.409 103.729C139.859 104.726 139.731 105.891 139.073 106.766L130.372 118.35C129.941 118.923 129.319 119.324 128.618 119.478L111.46 123.251C110.439 123.476 109.375 123.153 108.652 122.399L103.034 116.548C102.269 115.751 102.295 114.485 103.092 113.72C103.888 112.955 105.155 112.981 105.92 113.777L111.149 119.224L127.397 115.651L135.52 104.837L127.501 87.0915L97.2491 105.152C95.958 105.923 94.2959 105.619 93.3612 104.441L82.387 90.6116ZM127.174 115.947C127.174 115.947 127.175 115.946 127.175 115.946Z" fill="#8DD126"/>
<path d="M219.296 32.3561C226.204 46.1605 182.877 81.8349 122.523 112.037C62.1687 142.239 7.64203 155.533 0.73407 141.728C-3.86269 132.542 13.4544 113.697 43.5605 93.2C43.6691 94.5829 43.8785 96.3806 44.2105 98.4C44.7598 101.742 45.2171 103.597 46.1605 106.85C46.8313 109.163 48.1105 112.7 48.1105 112.7C47.2554 114.846 47.6485 116.376 48.3991 117.876C52.7366 126.544 83.8392 119.766 117.869 102.737C151.898 85.7078 175.968 64.8764 171.631 56.2085C170.684 54.317 168.463 53.161 165.215 52.6866C164.611 51.8075 162.041 48.0887 160.145 45.7273C159.957 45.493 159.78 45.2713 159.611 45.0594C158.462 43.6215 157.673 42.6343 156.245 41.1773C155.344 40.2574 154.119 39.1792 153.084 38.3032C188.28 26.0657 214.633 23.0393 219.296 32.3561Z" fill="url(#paint0_linear_7_24)" fill-opacity="0.8"/>
<defs>
<linearGradient id="paint0_linear_7_24" x1="40.9605" y1="42.5" x2="529.11" y2="115.3" gradientUnits="userSpaceOnUse">
<stop stop-color="#8DD126" stop-opacity="0.35"/>
<stop offset="1"/>
</linearGradient>
</defs>
</svg>

