<svg width="100" height="100" viewBox="0 0 100 100" fill="none" xmlns="http://www.w3.org/2000/svg">
<g opacity="0.7">
<path opacity="0.1" d="M47.1469 22.8858C48.045 20.1218 51.9552 20.1218 52.8532 22.8858L57.3856 36.8348C57.7872 38.0709 58.939 38.9078 60.2387 38.9078H74.9056C77.8118 38.9078 79.0201 42.6266 76.669 44.3348L64.8032 52.9558C63.7517 53.7197 63.3118 55.0738 63.7134 56.3099L68.2457 70.2589C69.1438 73.0229 65.9803 75.3212 63.6292 73.613L51.7634 64.9921C50.712 64.2281 49.2882 64.2281 48.2367 64.9921L36.3709 73.613C34.0198 75.3213 30.8564 73.0229 31.7544 70.2589L36.2867 56.3099C36.6884 55.0738 36.2484 53.7197 35.1969 52.9558L23.3312 44.3348C20.98 42.6266 22.1883 38.9078 25.0945 38.9078H39.7614C41.0611 38.9078 42.213 38.0709 42.6146 36.8348L47.1469 22.8858Z" fill="#B65AEF"/>
<path opacity="0.1" d="M32.0934 29.4408C31.2414 26.6623 34.4426 24.4168 36.765 26.1639L48.486 34.9808C49.5246 35.7621 50.9482 35.7857 52.0122 35.0394L64.0195 26.6167C66.3987 24.9478 69.5235 27.2984 68.5797 30.047L63.8163 43.9189C63.3942 45.1481 63.8116 46.5093 64.8502 47.2906L76.5711 56.1075C78.8935 57.8546 77.6236 61.5528 74.7178 61.5045L60.053 61.2609C58.7535 61.2393 57.5878 62.0569 57.1658 63.2861L52.4023 77.158C51.4585 79.9066 47.5488 79.8416 46.6968 77.0632L42.3968 63.0408C42.0158 61.7982 40.878 60.9423 39.5785 60.9207L24.9136 60.677C22.0078 60.6287 20.8615 56.8903 23.2407 55.2214L35.248 46.7988C36.312 46.0524 36.7744 44.7058 36.3934 43.4632L32.0934 29.4408Z" fill="#B65AEF"/>
</g>
</svg>

