<svg width="139" height="151" viewBox="0 0 139 151" fill="none" xmlns="http://www.w3.org/2000/svg">
<path d="M35 39H100.573C102.388 39 103.787 40.598 103.547 42.3965L100 69M100 69L95.7015 102.911C95.5756 103.904 94.9625 104.769 94.0669 105.217L73.7409 115.38C72.9537 115.773 72.0333 115.801 71.2236 115.456L46.823 105.064C45.9866 104.707 45.3568 103.991 45.1107 103.116L41 88.5M100 69H38M17.7994 127.637L71.4343 146.623C72.1212 146.866 72.8731 146.851 73.5496 146.58L120.821 127.672C121.854 127.259 122.573 126.308 122.69 125.202L135.15 7.31532C135.337 5.54358 133.948 4 132.166 4H7.30693C5.53495 4 4.14904 5.52769 4.3211 7.29129L15.8147 125.1C15.9277 126.259 16.7015 127.248 17.7994 127.637Z" stroke="#8DD126" stroke-width="7" stroke-linecap="round"/>
</svg>
