<svg width="139" height="151" viewBox="0 0 139 151" fill="none" xmlns="http://www.w3.org/2000/svg">
<path d="M104 39H38.377C36.58 39 35.1862 40.569 35.3979 42.3535L38.186 65.8535C38.3651 67.363 39.645 68.5 41.1651 68.5H95.2396C96.9947 68.5 98.375 70.0001 98.2292 71.7491L95.64 102.82C95.5531 103.863 94.9285 104.786 93.992 105.254L73.7409 115.38C72.9537 115.773 72.0333 115.801 71.2236 115.456L46.823 105.064C45.9866 104.707 45.3568 103.991 45.1107 103.116L41 88.5M17.7994 127.637L71.4343 146.623C72.1212 146.866 72.8731 146.851 73.5496 146.58L120.821 127.672C121.854 127.259 122.573 126.308 122.69 125.202L135.15 7.31532C135.337 5.54358 133.948 4 132.166 4H7.30693C5.53495 4 4.14904 5.52769 4.3211 7.29129L15.8147 125.1C15.9277 126.259 16.7015 127.248 17.7994 127.637Z" stroke="#8DD126" stroke-width="7" stroke-linecap="round"/>
</svg>
