<svg width="160" height="170" viewBox="0 0 160 170" fill="none" xmlns="http://www.w3.org/2000/svg">
<path d="M104.313 71.1274C115.049 90.0064 121.658 108.682 123.758 123.528C124.81 130.962 124.704 137.25 123.555 142.056C122.408 146.855 120.319 149.837 117.65 151.355C114.981 152.872 111.35 153.143 106.639 151.676C101.921 150.206 96.4634 147.082 90.6123 142.377C78.9274 132.982 66.2561 117.753 55.5204 98.874C44.7846 79.9949 38.1756 61.3188 36.0755 46.4729C35.0239 39.039 35.1296 32.7511 36.2786 27.945C37.4258 23.1464 39.515 20.1643 42.184 18.6466C44.8529 17.1288 48.484 16.8581 53.1945 18.3256C57.9124 19.7955 63.3703 22.9196 69.2214 27.6242C80.9063 37.0196 93.5776 52.2484 104.313 71.1274Z" stroke="#8DD126" stroke-width="7"/>
<path d="M104.258 98.9704C93.4465 117.806 80.7144 132.984 68.9919 142.333C63.122 147.014 57.6516 150.116 52.9278 151.567C48.2115 153.016 44.5816 152.73 41.9187 151.202C39.2559 149.674 37.1786 146.683 36.0507 141.88C34.9209 137.069 34.8404 130.781 35.9218 123.351C38.0813 108.514 44.7651 89.8645 55.5763 71.0286C66.3876 52.1927 79.1197 37.0149 90.8422 27.6664C96.7121 22.9852 102.183 19.883 106.906 18.432C111.623 16.9834 115.253 17.2686 117.915 18.797C120.578 20.3255 122.655 23.3159 123.783 28.119C124.913 32.9298 124.994 39.218 123.912 46.6477C121.753 61.485 115.069 80.1345 104.258 98.9704Z" stroke="#8DD126" stroke-width="7"/>
<path d="M79.9922 113.064C58.2742 113.123 38.7632 109.688 24.8051 104.212C17.8158 101.471 12.3935 98.285 8.77455 94.9201C5.1613 91.5605 3.59292 88.2745 3.58467 85.2042C3.57643 82.1339 5.12714 78.8395 8.7223 75.4605C12.3231 72.0763 17.7282 68.8616 24.7027 66.0822C38.6312 60.5317 58.1235 56.9924 79.8415 56.9341C101.559 56.8758 121.07 60.3103 135.029 65.786C142.018 68.5278 147.44 71.7134 151.059 75.0783C154.672 78.4379 156.241 81.7239 156.249 84.7942C156.257 87.8645 154.706 91.1589 151.111 94.5379C147.511 97.9221 142.105 101.137 135.131 103.916C121.202 109.467 101.71 113.006 79.9922 113.064Z" stroke="#8DD126" stroke-width="7"/>
<circle cx="80.5073" cy="83.143" r="11.1723" stroke="#8DD126" stroke-width="7"/>
</svg>
