<svg width="194" height="158" viewBox="0 0 194 158" fill="none" xmlns="http://www.w3.org/2000/svg">
<path d="M75.6912 77.8971H106.574M106.574 77.8971L111.228 73.9078C113.252 72.1731 114.908 70.0512 116.1 67.667L116.249 67.37C117.146 65.5762 117.748 63.6496 118.031 61.6643L118.133 60.9532C118.509 58.3209 118.217 55.6362 117.283 53.1465V53.1465C116.06 49.885 113.796 47.1173 110.843 45.2711L110.618 45.1309C107.975 43.4789 104.921 42.6029 101.804 42.6029H75.6912V79.5515V116.5H103.68C107.026 116.5 110.319 115.66 113.257 114.058L113.809 113.757C118.347 111.281 121.68 107.064 123.041 102.077V102.077C123.817 99.2314 123.919 96.2443 123.341 93.3522L122.744 90.3668C122.268 87.9893 121.1 85.8057 119.385 84.0913V84.0913C118.209 82.9152 116.807 81.9903 115.262 81.3726L106.574 77.8971ZM190.397 77.8971L181.677 72.0839C180.877 71.5504 180.158 70.9042 179.542 70.1652L175.699 65.5534C175.205 64.961 174.782 64.3134 174.437 63.6237L171.6 57.9497C170.906 56.5611 170.544 55.03 170.544 53.4776V27.0596C170.544 21.4982 168.228 16.188 164.153 12.4038L160.858 9.34413C157.159 5.90906 152.297 4 147.249 4H47.1479C42.0997 4 37.2382 5.90906 33.5389 9.34413L30.2439 12.4038C26.1686 16.188 23.8529 21.4982 23.8529 27.0596V53.4776C23.8529 55.03 23.4915 56.5611 22.7972 57.9497L19.9602 63.6237C19.6153 64.3134 19.1918 64.961 18.6982 65.5534L14.8549 70.1652C14.2392 70.9042 13.52 71.5504 12.7197 72.0839L4 77.8971L11.7973 81.3625C13.198 81.985 14.4368 82.9212 15.4181 84.0988L18.427 87.7094C19.0989 88.5158 19.6397 89.4229 20.0295 90.3974L23.1377 98.1678C23.6102 99.349 23.8529 100.61 23.8529 101.882V128.838C23.8529 133.683 25.6113 138.362 28.8014 142.008L33.3179 147.17C37.1157 151.51 42.6022 154 48.3695 154H146.028C151.795 154 157.281 151.51 161.079 147.17L165.596 142.008C168.786 138.362 170.544 133.683 170.544 128.838V101.882C170.544 100.61 170.787 99.349 171.259 98.1678L174.368 90.3974C174.757 89.4228 175.298 88.5158 175.97 87.7094L178.979 84.0988C179.96 82.9212 181.199 81.985 182.6 81.3625L190.397 77.8971Z" stroke="#8DD126" stroke-width="7" stroke-linecap="round" stroke-linejoin="round"/>
</svg>
