<svg width="140" height="161" viewBox="0 0 140 161" fill="none" xmlns="http://www.w3.org/2000/svg">
<path d="M46.8455 54.6667L47.1762 124.279C47.1778 124.616 47.1453 124.952 47.0791 125.283L46.2654 129.352C46.1373 129.992 45.885 130.601 45.5228 131.144L44.4118 132.811C44.0457 133.36 43.5744 133.831 43.0251 134.198L41.3587 135.308C40.8153 135.671 40.2062 135.923 39.5658 136.051L36.1025 136.744C35.3766 136.889 34.6274 136.871 33.9092 136.692L31.1852 136.011C30.7776 135.909 30.3846 135.756 30.0153 135.556L6.61743 122.874C5.00461 122 4 120.313 4 118.478L4 46.1192C4 44.3829 4.90078 42.7709 6.37951 41.8609L66.9328 4.59736C68.5268 3.61639 70.5353 3.60789 72.1376 4.57532L133.901 41.8667C135.401 42.7719 136.317 44.3956 136.317 46.147L136.317 118.492C136.317 120.319 135.32 122.001 133.717 122.878L71.9479 156.676C70.4419 157.5 68.6185 157.494 67.1181 156.66L51.6071 148.036" stroke="#8DD126" stroke-width="7" stroke-linecap="round"/>
<path d="M113.633 62.2281L111.903 57.5276C111.57 56.6241 110.983 55.8358 110.214 55.2575L107.362 53.1152C106.523 52.4856 105.508 52.1353 104.46 52.114L84.8215 51.7148L71.8028 52.1056C70.9034 52.1326 70.0279 52.4018 69.2687 52.8848L65.483 55.2936C64.828 55.7103 64.2791 56.2739 63.8797 56.9396L61.4191 61.0406C60.9528 61.8176 60.7065 62.7068 60.7065 63.613L60.7065 68.5379C60.7065 70.7703 62.1864 72.7322 64.3329 73.3455L110.007 86.3953C112.153 87.0085 113.633 88.9705 113.633 91.2029L113.633 102.487C113.633 104.109 112.846 105.631 111.523 106.568L102.703 112.813C101.873 113.4 100.884 113.721 99.8673 113.732L84.6496 113.895L73.2476 113.738C72.138 113.723 71.065 113.339 70.1976 112.647L62.588 106.575C61.399 105.626 60.7065 104.188 60.7065 102.667L60.7065 98.7728" stroke="#8DD126" stroke-width="7" stroke-linecap="round"/>
</svg>
