<svg width="1317" height="855" viewBox="0 0 1317 855" fill="none" xmlns="http://www.w3.org/2000/svg">
<path d="M1183.23 76.0125C1171.81 58.9201 1106.22 79.0266 1000.72 131.96C895.211 184.893 758.328 266.373 619.83 358.683C481.332 450.993 352.417 546.669 261.117 624.906C169.817 703.144 123.514 757.618 132.277 776.482" stroke="#5A5A5A" stroke-opacity="0.3" stroke-width="2"/>
<path d="M1157.02 337.634C1154.27 322.597 1099.89 317.626 1005.71 323.802C911.524 329.978 785.149 346.802 654.062 370.615C522.974 394.428 397.775 423.305 305.688 450.967C213.6 478.629 162.07 502.839 162.301 518.333" stroke="#5A5A5A" stroke-opacity="0.3" stroke-width="2"/>
<path d="M919.108 251.304C913.69 243.197 881.283 253.598 828.931 280.247C776.58 306.897 708.519 347.639 639.547 393.615C570.574 439.591 506.268 487.083 460.61 525.766C414.953 564.448 391.636 591.192 395.729 600.182" stroke="#5A5A5A" stroke-opacity="0.3" stroke-width="2"/>
<circle cx="647.676" cy="454.676" r="115" transform="rotate(-10.2799 647.676 454.676)" stroke="#8DD126" stroke-width="3"/>
<path d="M599.861 435.4L632.731 427.088C633.931 426.785 635.162 427.497 635.48 428.679L654.129 497.992C654.498 499.361 653.484 500.704 652.048 500.75L636.566 501.246C635.728 501.273 634.941 500.839 634.525 500.12L626.982 487.102M680.439 428.037L680.294 417.901C680.273 416.463 678.884 415.417 677.471 415.774L652.536 422.08C651.337 422.383 650.622 423.587 650.94 424.769L659.35 456.027C659.668 457.209 660.898 457.921 662.098 457.618L680.062 453.075C681.396 452.738 682.73 453.653 682.873 455.003L686.058 484.99C686.139 485.759 685.808 486.51 685.182 486.972L670.58 497.766M612.97 528.003L671.535 533.025C672.08 533.072 672.623 532.921 673.06 532.602L714.537 502.354C715.209 501.864 715.544 501.043 715.405 500.228L695.14 381.271C694.921 379.986 693.627 379.155 692.347 379.479L570.344 410.331C569.065 410.654 568.354 411.992 568.811 413.216L611.038 526.547C611.341 527.359 612.095 527.928 612.97 528.003Z" stroke="#8DD126" stroke-width="7" stroke-linecap="round"/>
<path d="M918.97 251.097C921.728 255.225 917.49 263.969 906.505 276.814C895.519 289.658 878.007 306.345 855 325.892C831.992 345.439 803.952 367.452 772.529 390.638C741.106 413.823 706.934 437.712 672.021 460.901C637.109 484.089 602.162 506.109 569.234 525.666C536.306 545.223 506.062 561.921 480.281 574.78C454.499 587.639 433.7 596.398 419.106 600.543C404.513 604.688 396.419 604.136 395.302 598.917" stroke="#C6C6C6" stroke-opacity="0.3" stroke-width="2"/>
<circle cx="824" cy="279" r="42.5143" transform="rotate(-10.2799 824 279)" stroke="#8DD126"/>
<path d="M828.471 269.907L829.265 270.701C829.872 271.308 830.555 271.835 831.297 272.268L832.131 272.754C833.452 273.524 834.932 273.982 836.457 274.091L837.291 274.15C838.262 274.22 839.237 274.124 840.176 273.868C841.625 273.473 842.945 272.707 844.007 271.645L844.846 270.806C845.529 270.123 844.942 268.964 843.987 269.111L843.472 269.19C842.969 269.267 842.461 269.306 841.952 269.306L838.757 269.306L837.907 269.2C836.726 269.052 835.586 268.672 834.552 268.082C834.058 267.799 833.591 267.47 833.158 267.099L832.623 266.641C831.879 266.003 831.251 265.242 830.764 264.391C830.376 263.712 830.083 262.983 829.893 262.223L829.52 260.728L828.803 257.864C828.585 256.989 827.412 256.828 826.965 257.61L826.55 258.337C825.898 259.477 825.508 260.747 825.407 262.056C825.291 263.565 825.563 265.079 826.198 266.453L826.463 267.027C826.957 268.098 827.637 269.073 828.471 269.907Z" stroke="#8DD126" stroke-width="4"/>
<path d="M817.031 261.708L815.339 265.029C814.897 265.896 814.584 266.823 814.41 267.781L814.013 269.966L814.013 271.798C814.013 272.771 814.155 273.739 814.434 274.671L815.002 276.565L816.333 279.033C816.649 279.62 817.023 280.174 817.45 280.686L818.962 282.503L821.497 284.604L824.24 286.462L826.249 287.486C827.241 287.992 828.312 288.329 829.415 288.482L831.499 288.772L833.974 288.772C834.683 288.772 835.391 288.696 836.084 288.547L838.097 288.112L839.888 287.316C840.671 286.968 841.405 286.522 842.074 285.987L844.366 284.153L846.264 281.978C846.878 281.276 846.281 280.19 845.359 280.332L842.048 280.841C841.545 280.919 841.037 280.958 840.528 280.958L835.041 280.958L832.858 280.685C831.548 280.521 830.284 280.1 829.137 279.445L828.052 278.825C827.503 278.511 826.986 278.146 826.506 277.735L824.896 276.355C824.025 275.609 823.29 274.719 822.721 273.724L821.855 272.207C821.616 271.79 821.409 271.357 821.233 270.91L820.306 268.557C820.07 267.958 819.893 267.338 819.776 266.705L818.906 261.981C818.733 261.04 817.465 260.856 817.031 261.708Z" stroke="#8DD126" stroke-width="4"/>
<path d="M843.1 293.043L837.833 294.219C837.35 294.326 836.86 294.398 836.367 294.433L832.489 294.71L827.87 294.38L825.208 293.937C824.347 293.793 823.508 293.538 822.714 293.177L820.282 292.071L817.885 290.387L815.333 288.442L813.595 286.77C813.215 286.403 812.863 286.007 812.545 285.585L810.453 282.811C809.969 282.168 809.564 281.469 809.247 280.73L808.2 278.287C807.897 277.581 807.677 276.842 807.543 276.086L806.755 271.615L806.338 267.351C806.248 266.43 805.063 266.114 804.527 266.869L802.795 269.306L801.008 273.317C800.684 274.044 800.448 274.807 800.305 275.59L799.826 278.214L799.826 281.727C799.826 282.861 800.019 283.987 800.397 285.057L801.476 288.112L803.514 291.64C803.833 292.192 804.204 292.713 804.622 293.194L807.084 296.03L810.054 298.67L814.013 301.639L817.665 303.194C818.273 303.453 818.906 303.651 819.554 303.786L821.931 304.278L825.56 304.608L828.2 304.608L832.489 303.948L835.944 302.195L839.417 299.989L842.387 297.02L844.129 294.604C844.667 293.859 843.998 292.843 843.1 293.043Z" stroke="#8DD126" stroke-width="4"/>
<path d="M1156.97 337.332C1158.34 344.846 1146.45 354.708 1121.99 366.336C1097.53 377.964 1061 391.124 1014.54 405.042C968.08 418.961 912.634 433.357 851.46 447.384C790.287 461.411 724.62 474.786 658.321 486.723C592.023 498.66 526.43 508.917 465.4 516.892C404.369 524.867 349.133 530.398 302.939 533.161C256.745 535.924 220.526 535.862 196.41 532.98C172.294 530.098 160.769 524.453 162.511 516.377" stroke="#C6C6C6" stroke-opacity="0.3" stroke-width="2"/>
<circle cx="288" cy="528" r="56.0132" transform="rotate(-3.08615 288 528)" stroke="#8DD126" stroke-width="2"/>
<path d="M276.374 515.515L276.54 550.472C276.541 550.809 276.509 551.146 276.443 551.476L276.176 552.809C276.048 553.449 275.796 554.058 275.434 554.602L275.417 554.627C275.051 555.176 274.58 555.647 274.03 556.013L274.006 556.03C273.462 556.392 272.853 556.644 272.213 556.772L271.485 556.918C270.759 557.063 270.01 557.045 269.292 556.866L268.757 556.732C268.349 556.63 267.956 556.477 267.587 556.277L257.322 550.713C255.709 549.839 254.704 548.152 254.704 546.317L254.704 512.573C254.704 510.837 255.605 509.225 257.084 508.315L285.25 490.982C286.844 490.001 288.853 489.992 290.455 490.96L319.209 508.321C320.709 509.226 321.625 510.85 321.625 512.601L321.625 546.331C321.625 548.158 320.628 549.84 319.025 550.717L290.265 566.454C288.759 567.278 286.936 567.272 285.436 566.437L278.782 562.738" stroke="#8DD126" stroke-width="4" stroke-linecap="round"/>
<path d="M310.153 519.339L309.529 517.646C309.196 516.743 308.61 515.954 307.84 515.376L307.618 515.209C306.78 514.579 305.765 514.229 304.716 514.208L295.581 514.022L289.675 514.199C288.776 514.226 287.901 514.496 287.141 514.979L286.292 515.519C285.637 515.936 285.088 516.499 284.689 517.165L284.089 518.165C283.628 518.934 283.384 519.813 283.384 520.709V520.709C283.384 522.916 284.847 524.856 286.97 525.463L306.526 531.05C308.673 531.663 310.153 533.625 310.153 535.858L310.153 538.423C310.153 540.045 309.366 541.566 308.042 542.504L305.254 544.477C304.424 545.065 303.435 545.385 302.419 545.396L295.494 545.471L290.573 545.403C289.463 545.388 288.39 545.004 287.523 544.312L285.266 542.51C284.077 541.562 283.384 540.123 283.384 538.602L283.384 537.822" stroke="#8DD126" stroke-width="4" stroke-linecap="round"/>
<path d="M1183.61 76.5784C1189.41 85.2587 1181.16 103.202 1159.34 129.354C1137.53 155.505 1102.58 189.336 1056.56 228.859C1010.55 268.382 954.389 312.798 891.389 359.496C828.389 406.194 759.819 454.231 689.711 500.783C619.603 547.336 549.372 591.463 483.148 630.572C416.923 669.681 356.042 702.981 304.082 728.515C252.123 754.049 210.135 771.302 180.587 779.258C151.039 787.215 134.527 785.714 132.022 774.846" stroke="#C6C6C6" stroke-opacity="0.3" stroke-width="2"/>
<circle cx="1062" cy="221" r="63.5215" transform="rotate(-10.2799 1062 221)" stroke="#8DD126" stroke-width="2"/>
<path d="M1077 213.46C1083.34 224.612 1087.24 235.646 1088.49 244.421C1089.11 248.815 1089.05 252.536 1088.36 255.384C1087.68 258.228 1086.44 260.008 1084.85 260.916C1083.25 261.824 1081.08 261.981 1078.29 261.111C1075.5 260.24 1072.27 258.391 1068.81 255.61C1061.9 250.057 1054.42 241.059 1048.07 229.907C1041.73 218.756 1037.83 207.722 1036.59 198.946C1035.97 194.553 1036.03 190.831 1036.71 187.983C1037.39 185.139 1038.63 183.359 1040.23 182.451C1041.82 181.543 1043.99 181.386 1046.78 182.256C1049.58 183.127 1052.8 184.977 1056.26 187.757C1063.17 193.311 1070.66 202.309 1077 213.46Z" stroke="#8DD126" stroke-width="4"/>
<path d="M1076.96 229.965C1070.58 241.091 1063.06 250.059 1056.13 255.585C1052.66 258.351 1049.42 260.188 1046.62 261.048C1043.83 261.907 1041.66 261.741 1040.07 260.827C1038.48 259.912 1037.24 258.127 1036.57 255.281C1035.9 252.429 1035.86 248.708 1036.5 244.317C1037.77 235.547 1041.72 224.528 1048.11 213.402C1054.49 202.276 1062.02 193.308 1068.94 187.783C1072.41 185.016 1075.65 183.179 1078.45 182.319C1081.25 181.461 1083.41 181.626 1085 182.541C1086.6 183.455 1087.83 185.24 1088.5 188.087C1089.17 190.938 1089.22 194.659 1088.58 199.05C1087.3 207.821 1083.35 218.839 1076.96 229.965Z" stroke="#8DD126" stroke-width="4"/>
<path d="M1062.58 238.319C1049.75 238.354 1038.22 236.325 1029.97 233.089C1025.84 231.468 1022.63 229.584 1020.49 227.589C1018.35 225.598 1017.41 223.642 1017.4 221.805C1017.4 219.968 1018.33 218.006 1020.46 216.004C1022.59 213.998 1025.79 212.096 1029.91 210.453C1038.15 207.173 1049.66 205.082 1062.49 205.048C1075.32 205.013 1086.85 207.042 1095.1 210.278C1099.23 211.899 1102.44 213.783 1104.58 215.778C1106.72 217.769 1107.66 219.725 1107.67 221.562C1107.67 223.399 1106.75 225.361 1104.61 227.363C1102.48 229.369 1099.28 231.271 1095.16 232.914C1086.93 236.194 1075.41 238.285 1062.58 238.319Z" stroke="#8DD126" stroke-width="4"/>
<circle cx="1062.88" cy="220.587" r="6.66242" stroke="#8DD126" stroke-width="4"/>
</svg>

