<svg width="799" height="364" viewBox="0 0 799 364" fill="none" xmlns="http://www.w3.org/2000/svg">
<path d="M637.625 234.343C639.111 228.13 615.938 216.286 573.145 201.389C530.352 186.491 471.399 169.743 409.106 154.786C346.812 139.83 286.215 127.875 240.489 121.52C194.764 115.165 167.608 114.924 164.926 120.85" stroke="#5A5A5A" stroke-opacity="0.3" stroke-width="2"/>
<path d="M778.078 266.538C780.719 255.492 744.141 235.542 676.297 211.025C608.453 186.508 514.83 159.407 415.784 135.615C316.738 111.823 220.279 93.2631 147.38 83.9714C74.4805 74.6797 31.0365 75.4074 26.4939 85.9963" stroke="#5A5A5A" stroke-opacity="0.3" stroke-width="2"/>
<circle cx="394.512" cy="186.512" r="98.5" transform="rotate(13.446 394.512 186.512)" stroke="#8DD126" stroke-width="3"/>
<path d="M353.615 127.319L356.088 127.681L356.088 127.681L353.615 127.319ZM338.416 231.122L340.89 231.484L340.89 231.484L338.416 231.122ZM338.998 232.426L337.616 234.509L337.616 234.509L338.998 232.426ZM379.505 259.305L380.887 257.222L380.887 257.222L379.505 259.305ZM380.459 259.509L380.866 261.976L380.867 261.976L380.459 259.509ZM422.878 252.501L422.471 250.034L422.471 250.034L422.878 252.501ZM423.925 251.61L421.555 250.814L421.555 250.814L423.925 251.61ZM457.335 152.117L454.965 151.321L454.965 151.321L457.335 152.117ZM369.134 156.383C367.792 156.062 366.443 156.89 366.122 158.233C365.801 159.576 366.629 160.925 367.972 161.246L369.134 156.383ZM428.416 173.127L430.764 173.985C431.009 173.315 430.956 172.573 430.619 171.944C430.282 171.316 429.692 170.861 428.998 170.695L428.416 173.127ZM366.731 206.156C366.659 204.777 365.482 203.718 364.103 203.791C362.724 203.864 361.666 205.04 361.738 206.419L366.731 206.156ZM364.87 218.337L362.373 218.469C362.416 219.274 362.844 220.009 363.523 220.444L364.87 218.337ZM385.456 231.496L384.109 233.602C384.601 233.916 385.186 234.049 385.765 233.977L385.456 231.496ZM408.104 228.674L408.414 231.155C409.344 231.039 410.131 230.412 410.452 229.532L408.104 228.674ZM365.419 182.951C364.076 182.63 362.728 183.458 362.406 184.801C362.085 186.144 362.914 187.493 364.257 187.814L365.419 182.951ZM456.962 147.964L355.825 123.784L354.663 128.647L455.8 152.827L456.962 147.964ZM355.825 123.784C353.635 123.26 351.467 124.729 351.141 126.957L356.088 127.681C355.989 128.36 355.329 128.806 354.663 128.647L355.825 123.784ZM351.141 126.957L335.942 230.76L340.89 231.484L356.088 127.681L351.141 126.957ZM335.942 230.76C335.727 232.228 336.379 233.688 337.616 234.509L340.38 230.343C340.757 230.593 340.955 231.037 340.89 231.484L335.942 230.76ZM337.616 234.509L378.123 261.388L380.887 257.222L340.38 230.343L337.616 234.509ZM378.123 261.388C378.93 261.924 379.911 262.134 380.866 261.976L380.053 257.043C380.343 256.995 380.641 257.058 380.887 257.222L378.123 261.388ZM380.867 261.976L423.286 254.968L422.471 250.034L380.052 257.043L380.867 261.976ZM423.286 254.968C424.686 254.736 425.843 253.751 426.295 252.406L421.555 250.814C421.693 250.405 422.045 250.105 422.471 250.034L423.286 254.968ZM426.295 252.406L459.705 152.913L454.965 151.321L421.555 250.814L426.295 252.406ZM459.705 152.913C460.422 150.778 459.152 148.488 456.962 147.964L455.8 152.827C455.133 152.668 454.747 151.971 454.965 151.321L459.705 152.913ZM367.972 161.246L427.835 175.558L428.998 170.695L369.134 156.383L367.972 161.246ZM426.069 172.268L416.836 197.517L421.532 199.234L430.764 173.985L426.069 172.268ZM361.738 206.419L362.373 218.469L367.366 218.206L366.731 206.156L361.738 206.419ZM363.523 220.444L384.109 233.602L386.802 229.389L366.216 216.231L363.523 220.444ZM385.765 233.977L408.414 231.155L407.795 226.193L385.147 229.015L385.765 233.977ZM410.452 229.532L421.532 199.234L416.836 197.517L405.757 227.815L410.452 229.532ZM364.257 187.814L418.602 200.807L419.765 195.944L365.419 182.951L364.257 187.814Z" fill="#8DD126"/>
<path d="M637.686 234.091C636.968 237.093 629.957 238.558 617.066 238.4C604.174 238.242 585.662 236.465 562.617 233.172C539.573 229.88 512.461 225.139 482.876 219.228C453.292 213.317 421.831 206.356 390.344 198.753C358.857 191.151 327.979 183.06 299.526 174.958C271.073 166.855 245.619 158.904 224.661 151.572C203.702 144.24 187.662 137.675 177.484 132.262C167.306 126.85 163.195 122.699 165.392 120.055" stroke="#C6C6C6" stroke-opacity="0.3" stroke-width="2"/>
<circle cx="577" cy="229" r="39.5" stroke="#8DD126"/>
<path d="M569.703 223.514L573 225.759L575.856 226.625C576.327 226.768 576.816 226.84 577.308 226.84L581.707 226.84L586.86 225.732L590.931 224.379L594.295 221.851L597.138 219.552L599.247 216.766C599.75 216.1 600.08 215.32 600.204 214.495L600.586 211.966L600.586 210.042C600.586 209.065 600.3 208.109 599.763 207.293L599.207 206.448L597.568 204.987C596.922 204.411 596.139 204.013 595.293 203.831L591.956 203.112C591.61 203.038 591.257 203 590.903 203L587.262 203C586.995 203 586.728 203.021 586.464 203.064L580.44 204.037C580.145 204.085 579.856 204.159 579.575 204.258L573.706 206.327L568.314 208.94C568.097 209.046 567.887 209.167 567.687 209.302L562.268 212.98L558.588 216.038C558.373 216.217 558.173 216.413 557.991 216.624L556.165 218.75C555.665 219.331 555.306 220.019 555.115 220.761L554.139 224.544C553.849 225.67 553.96 226.862 554.453 227.915L555.555 230.264C556.209 231.659 557.176 232.884 558.382 233.843L569.46 242.66C570.805 243.73 571.506 245.416 571.316 247.124L570.931 250.586L569.603 253.684C569.125 254.799 568.259 255.702 567.165 256.226L563.625 257.918C559.645 259.822 555.329 256.013 556.724 251.827L557.026 250.923C557.1 250.699 557.191 250.48 557.297 250.268L558.517 247.828L560.586 245.759L565.414 243L573 240.241L577.59 239.668C578.203 239.591 578.824 239.629 579.423 239.778L581.276 240.241L582.285 241.256" stroke="#8DD126" stroke-width="2" stroke-linecap="round"/>
<path d="M777.942 267.109C776.666 272.445 765.385 275.332 744.763 275.601C724.141 275.869 694.594 273.513 657.858 268.672C621.122 263.831 577.94 256.602 530.85 247.41C483.76 238.218 433.713 227.249 383.651 215.147C333.589 203.046 284.522 190.056 239.336 176.942C194.15 163.828 153.757 150.854 120.531 138.784C87.3052 126.713 61.9174 115.789 45.8602 106.654C29.8031 97.5192 23.4008 90.3576 27.0298 85.5905" stroke="#C6C6C6" stroke-opacity="0.3" stroke-width="2"/>
<path d="M208.5 156C208.5 183.338 186.338 205.5 159 205.5C131.662 205.5 109.5 183.338 109.5 156C109.5 128.662 131.662 106.5 159 106.5C186.338 106.5 208.5 128.662 208.5 156Z" stroke="#8DD126"/>
<path d="M150.213 158.071H162.223M162.223 158.071L164.014 156.536C164.814 155.85 165.468 155.012 165.939 154.071L165.986 153.977C166.334 153.28 166.569 152.53 166.679 151.758L166.718 151.482C166.865 150.458 166.751 149.414 166.388 148.446V148.446C165.912 147.177 165.032 146.101 163.883 145.383L163.796 145.329C162.768 144.686 161.58 144.346 160.368 144.346H150.213V158.714V173.083H161.068C162.389 173.083 163.688 172.752 164.848 172.119L165.037 172.016C166.802 171.054 168.098 169.414 168.627 167.474V167.474C168.929 166.368 168.969 165.206 168.744 164.081L168.512 162.92C168.327 161.996 167.872 161.147 167.205 160.48V160.48C166.748 160.023 166.203 159.663 165.602 159.423L162.223 158.071ZM194.821 158.071L192.168 156.302C191.367 155.768 190.648 155.122 190.032 154.383L189.559 153.816C189.066 153.223 188.642 152.576 188.297 151.886L188.156 151.604C187.462 150.215 187.101 148.684 187.101 147.132V139.221C187.101 136.471 185.956 133.846 183.941 131.975V131.975C182.112 130.277 179.709 129.333 177.213 129.333H139.942C137.446 129.333 135.042 130.277 133.214 131.975V131.975C131.199 133.846 130.054 136.471 130.054 139.221V147.132C130.054 148.684 129.693 150.215 128.998 151.604L128.857 151.886C128.512 152.576 128.089 153.223 127.595 153.816L127.122 154.383C126.506 155.122 125.787 155.768 124.987 156.302L122.333 158.071L124.371 158.977C125.57 159.51 126.63 160.311 127.47 161.319V161.319C128.045 162.009 128.508 162.785 128.842 163.619L129.339 164.861C129.811 166.043 130.054 167.303 130.054 168.575V176.673C130.054 179.336 131.02 181.908 132.774 183.912V183.912C134.861 186.298 137.877 187.667 141.047 187.667H176.107C179.277 187.667 182.293 186.298 184.381 183.912V183.912C186.134 181.908 187.101 179.336 187.101 176.673V168.575C187.101 167.303 187.343 166.043 187.816 164.861L188.313 163.619C188.646 162.785 189.109 162.009 189.684 161.319V161.319C190.524 160.311 191.584 159.51 192.783 158.977L194.821 158.071Z" stroke="#8DD126" stroke-width="3" stroke-linecap="round" stroke-linejoin="round"/>
</svg>

